<svg width="108" height="108" viewBox="0 0 108 108" fill="none" xmlns="http://www.w3.org/2000/svg">
<rect width="108" height="108" fill="#FFCE43"/>
<path d="M43.6291 58.0494C42.99 58.0494 42.4724 57.5317 42.4724 56.8926C42.4724 53.8163 39.9697 51.3135 36.8933 51.3135C33.8166 51.3135 31.3135 53.8163 31.3135 56.8926C31.3135 57.5317 30.7958 58.0494 30.1568 58.0494C29.5177 58.0494 29 57.5317 29 56.8926C29 52.5406 32.5409 49 36.893 49C41.245 49 44.7855 52.5406 44.7855 56.8926C44.7858 57.5317 44.2681 58.0494 43.6291 58.0494Z" fill="#111111"/>
<path d="M76.8433 58.0494C76.2042 58.0494 75.6865 57.5317 75.6865 56.8926C75.6865 53.8163 73.1837 51.3135 70.1074 51.3135C67.0307 51.3135 64.5279 53.8163 64.5279 56.8926C64.5279 57.5317 64.0102 58.0494 63.3712 58.0494C62.7321 58.0494 62.2144 57.5317 62.2144 56.8926C62.2144 52.5406 65.7553 49 70.1074 49C74.4595 49 78 52.5406 78 56.8926C78.0004 57.5317 77.4823 58.0494 76.8433 58.0494Z" fill="#111111"/>
</svg>
