<svg width="428" height="926" viewBox="0 0 428 926" fill="none" xmlns="http://www.w3.org/2000/svg">
<rect x="-21" y="-36" width="487" height="1014" fill="#FED4B0"/>
<path d="M26.2092 57.0742C50.2439 37.1795 79.2065 36.8688 106.059 27.6462C120.208 22.7862 134.837 13.5462 146.007 -0.000493102H-0.00012207V89.7822C7.51321 76.8035 16.0972 65.4435 26.2092 57.0742Z" fill="#FFB58E"/>
<path d="M50.5495 862.491C26.7241 831.132 -15.8745 822.663 -49.9999 802.738V926.667H79.1935C69.7188 905.098 64.7735 881.212 50.5495 862.491Z" fill="#FFB58E"/>
<path d="M363.267 41.985C391.088 69.8593 434.438 72.5302 470.931 87.6913L454.285 -35.115L326.262 -17.7621C338.548 2.33919 346.657 25.3438 363.267 41.985Z" fill="#FFB58E"/>
<path d="M427.353 836.484C412.552 872.199 380.969 905.595 342.319 904.764C329.116 904.48 316.215 900.207 303.008 900.205C280.416 900.201 261.964 911.681 245 926.993L442.68 926.993L442.68 785C438.625 802.515 434.224 819.905 427.353 836.484Z" fill="#FFB58E"/>
<path d="M180.963 186.529C180.128 185.516 179.335 184.388 178.583 183.167C176.324 179.5 174.425 174.981 172.835 170.145C172.233 168.317 171.681 166.441 171.167 164.552C170.367 161.62 169.667 158.652 169.057 155.747C168.813 154.591 168.584 153.447 168.369 152.317C166.095 140.384 165.333 130.4 165.333 130.4C142.939 130.243 114.888 99.0666 114.888 99.0666C98.248 108.488 74.1907 109.88 59.6107 109.723C59.596 109.723 59.5813 109.721 59.5667 109.721C58.2093 109.707 56.9347 109.679 55.756 109.641C50.32 109.473 46.9293 109.132 46.9293 109.132C44.532 137.044 15.0013 169.443 15.0013 169.443C29.724 181.679 33.2613 228.248 33.2613 228.248C55.656 228.407 83.7067 259.583 83.7067 259.583C109.068 245.221 151.665 249.517 151.665 249.517C154.063 221.605 183.595 189.207 183.595 189.207C182.673 188.441 181.797 187.543 180.963 186.529Z" fill="#FFB58E"/>
<path d="M52.2968 100.065L157.033 240.451C157.033 240.451 114.435 236.156 89.0741 250.516C89.0741 250.516 61.0234 219.34 38.6288 219.183C38.6288 219.183 35.0914 172.613 20.3688 160.376C20.3688 160.376 49.8994 127.977 52.2968 100.065Z" fill="#15A0D1"/>
<path d="M38.6291 219.182L104.501 170.038L20.3677 160.375C35.0904 172.613 38.6291 219.182 38.6291 219.182Z" fill="white"/>
<path d="M104.501 170.038L89.074 250.515C114.437 236.155 157.033 240.451 157.033 240.451L104.501 170.038Z" fill="white"/>
<path d="M157.033 240.451L52.2972 100.065C52.2972 100.065 94.8945 104.36 120.256 90C120.256 90 148.307 121.176 170.701 121.333C170.701 121.333 174.239 167.903 188.961 180.14C188.961 180.14 159.431 212.539 157.033 240.451Z" fill="#15A0D1"/>
<path d="M170.701 121.334L104.501 170.038L188.961 180.141C174.24 167.903 170.701 121.334 170.701 121.334Z" fill="white"/>
<path d="M104.501 170.038L120.255 90.0002C94.894 104.36 52.2966 100.066 52.2966 100.066L104.501 170.038Z" fill="white"/>
<path d="M492.757 294.316C478.192 275.881 485.304 232.464 485.304 232.464C459.569 222.189 437.088 190.274 433.1 184.381C432.687 183.772 432.472 183.441 432.472 183.441C408.052 199.793 362.156 196.88 362.155 196.88C361.8 216.961 326 250.414 326 250.414C340.565 268.849 333.455 312.268 333.455 312.268C352.976 320.061 370.627 340.309 379.752 352.204C380.167 352.745 380.564 353.268 380.943 353.772C383.216 356.797 384.833 359.13 385.659 360.349C386.072 360.96 386.285 361.29 386.285 361.29C410.707 344.937 456.604 347.85 456.604 347.85C456.615 347.224 456.661 346.582 456.739 345.93C457.208 342.017 458.845 337.685 461.18 333.242C461.959 331.762 462.813 330.269 463.729 328.776C474.264 311.598 492.757 294.316 492.757 294.316Z" fill="#FFB58E"/>
<path d="M440.379 175.001L394.192 352.851C394.192 352.851 369.757 315.165 341.36 303.827C341.36 303.827 348.472 260.41 333.907 241.975C333.907 241.975 369.705 208.521 370.06 188.441C370.06 188.441 415.959 191.354 440.379 175.001Z" fill="#FF5160"/>
<path d="M333.907 241.975L417.358 263.647L370.061 188.44C369.705 208.52 333.907 241.975 333.907 241.975Z" fill="white"/>
<path d="M417.358 263.646L341.361 303.828C369.757 315.164 394.193 352.85 394.193 352.85L417.358 263.646Z" fill="white"/>
<path d="M394.193 352.851L440.379 175C440.379 175 464.814 212.687 493.211 224.024C493.211 224.024 486.099 267.441 500.664 285.876C500.664 285.876 464.866 319.329 464.51 339.411C464.51 339.411 418.613 336.497 394.193 352.851Z" fill="#FF5160"/>
<path d="M500.664 285.876L417.358 263.647L464.51 339.411C464.866 319.331 500.664 285.876 500.664 285.876Z" fill="white"/>
<path d="M417.358 263.646L493.21 224.024C464.814 212.686 440.378 175.001 440.378 175.001L417.358 263.646Z" fill="white"/>
<path d="M57.6699 812.023C50.0926 813.883 43.3486 817.225 37.3539 822.252C34.1526 824.937 31.2339 827.948 28.4672 831.072C27.3632 832.319 26.2952 833.596 25.2285 834.875C25.1699 834.924 25.1085 834.975 25.0499 835.025C24.7339 835.297 24.4232 835.577 24.1059 835.851C24.4659 835.183 24.8206 834.511 25.1846 833.841C26.4926 831.433 27.8045 829.027 29.1165 826.619C31.4405 822.349 33.8752 818.095 35.3059 813.423C35.6112 812.424 34.2859 812.039 33.7406 812.763C29.9179 817.821 26.3032 823.035 22.9272 828.401C21.2899 831.001 19.6912 833.631 18.1872 836.311C17.3872 837.735 16.6072 839.171 15.8419 840.613C15.3205 841.596 14.5139 842.788 14.4885 843.945C14.2605 844.113 14.0499 844.315 13.8632 844.564C13.7646 844.696 13.7312 844.864 13.7259 845.037C13.4886 845.249 13.2512 845.461 13.0152 845.673C12.8792 845.796 12.7459 845.923 12.6099 846.045C12.9246 845.297 13.2312 844.556 13.5472 843.845C14.9379 840.711 16.2725 837.551 17.5485 834.368C20.1939 827.768 22.5739 821.065 24.7059 814.283C25.0419 813.212 23.5872 812.76 23.0045 813.565C17.8285 820.709 13.2779 828.3 9.40588 836.227C7.56988 839.983 5.94589 843.845 4.46322 847.753C3.39922 850.556 2.35255 853.396 1.57121 856.3C0.393881 857.421 -0.795448 858.532 -1.96345 859.663C-1.58211 858.572 -1.19812 857.481 -0.823449 856.389C0.509885 852.509 1.81522 848.62 3.09522 844.723C5.62055 837.029 8.04055 829.303 10.3432 821.54C10.5979 820.684 9.38721 819.888 8.77521 820.628C2.97255 827.627 -1.07945 835.817 -4.22878 844.304C-5.84478 848.663 -7.27145 853.087 -8.69812 857.509C-9.50612 860.012 -10.3501 862.507 -11.1101 865.024C-11.6074 866.673 -12.1341 868.381 -12.4634 870.105C-13.4701 871.133 -14.4821 872.156 -15.4808 873.192C-14.5074 870.585 -13.8141 867.817 -13.0488 865.269C-11.7048 860.788 -10.4688 856.273 -9.34345 851.731C-7.09278 842.644 -5.35412 833.435 -4.04078 824.167C-3.88078 823.043 -5.15412 822.479 -5.85145 823.403C-12.1928 831.812 -15.5968 841.817 -17.9501 851.979C-19.2488 857.585 -20.2528 863.251 -21.3741 868.893C-22.3128 873.625 -23.5448 878.28 -24.6381 882.971C-26.5168 885.029 -28.3688 887.112 -30.2101 889.205C-30.5035 889.333 -30.8008 889.453 -31.0928 889.585C-31.1141 889.596 -31.1221 889.611 -31.1421 889.621C-30.5208 887.777 -29.9181 885.927 -29.3701 884.06C-27.7914 878.676 -26.4394 873.227 -25.2408 867.747C-22.7928 856.545 -20.9821 845.217 -19.1888 833.897C-19.0235 832.853 -20.3061 832.217 -20.9315 833.163C-27.1795 842.597 -30.5701 853.56 -32.7581 864.577C-33.9648 870.648 -34.8541 876.775 -35.8181 882.887C-36.6661 888.252 -37.6648 893.599 -38.5234 898.963C-40.4701 901.336 -42.3821 903.737 -44.2661 906.16C-44.5408 906.2 -44.8128 906.24 -45.0875 906.28C-45.1088 906.283 -45.1221 906.295 -45.1421 906.3C-43.9061 902.363 -42.8701 898.337 -41.8821 894.373C-40.4101 888.461 -39.1008 882.509 -37.9568 876.525C-35.7101 864.784 -34.0554 852.907 -33.1354 840.987C-33.0474 839.861 -34.5875 839.629 -35.1248 840.448C-41.6741 850.424 -42.8435 862.944 -44.4208 874.477C-46.0595 886.444 -47.2648 898.475 -48.3341 910.507C-48.3861 910.729 -48.4475 910.951 -48.4981 911.175C-48.5448 911.375 -48.5141 911.54 -48.4541 911.684C-49.2661 912.78 -50.0914 913.865 -50.8888 914.973C-51.7821 916.213 -52.6314 917.485 -53.5008 918.743C-52.7994 915.641 -52.2181 912.509 -51.6808 909.399C-50.6448 903.397 -49.8688 897.349 -49.3035 891.287C-48.1555 878.977 -47.8355 866.636 -47.4328 854.287C-47.4061 853.461 -48.6168 852.856 -49.1795 853.564C-54.7075 860.521 -56.0688 869.373 -56.5661 878.005C-57.1901 888.868 -57.3208 899.773 -57.6514 910.648C-57.8021 915.596 -58.0688 920.576 -58.0394 925.537C-58.9421 926.939 -59.8635 928.328 -60.7368 929.747C-60.7821 929.82 -60.8248 929.895 -60.8701 929.968C-60.8581 929.188 -60.8488 928.408 -60.8315 927.631C-60.7715 924.748 -60.7195 921.865 -60.6915 918.983C-60.6301 912.887 -60.6848 906.787 -60.7768 900.691C-60.9581 888.608 -61.3608 876.525 -62.0701 864.46C-62.1341 863.359 -63.7248 863.065 -64.0408 864.193C-70.8501 888.507 -69.2448 914.228 -66.1874 939.037C-67.3234 941.051 -68.4061 943.12 -68.9568 945.347C-69.3088 946.765 -67.4261 948.084 -66.3635 946.857C-64.9728 945.255 -63.9728 943.447 -62.9501 941.615C-41.1021 944.719 -18.0008 940.591 2.24588 932.165C3.64455 931.583 3.16322 929.493 1.60455 929.84C-3.82745 931.051 -9.37011 931.073 -14.9088 931.057C-20.3474 931.04 -25.7515 931.241 -31.1568 931.881C-41.1981 933.071 -51.0168 935.401 -60.8075 937.856C-60.0195 936.485 -59.2248 935.119 -58.4101 933.763C-58.2954 933.573 -58.1728 933.388 -58.0581 933.199C-52.8448 932.713 -47.6541 931.728 -42.5168 930.741C-36.9088 929.665 -31.3235 928.384 -25.8221 926.853C-14.7901 923.784 -4.53145 919.451 5.32455 913.637C6.22855 913.104 5.89788 911.489 4.76455 911.568C-5.97012 912.32 -16.8501 913.825 -27.3381 916.237C-32.5568 917.437 -37.7195 918.915 -42.7355 920.799C-46.1608 922.085 -49.8328 923.571 -53.1514 925.444C-52.1234 923.876 -51.0968 922.308 -50.0421 920.757C-49.8368 920.455 -49.6181 920.16 -49.4114 919.857C-39.1088 919.012 -28.8075 916.688 -18.9328 913.807C-7.91145 910.589 2.75655 906.329 13.0339 901.221C13.8792 900.801 13.4739 899.415 12.5539 899.451C7.13655 899.668 1.66855 900.568 -3.67678 901.451C-9.16478 902.359 -14.6008 903.605 -19.9835 905.007C-25.3701 906.408 -30.7195 907.969 -35.9981 909.735C-38.7328 910.649 -41.5221 911.579 -44.2634 912.619C-42.9154 910.783 -41.5168 908.985 -40.1301 907.18C-31.1621 906.58 -22.1475 904.68 -13.5808 902.221C-3.36078 899.288 6.54455 895.297 16.0045 890.452C16.8312 890.029 16.4779 888.549 15.5152 888.644C6.27388 889.564 -2.88212 891.081 -11.9648 893.015C-16.5128 893.983 -21.0354 895.069 -25.5261 896.272C-28.0261 896.943 -30.5728 897.593 -33.0901 898.325C-32.4688 897.573 -31.8714 896.803 -31.2448 896.056C-30.6381 895.335 -30.0141 894.628 -29.4021 893.912C-25.6341 893.668 -21.8701 893.192 -18.1341 892.707C-13.3155 892.081 -8.50478 891.365 -3.73945 890.416C5.88055 888.501 14.9246 885.467 23.9099 881.595L23.9125 881.593C23.9912 881.559 24.0699 881.528 24.1486 881.495C25.2472 881.019 24.3979 879.527 23.3899 879.696C18.5392 880.507 13.8592 880.853 8.94055 880.936C4.40722 881.012 -0.10345 881.244 -4.59812 881.865C-10.7675 882.72 -16.8128 884.209 -22.6795 886.245C-21.0141 884.395 -19.3021 882.585 -17.6061 880.764C-14.2021 880.783 -10.7048 880.343 -7.38878 880.063C-2.95945 879.689 1.46189 879.216 5.86055 878.564C14.7979 877.237 23.3859 874.931 31.8059 871.661C33.0685 871.171 32.6019 869.22 31.2339 869.587C23.4059 871.689 15.6485 870.485 7.68188 870.411C1.12455 870.348 -5.03012 871.872 -11.1248 873.924C-10.2195 872.988 -9.30078 872.063 -8.39011 871.131C-7.29545 871.109 -6.19545 870.997 -5.11812 870.911C-3.21012 870.759 -1.29811 870.588 0.601885 870.349C4.57789 869.852 8.53922 869.148 12.4619 868.331C16.3486 867.521 20.2059 866.569 24.0219 865.479C28.0539 864.327 31.9192 862.76 35.9059 861.493C36.9392 861.165 36.7472 859.647 35.6512 859.607C27.8539 859.327 19.8019 860.515 12.1472 861.903C8.31922 862.597 4.51388 863.421 0.737882 864.356C-0.274119 864.607 -1.33412 864.843 -2.40612 865.091C-1.30345 863.992 -0.188783 862.907 0.919217 861.815C3.22588 861.913 5.56322 861.82 7.82988 861.728C11.3085 861.587 14.7766 861.319 18.2246 860.836C25.1579 859.867 31.9219 858.008 38.1126 854.685C39.0846 854.164 38.5779 852.757 37.5766 852.709C26.5432 852.171 15.3152 853.812 4.99922 857.8C5.95255 856.873 6.91522 855.959 7.87122 855.036C10.5592 854.971 13.3285 854.335 15.9206 853.859C19.1472 853.265 22.3539 852.584 25.5392 851.799C28.7219 851.013 31.8832 850.144 35.0206 849.189C38.2566 848.205 41.4046 846.913 44.6446 845.964C45.5752 845.691 45.3672 844.349 44.4205 844.304C41.5059 844.164 38.4552 844.589 35.5645 844.965C32.5125 845.361 29.4765 845.921 26.4739 846.596C21.6085 847.688 16.7365 849.037 12.1165 850.951C12.8699 850.232 13.6232 849.512 14.3765 848.792C16.4379 848.373 18.4912 847.904 20.5499 847.476C23.9632 846.765 27.3739 846.061 30.7485 845.181C33.9765 844.34 37.1685 843.352 40.2459 842.059C43.3339 840.761 46.0846 839.072 48.8886 837.261C49.6539 836.767 49.4392 835.292 48.3832 835.393C42.2339 835.984 36.1166 837.22 30.1446 838.783C27.5846 839.452 25.0459 840.207 22.5245 841.012C23.1779 840.391 23.8259 839.764 24.4806 839.144C24.9939 838.659 25.5166 838.184 26.0339 837.703C29.0406 836.033 32.1845 834.927 35.3419 833.564C38.5512 832.18 41.5179 830.309 44.2792 828.175C49.6539 824.021 54.6165 818.785 58.6979 813.36C59.2045 812.685 58.3712 811.851 57.6699 812.023Z" fill="#56A262"/>
<path d="M74.3098 859.532C73.0178 864.209 72.7845 868.885 73.6938 873.665C74.1778 876.217 74.9271 878.716 75.7818 881.166C76.1231 882.145 76.4925 883.112 76.8618 884.078C76.8711 884.126 76.8805 884.174 76.8898 884.221C76.9418 884.476 76.9991 884.73 77.0511 884.984C76.7978 884.586 76.5418 884.19 76.2885 883.789C75.3778 882.348 74.4698 880.905 73.5618 879.462C71.9498 876.904 70.3805 874.29 68.2791 872.096C67.8298 871.626 67.2178 872.229 67.4458 872.745C69.0298 876.356 70.7618 879.9 72.6498 883.362C73.5645 885.041 74.5058 886.708 75.5031 888.337C76.0338 889.204 76.5765 890.062 77.1271 890.917C77.5018 891.498 77.9045 892.297 78.5245 892.662C78.5471 892.838 78.5911 893.013 78.6698 893.19C78.7111 893.284 78.7938 893.353 78.8858 893.409C78.9285 893.601 78.9711 893.794 79.0151 893.988C79.0405 894.098 79.0685 894.209 79.0938 894.32C78.7831 893.922 78.4738 893.53 78.1845 893.144C76.9058 891.437 75.5951 889.753 74.2551 888.094C71.4765 884.654 68.5605 881.328 65.5271 878.11C65.0471 877.602 64.3618 878.254 64.6205 878.816C66.9271 883.794 69.6645 888.569 72.7911 893.078C74.2725 895.214 75.8765 897.269 77.5471 899.261C78.7458 900.689 79.9685 902.12 81.3085 903.425C81.5591 904.405 81.8005 905.388 82.0591 906.365C81.5831 905.828 81.1085 905.288 80.6298 904.752C78.9285 902.85 77.2138 900.961 75.4871 899.082C72.0778 895.376 68.6191 891.717 65.1058 888.109C64.7178 887.712 63.9178 888.126 64.1338 888.684C66.1711 893.958 69.3858 898.645 73.0365 902.93C74.9111 905.132 76.8791 907.249 78.8458 909.366C79.9591 910.565 81.0565 911.781 82.1925 912.957C82.9365 913.729 83.7031 914.533 84.5391 915.234C84.7925 916.093 85.0391 916.953 85.2991 917.81C84.1791 916.49 82.8871 915.273 81.7365 914.085C79.7125 911.994 77.6378 909.952 75.5138 907.962C71.2645 903.981 66.7951 900.241 62.1631 896.714C61.6005 896.286 60.9085 896.806 61.1991 897.465C63.8378 903.461 68.2338 908.346 73.0351 912.709C75.6831 915.117 78.4538 917.382 81.1765 919.704C83.4591 921.65 85.6125 923.732 87.8258 925.749C88.3725 927.394 88.9405 929.032 89.5178 930.666C89.4978 930.865 89.4738 931.064 89.4564 931.262C89.4551 931.277 89.4605 931.286 89.4605 931.3C88.6485 930.402 87.8271 929.513 86.9805 928.649C84.5378 926.157 81.9898 923.769 79.3791 921.454C74.0431 916.724 68.4445 912.301 62.8445 907.892C62.3285 907.485 61.5938 907.986 61.9165 908.614C65.1405 914.87 70.0618 920.038 75.3765 924.572C78.3045 927.07 81.3605 929.413 84.3845 931.793C87.0405 933.882 89.6391 936.048 92.2898 938.142C92.9871 939.92 93.7098 941.686 94.4525 943.445C94.3911 943.605 94.3298 943.766 94.2671 943.926C94.2631 943.94 94.2644 943.95 94.2618 943.962C92.5004 942.097 90.6298 940.312 88.7791 938.572C86.0165 935.978 83.1831 933.46 80.2831 931.021C74.5925 926.237 68.6485 921.732 62.4578 917.613C61.8738 917.224 61.2805 917.99 61.5605 918.529C64.9871 925.113 71.4271 929.55 77.2085 933.909C83.2071 938.432 89.3698 942.738 95.5764 946.973C95.6818 947.069 95.7831 947.169 95.8885 947.265C95.9831 947.35 96.0818 947.384 96.1778 947.396C96.5271 948.169 96.8658 948.946 97.2245 949.716C97.6271 950.577 98.0591 951.424 98.4778 952.278C97.0071 950.956 95.4831 949.689 93.9591 948.453C91.0165 946.068 87.9685 943.81 84.8498 941.662C78.5165 937.301 71.9165 933.381 65.3351 929.413C64.8951 929.148 64.1991 929.621 64.4125 930.141C66.5098 935.254 70.9018 938.681 75.4365 941.572C81.1418 945.209 87.0218 948.592 92.8245 952.073C95.4645 953.657 98.0858 955.314 100.787 956.805C101.274 957.72 101.748 958.641 102.254 959.546C102.279 959.593 102.307 959.64 102.332 959.686C101.912 959.442 101.492 959.201 101.075 958.956C99.5298 958.048 97.9805 957.145 96.4245 956.253C93.1338 954.369 89.8071 952.546 86.4698 950.745C79.8565 947.174 73.1765 943.725 66.4125 940.446C65.7951 940.146 65.1525 940.92 65.6698 941.434C76.7978 952.513 91.2458 959.452 105.64 965.326C106.388 966.554 107.183 967.77 108.224 968.745C108.887 969.366 110.175 968.745 109.832 967.796C109.384 966.554 108.707 965.462 108.023 964.352C116.342 953.436 121.115 939.644 122.69 926.096C122.799 925.16 121.518 924.786 121.234 925.737C120.242 929.054 118.571 932.069 116.88 935.07C115.219 938.017 113.687 941.012 112.394 944.14C109.99 949.95 108.274 955.988 106.634 962.048C106.128 961.204 105.627 960.357 105.139 959.504C105.071 959.384 105.008 959.261 104.94 959.141C106.26 956.164 107.3 953.048 108.326 949.96C109.444 946.589 110.444 943.168 111.284 939.717C112.968 932.797 113.731 925.913 113.57 918.798C113.554 918.146 112.576 917.834 112.275 918.474C109.424 924.529 106.938 930.892 105.062 937.316C104.128 940.513 103.363 943.765 102.863 947.058C102.52 949.309 102.212 951.753 102.222 954.122C101.682 953.089 101.143 952.056 100.622 951.013C100.519 950.809 100.426 950.601 100.324 950.396C102.994 944.548 104.86 938.252 106.295 932.016C107.895 925.057 108.822 917.973 109.171 910.844C109.199 910.257 108.323 910.057 108.064 910.566C106.536 913.573 105.364 916.814 104.222 919.984C103.047 923.238 102.074 926.568 101.199 929.914C100.324 933.264 99.5485 936.641 98.9031 940.042C98.5698 941.805 98.2258 943.601 97.9591 945.404C97.3711 944.116 96.8205 942.81 96.2618 941.509C98.6591 936.46 100.366 930.99 101.632 925.593C103.143 919.156 103.986 912.568 104.227 905.961C104.248 905.385 103.338 905.126 103.098 905.678C100.791 910.973 98.8338 916.404 97.1258 921.921C96.2698 924.682 95.4871 927.468 94.7765 930.27C94.3805 931.83 93.9605 933.41 93.5938 935C93.3738 934.434 93.1365 933.876 92.9218 933.309C92.7138 932.761 92.5204 932.208 92.3178 931.658C93.3298 929.538 94.2138 927.352 95.0858 925.176C96.2084 922.37 97.2805 919.542 98.2125 916.668C100.095 910.865 101.194 905.034 101.82 898.981C101.826 898.928 101.832 898.874 101.838 898.821C101.914 898.081 100.847 898.089 100.631 898.686C99.5991 901.566 98.3658 904.212 96.9178 906.906C95.5818 909.389 94.3378 911.909 93.3111 914.537C91.9018 918.145 90.8738 921.878 90.1978 925.681C89.6991 924.214 89.2365 922.737 88.7631 921.262C89.8071 919.421 90.6298 917.389 91.4844 915.504C92.6271 912.986 93.7125 910.442 94.6938 907.858C96.6885 902.604 98.0444 897.242 98.8258 891.68C98.9431 890.845 97.7431 890.506 97.5271 891.36C96.2911 896.246 93.2818 900.092 90.8218 904.393C88.7978 907.933 87.7551 911.737 87.0191 915.668C86.7858 914.892 86.5618 914.113 86.3338 913.336C86.6538 912.734 86.9271 912.104 87.2071 911.493C87.7045 910.41 88.1911 909.321 88.6391 908.218C89.5765 905.908 90.3978 903.545 91.1445 901.168C91.8858 898.812 92.5405 896.43 93.1071 894.026C93.7058 891.489 94.0298 888.914 94.5525 886.366C94.6885 885.705 93.8058 885.349 93.4511 885.932C90.9311 890.078 89.1311 894.81 87.5605 899.386C86.7751 901.674 86.0671 903.99 85.4271 906.324C85.2565 906.949 85.0631 907.596 84.8711 908.253C84.6098 907.321 84.3591 906.386 84.1031 905.453C84.8565 904.232 85.5151 902.934 86.1538 901.677C87.1338 899.746 88.0418 897.782 88.8271 895.764C90.4058 891.706 91.4511 887.47 91.5271 883.102C91.5405 882.416 90.6218 882.264 90.2911 882.792C86.6498 888.618 84.1311 895.21 83.1631 902.02C82.9498 901.222 82.7445 900.421 82.5351 899.622C83.3151 898.144 83.8111 896.446 84.3405 894.896C84.9978 892.964 85.6018 891.017 86.1431 889.05C86.6831 887.084 87.1711 885.104 87.6058 883.112C88.0538 881.056 88.3085 878.954 88.7765 876.908C88.9111 876.32 88.1204 876.025 87.8084 876.525C86.8471 878.065 86.1525 879.849 85.4778 881.533C84.7658 883.309 84.1485 885.128 83.6031 886.962C82.7178 889.934 81.9711 892.989 81.6058 896.077C81.4458 895.45 81.2831 894.822 81.1205 894.196C81.5205 892.949 81.8885 891.693 82.2818 890.445C82.9325 888.376 83.5858 886.312 84.1325 884.212C84.6565 882.205 85.0885 880.173 85.3218 878.11C85.5551 876.04 85.4738 874.033 85.3418 871.961C85.3058 871.396 84.4405 871.065 84.1751 871.669C82.6285 875.186 81.4418 878.881 80.4765 882.597C80.0618 884.19 79.7005 885.797 79.3725 887.41C79.2338 886.866 79.0898 886.325 78.9525 885.781C78.8445 885.356 78.7458 884.928 78.6418 884.501C78.6485 882.361 79.0031 880.318 79.2218 878.192C79.4445 876.03 79.3298 873.852 79.0111 871.705C78.3885 867.526 77.0538 863.242 75.3471 859.38C75.1351 858.9 74.4285 859.1 74.3098 859.532Z" fill="#477163"/>
<path d="M313.787 49.9675C317.952 47.2928 321.311 43.9008 323.875 39.6502C325.243 37.3822 326.375 34.9742 327.393 32.5302C327.8 31.5555 328.177 30.5688 328.555 29.5835C328.58 29.5408 328.605 29.4982 328.631 29.4555C328.765 29.2275 328.893 28.9955 329.027 28.7662C328.948 29.2408 328.873 29.7168 328.793 30.1928C328.504 31.9075 328.211 33.6222 327.92 35.3355C327.403 38.3768 326.817 41.4302 326.919 44.5275C326.941 45.1902 327.815 45.1488 327.995 44.6022C329.248 40.7808 330.344 36.9088 331.267 32.9942C331.715 31.0968 332.133 29.1902 332.485 27.2728C332.672 26.2542 332.844 25.2315 333.008 24.2088C333.119 23.5115 333.356 22.6302 333.135 21.9315C333.236 21.7822 333.321 21.6182 333.383 21.4302C333.415 21.3315 333.399 21.2235 333.367 21.1182C333.465 20.9422 333.564 20.7662 333.663 20.5902C333.719 20.4888 333.773 20.3862 333.829 20.2848C333.795 20.7982 333.763 21.3062 333.72 21.7968C333.529 23.9635 333.379 26.1342 333.268 28.3075C333.037 32.8115 332.988 37.3235 333.104 41.8315C333.121 42.5435 334.087 42.5155 334.272 41.9128C335.908 36.5608 337.079 31.0702 337.772 25.5168C338.1 22.8862 338.281 20.2342 338.367 17.5835C338.429 15.6822 338.473 13.7635 338.344 11.8608C338.821 10.9448 339.305 10.0342 339.775 9.1155C339.771 9.84883 339.764 10.5808 339.763 11.3142C339.761 13.9168 339.777 16.5195 339.811 19.1208C339.877 24.2568 340.015 29.3915 340.229 34.5235C340.252 35.0888 341.143 35.3182 341.359 34.7488C343.4 29.3542 344.148 23.6062 344.292 17.8662C344.367 14.9182 344.312 11.9702 344.259 9.02217C344.229 7.35417 344.223 5.68483 344.16 4.01817C344.12 2.92483 344.084 1.7915 343.928 0.690168C344.32 -0.135165 344.717 -0.956498 345.104 -1.78316C345.056 -0.0191646 345.208 1.78483 345.273 3.4715C345.388 6.43683 345.575 9.40083 345.835 12.3568C346.352 18.2728 347.203 24.1568 348.32 29.9888C348.456 30.6968 349.336 30.7728 349.564 30.0742C351.64 23.7248 351.625 17.0195 350.948 10.4382C350.575 6.8075 350.012 3.20084 349.524 -0.415163C349.115 -3.4485 348.896 -6.49516 348.588 -9.53383C349.292 -11.1565 349.975 -12.7872 350.649 -14.4218C350.799 -14.5592 350.952 -14.6925 351.1 -14.8312C351.111 -14.8418 351.113 -14.8525 351.123 -14.8632C351.129 -13.6285 351.148 -12.3952 351.203 -11.1618C351.363 -7.60583 351.672 -4.05783 352.08 -0.521832C352.915 6.70217 354.157 13.8728 355.411 21.0342C355.525 21.6942 356.425 21.8128 356.607 21.1168C358.416 14.1702 358.196 6.89417 357.243 -0.167167C356.719 -4.05783 355.992 -7.91783 355.315 -11.7832C354.719 -15.1778 354.219 -18.5912 353.631 -21.9872C354.311 -23.8112 354.965 -25.6458 355.597 -27.4872C355.753 -27.5672 355.909 -27.6472 356.065 -27.7272C356.077 -27.7338 356.083 -27.7432 356.095 -27.7512C356.163 -25.1338 356.368 -22.5058 356.591 -19.9245C356.923 -16.0738 357.361 -12.2325 357.905 -8.40583C358.972 -0.89783 360.423 6.57017 362.321 13.9128C362.5 14.6048 363.472 14.4275 363.625 13.8262C365.504 6.49283 363.631 -1.2605 362.207 -8.50583C360.728 -16.0245 358.977 -23.4912 357.144 -30.9312C357.129 -31.0765 357.12 -31.2218 357.105 -31.3658C357.092 -31.4952 357.04 -31.5885 356.975 -31.6632C357.236 -32.4872 357.508 -33.3085 357.759 -34.1378C358.04 -35.0658 358.288 -36.0032 358.551 -36.9365C358.768 -34.9312 359.063 -32.9325 359.38 -30.9552C359.993 -27.1405 360.771 -23.3525 361.679 -19.5978C363.521 -11.9738 365.867 -4.50317 368.165 2.99017C368.319 3.49017 369.171 3.60484 369.363 3.06484C371.249 -2.24716 370.245 -7.83917 368.768 -13.1218C366.909 -19.7685 364.744 -26.3392 362.707 -32.9325C361.779 -35.9338 360.916 -38.9765 359.877 -41.9485C360.131 -42.9738 360.397 -43.9978 360.631 -45.0285C360.643 -45.0818 360.653 -45.1352 360.665 -45.1885C360.817 -44.7178 360.972 -44.2472 361.123 -43.7778C361.679 -42.0365 362.241 -40.2952 362.816 -38.5605C364.033 -34.8885 365.321 -31.2392 366.629 -27.6005C369.223 -20.3858 371.949 -13.2192 374.856 -6.1245C375.123 -5.4765 376.136 -5.6285 376.093 -6.36983C375.18 -22.3605 368.927 -37.4645 361.991 -51.7245C362.257 -53.1658 362.481 -54.6312 362.355 -56.0805C362.273 -57.0032 360.873 -57.4072 360.488 -56.4538C359.983 -55.2058 359.755 -53.9152 359.517 -52.6058C345.768 -49.9738 332.755 -42.7458 322.337 -33.5272C321.619 -32.8898 322.337 -31.7338 323.2 -32.2632C326.212 -34.1072 329.532 -35.2605 332.86 -36.3898C336.127 -37.4978 339.329 -38.7298 342.44 -40.2258C348.221 -43.0045 353.635 -46.4232 359.005 -49.9098C358.813 -48.9245 358.619 -47.9405 358.408 -46.9592C358.379 -46.8218 358.343 -46.6858 358.313 -46.5498C355.284 -45.1858 352.372 -43.5258 349.492 -41.8778C346.348 -40.0792 343.26 -38.1618 340.273 -36.1112C334.284 -32.0005 329.02 -27.2912 324.3 -21.7752C323.867 -21.2698 324.399 -20.3685 325.063 -20.6485C331.349 -23.3072 337.568 -26.4485 343.365 -30.0525C346.251 -31.8458 349.045 -33.7952 351.668 -35.9565C353.459 -37.4325 355.356 -39.0805 356.963 -40.8858C356.668 -39.7338 356.375 -38.5818 356.061 -37.4352C356 -37.2098 355.929 -36.9885 355.868 -36.7645C349.859 -34.1378 344.155 -30.6258 338.823 -26.8658C332.871 -22.6685 327.345 -17.9178 322.228 -12.7392C321.807 -12.3138 322.335 -11.5645 322.88 -11.7752C326.087 -13.0192 329.183 -14.6845 332.208 -16.3138C335.315 -17.9872 338.32 -19.8525 341.263 -21.8005C344.207 -23.7498 347.095 -25.7872 349.9 -27.9325C351.353 -29.0432 352.836 -30.1738 354.267 -31.3618C353.836 -29.9832 353.367 -28.6165 352.905 -27.2485C347.648 -25.0445 342.628 -22.0498 337.993 -18.8125C332.464 -14.9512 327.34 -10.5192 322.66 -5.66583C322.251 -5.24183 322.767 -4.42583 323.325 -4.68183C328.681 -7.13383 333.864 -9.92717 338.916 -12.9552C341.447 -14.4712 343.937 -16.0538 346.385 -17.6992C347.747 -18.6152 349.141 -19.5298 350.501 -20.4872C350.284 -19.9085 350.084 -19.3232 349.861 -18.7458C349.645 -18.1885 349.416 -17.6352 349.196 -17.0792C346.985 -16.1592 344.825 -15.0992 342.683 -14.0392C339.92 -12.6738 337.18 -11.2538 334.515 -9.7045C329.137 -6.57783 324.333 -2.89517 319.737 1.2755L319.736 1.27683C319.696 1.31283 319.656 1.34883 319.616 1.38483C319.053 1.8955 319.869 2.61684 320.44 2.3075C323.184 0.823503 325.921 -0.347167 328.856 -1.4085C331.56 -2.38583 334.22 -3.4525 336.788 -4.74983C340.316 -6.5325 343.637 -8.6685 346.739 -11.0965C346.12 -9.6445 345.465 -8.20583 344.821 -6.7645C342.776 -6.07516 340.767 -5.09117 338.835 -4.24183C336.253 -3.10717 333.697 -1.91383 331.192 -0.61783C326.101 2.0155 321.423 5.16617 317.043 8.8595C316.385 9.41417 317.067 10.4888 317.812 9.9875C322.077 7.1155 326.98 6.2435 331.776 4.64884C335.723 3.33817 339.104 1.15817 342.339 -1.32717C341.988 -0.579166 341.628 0.164835 341.272 0.911502C340.62 1.15017 339.983 1.4435 339.355 1.71684C338.24 2.20084 337.128 2.6955 336.037 3.23017C333.753 4.34617 331.521 5.5835 329.335 6.88084C327.169 8.16617 325.051 9.53017 322.984 10.9702C320.803 12.4902 318.804 14.2248 316.673 15.8048C316.12 16.2142 316.548 17.0862 317.213 16.8848C321.951 15.4488 326.537 13.0808 330.845 10.6728C333 9.46883 335.115 8.1915 337.188 6.85417C337.744 6.49684 338.331 6.13683 338.924 5.7675C338.488 6.65283 338.041 7.53417 337.601 8.41683C336.197 8.83283 334.815 9.36883 333.472 9.89017C331.415 10.6902 329.388 11.5635 327.419 12.5622C323.457 14.5702 319.78 17.0768 316.749 20.3435C316.273 20.8568 316.867 21.5968 317.477 21.4195C324.208 19.4728 330.608 16.1795 335.979 11.6648C335.597 12.4168 335.208 13.1648 334.824 13.9142C333.225 14.5062 331.693 15.4582 330.236 16.2768C328.421 17.2955 326.637 18.3648 324.888 19.4902C323.139 20.6168 321.421 21.7888 319.735 23.0062C317.996 24.2622 316.372 25.6848 314.623 26.9222C314.12 27.2768 314.521 28.0382 315.099 27.8715C316.876 27.3555 318.619 26.4728 320.277 25.6528C322.027 24.7875 323.733 23.8262 325.396 22.8048C328.092 21.1488 330.739 19.3368 333.117 17.2395C332.812 17.8248 332.508 18.4128 332.205 18.9995C331.053 19.6742 329.919 20.3782 328.771 21.0582C326.868 22.1875 324.967 23.3115 323.123 24.5328C321.359 25.7022 319.647 26.9515 318.065 28.3595C316.479 29.7728 315.176 31.3528 313.865 33.0168C313.508 33.4702 313.94 34.3115 314.553 34.0328C318.121 32.4142 321.539 30.4142 324.8 28.2488C326.2 27.3195 327.568 26.3462 328.915 25.3435C328.651 25.8515 328.391 26.3608 328.125 26.8662C327.917 27.2635 327.701 27.6555 327.489 28.0502C326.028 29.6715 324.369 30.9822 322.755 32.4488C321.115 33.9395 319.719 35.6728 318.5 37.5208C316.129 41.1182 314.228 45.2808 312.895 49.3768C312.729 49.8862 313.401 50.2155 313.787 49.9675Z" fill="#56A262"/>
<path d="M58.4806 73.7322C59.1859 67.9348 58.6326 62.3282 56.7019 56.7988C55.6699 53.8468 54.3353 51.0068 52.8819 48.2415C52.3019 47.1388 51.6899 46.0522 51.0779 44.9668C51.0579 44.9122 51.0393 44.8562 51.0193 44.8015C50.9126 44.5082 50.7993 44.2162 50.6913 43.9228C51.0633 44.3522 51.4406 44.7775 51.8126 45.2095C53.1526 46.7628 54.4886 48.3202 55.8273 49.8748C58.2006 52.6335 60.5339 55.4655 63.4259 57.7042C64.0446 58.1842 64.6646 57.3575 64.3019 56.7828C61.7739 52.7682 59.0819 48.8562 56.2193 45.0708C54.8326 43.2362 53.4153 41.4188 51.9379 39.6562C51.1526 38.7202 50.3539 37.7935 49.5473 36.8748C48.9966 36.2495 48.3766 35.3695 47.5726 35.0442C47.5153 34.8402 47.4299 34.6402 47.3059 34.4428C47.2393 34.3388 47.1299 34.2722 47.0099 34.2215C46.9246 33.9988 46.8393 33.7775 46.7526 33.5562C46.7033 33.4282 46.6499 33.3015 46.6006 33.1735C47.0406 33.5922 47.4779 34.0028 47.8926 34.4122C49.7179 36.2162 51.5766 37.9882 53.4673 39.7242C57.3859 43.3242 61.4486 46.7668 65.6313 50.0562C66.2926 50.5748 66.9939 49.6762 66.5846 49.0548C62.9539 43.5388 58.8459 38.3428 54.3233 33.5308C52.1793 31.2508 49.9059 29.0908 47.5633 27.0175C45.8819 25.5308 44.1713 24.0442 42.3459 22.7295C41.8726 21.6068 41.4099 20.4802 40.9286 19.3628C41.5913 19.9188 42.2526 20.4775 42.9179 21.0295C45.2806 22.9895 47.6566 24.9348 50.0473 26.8628C54.7633 30.6682 59.5313 34.4095 64.3553 38.0788C64.8873 38.4842 65.7659 37.8468 65.4099 37.2228C62.0473 31.3068 57.3873 26.2988 52.2793 21.8468C49.6579 19.5602 46.9379 17.3895 44.2193 15.2188C42.6819 13.9908 41.1593 12.7388 39.5979 11.5402C38.5753 10.7548 37.5193 9.93349 36.3993 9.24549C35.9459 8.26949 35.4993 7.28949 35.0379 6.31616C36.6046 7.68816 38.3593 8.90682 39.9406 10.1175C42.7206 12.2455 45.5539 14.3068 48.4353 16.2975C54.2019 20.2815 60.1873 23.9388 66.3273 27.3135C67.0726 27.7228 67.8046 26.9802 67.3419 26.2482C63.1353 19.5815 57.0326 14.5468 50.5419 10.2068C46.9619 7.81215 43.2606 5.60949 39.6086 3.32949C36.5446 1.41749 33.6113 -0.677176 30.6179 -2.68518C29.6739 -4.54518 28.7073 -6.39451 27.7299 -8.23718C27.7166 -8.47718 27.7126 -8.71717 27.6966 -8.95717C27.6953 -8.97451 27.6873 -8.98384 27.6846 -8.99984C28.8113 -8.07718 29.9473 -7.16518 31.1086 -6.28651C34.4593 -3.75451 37.9166 -1.36518 41.4366 0.925491C48.6286 5.60816 56.0793 9.87616 63.5286 14.1295C64.2166 14.5228 65.0006 13.7935 64.5046 13.1055C59.5553 6.23082 52.7793 0.953489 45.6459 -3.49718C41.7166 -5.94918 37.6619 -8.19584 33.6393 -10.4905C30.1073 -12.5052 26.6286 -14.6198 23.1019 -16.6425C21.9553 -18.6345 20.7806 -20.6092 19.5833 -22.5705C19.6286 -22.7732 19.6726 -22.9745 19.7179 -23.1758C19.7219 -23.1918 19.7166 -23.2052 19.7179 -23.2198C22.1473 -21.3118 24.6899 -19.5199 27.2033 -17.7785C30.9526 -15.1812 34.7726 -12.6878 38.6593 -10.3012C46.2833 -5.61851 54.1606 -1.31318 62.2606 2.48949C63.0259 2.84816 63.5953 1.83082 63.1659 1.23882C57.9166 -5.98917 49.4619 -10.1238 41.8059 -14.2852C33.8619 -18.6012 25.7593 -22.6332 17.6193 -26.5692C17.4766 -26.6652 17.3379 -26.7665 17.1953 -26.8612C17.0673 -26.9465 16.9433 -26.9692 16.8273 -26.9652C16.2739 -27.8239 15.7326 -28.6892 15.1686 -29.5412C14.5366 -30.4958 13.8713 -31.4265 13.2219 -32.3692C15.2073 -31.0558 17.2459 -29.8185 19.2806 -28.6185C23.2073 -26.3038 27.2366 -24.1585 31.3313 -22.1558C39.6446 -18.0905 48.1993 -14.5972 56.7379 -11.0438C57.3086 -10.8078 58.0526 -11.4945 57.7059 -12.0759C54.3006 -17.7892 48.4633 -21.0865 42.5526 -23.7212C35.1139 -27.0372 27.5139 -30.0172 19.9886 -33.1292C16.5633 -34.5452 13.1486 -36.0518 9.66727 -37.3465C8.9246 -38.3492 8.1966 -39.3612 7.43527 -40.3492C7.39527 -40.3998 7.35527 -40.4505 7.31527 -40.5012C7.85793 -40.2852 8.40194 -40.0718 8.94194 -39.8558C10.9433 -39.0492 12.9473 -38.2492 14.9579 -37.4665C19.2099 -35.8078 23.4953 -34.2305 27.7873 -32.6798C36.2939 -29.6052 44.8593 -26.6865 53.4926 -23.9865C54.2819 -23.7398 54.9086 -24.7745 54.2019 -25.2959C38.9859 -36.5039 20.5539 -42.1932 2.37527 -46.6265C1.26727 -47.9545 0.104603 -49.2612 -1.30873 -50.2372C-2.2074 -50.8585 -3.63007 -49.8905 -3.05273 -48.8212C-2.2994 -47.4238 -1.29807 -46.2438 -0.286066 -45.0438C-8.2474 -30.5705 -11.4781 -13.3038 -10.9434 3.10149C-10.9074 4.23482 -9.3154 4.45216 -9.14607 3.26949C-8.5554 -0.85451 -7.10206 -4.73984 -5.6234 -8.61317C-4.1714 -12.4172 -2.8794 -16.2532 -1.8954 -20.2065C-0.0674006 -27.5518 0.901935 -35.0425 1.7766 -42.5478C2.52727 -41.6318 3.27394 -40.7145 4.00727 -39.7838C4.10994 -39.6545 4.20593 -39.5199 4.3086 -39.3892C3.26727 -35.6105 2.58194 -31.7145 1.91127 -27.8572C1.17927 -23.6465 0.596602 -19.3972 0.211268 -15.1398C-0.563398 -6.60385 -0.247398 1.72549 1.21127 10.1668C1.3446 10.9402 2.56327 11.1375 2.8086 10.3215C5.12593 2.60816 6.95394 -5.40784 8.0446 -13.3878C8.58727 -17.3598 8.9206 -21.3665 8.92994 -25.3772C8.93794 -28.1158 8.86993 -31.0798 8.43793 -33.8985C9.26327 -32.7638 10.0886 -31.6305 10.8953 -30.4812C11.0526 -30.2572 11.2019 -30.0265 11.3579 -29.8012C9.2206 -22.3638 8.11793 -14.5372 7.51927 -6.85984C6.85127 1.70816 7.0086 10.3042 7.8606 18.8522C7.93127 19.5562 9.00994 19.6388 9.22727 18.9855C10.5113 15.1348 11.3299 11.0695 12.1273 7.09349C12.9459 3.01082 13.5126 -1.12518 13.9579 -5.26385C14.4046 -9.40784 14.7286 -13.5652 14.8913 -17.7292C14.9753 -19.8865 15.0646 -22.0852 15.0619 -24.2785C15.9899 -22.8492 16.8779 -21.3932 17.7753 -19.9452C15.8179 -13.5079 14.7606 -6.69318 14.2113 -0.0438442C13.5579 7.88682 13.7273 15.8788 14.6126 23.7855C14.6913 24.4762 15.8206 24.6215 16.0086 23.9215C17.8126 17.2082 19.1753 10.3962 20.2286 3.52682C20.7553 0.0854908 21.1939 -3.36784 21.5406 -6.83184C21.7339 -8.75851 21.9526 -10.7132 22.1073 -12.6705C22.4699 -12.0359 22.8513 -11.4145 23.2073 -10.7772C23.5526 -10.1612 23.8819 -9.53717 24.2206 -8.91984C23.3926 -6.21584 22.7299 -3.45584 22.0793 -0.711843C21.2406 2.82682 20.4673 6.38549 19.8686 9.97216C18.6606 17.2148 18.3899 24.3508 18.7193 31.6655C18.7193 31.6668 18.7193 31.6682 18.7193 31.6682C18.7219 31.7322 18.7246 31.7962 18.7273 31.8588C18.7686 32.7548 20.0379 32.5562 20.1873 31.8055C20.9046 28.1935 21.9006 24.8255 23.1473 21.3615C24.2939 18.1682 25.3273 14.9482 26.0819 11.6375C27.1193 7.09082 27.6779 2.46415 27.8073 -2.18118C28.6606 -0.525178 29.4739 1.15216 30.2993 2.82282C29.3859 5.20016 28.7673 7.76549 28.0846 10.1615C27.1726 13.3602 26.3313 16.5815 25.6233 19.8335C24.1833 26.4415 23.5233 33.0642 23.5819 39.8255C23.5899 40.8388 25.0806 41.0295 25.1859 39.9748C25.7873 33.9375 28.6859 28.8255 30.8486 23.2682C32.6286 18.6948 33.1939 13.9815 33.3713 9.17216C33.7859 10.0535 34.1913 10.9415 34.6019 11.8268C34.3273 12.5988 34.1139 13.3975 33.8899 14.1748C33.4899 15.5508 33.1033 16.9348 32.7673 18.3282C32.0619 21.2442 31.5046 24.2028 31.0379 27.1655C30.5753 30.1015 30.2193 33.0535 29.9726 36.0148C29.7113 39.1415 29.7833 42.2628 29.6139 45.3895C29.5699 46.2002 30.6833 46.4682 31.0019 45.7108C33.2646 40.3268 34.5659 34.3748 35.6206 28.6482C36.1486 25.7842 36.5806 22.9015 36.9273 20.0108C37.0193 19.2362 37.1353 18.4322 37.2459 17.6162C37.7233 18.6788 38.1873 19.7468 38.6579 20.8122C37.9779 22.4002 37.4246 24.0602 36.8873 25.6722C36.0646 28.1442 35.3339 30.6442 34.7579 33.1855C33.6006 38.2962 33.1086 43.5242 33.7953 48.7375C33.9019 49.5562 35.0219 49.5748 35.3206 48.8868C38.6206 41.3042 40.4459 33.0095 40.3873 24.7308C40.7833 25.6442 41.1699 26.5602 41.5619 27.4735C40.8953 29.3722 40.6073 31.4802 40.2539 33.4215C39.8139 35.8375 39.4406 38.2628 39.1473 40.7002C38.8539 43.1362 38.6246 45.5802 38.4619 48.0295C38.2939 50.5548 38.3646 53.1015 38.1699 55.6215C38.1153 56.3455 39.1086 56.5548 39.3913 55.9042C40.2619 53.9002 40.7713 51.6535 41.2753 49.5295C41.8059 47.2882 42.2179 45.0135 42.5419 42.7335C43.0659 39.0388 43.4126 35.2695 43.2979 31.5282C43.6006 32.2468 43.9046 32.9642 44.2099 33.6828C43.9566 35.2362 43.7406 36.7975 43.4953 38.3535C43.0886 40.9308 42.6779 43.5055 42.3993 46.1015C42.1339 48.5828 41.9793 51.0788 42.0699 53.5762C42.1593 56.0828 42.6126 58.4562 43.1379 60.8988C43.2819 61.5655 44.3713 61.8055 44.5793 61.0388C45.7953 56.5775 46.5513 51.9682 47.0393 47.3735C47.2486 45.4028 47.3926 43.4268 47.4979 41.4482C47.7593 42.0695 48.0259 42.6895 48.2859 43.3122C48.4913 43.8002 48.6846 44.2908 48.8833 44.7815C49.2566 47.3295 49.1979 49.8228 49.3153 52.3935C49.4353 55.0068 49.9579 57.5802 50.7206 60.0775C52.2046 64.9415 54.5553 69.8028 57.2726 74.0975C57.6099 74.6308 58.4153 74.2682 58.4806 73.7322Z" fill="#477163"/>
<path d="M341.819 132.029C348.574 132.102 354.947 130.754 361.056 127.832C364.319 126.27 367.415 124.374 370.408 122.352C371.603 121.545 372.774 120.705 373.943 119.862C374.003 119.833 374.064 119.805 374.124 119.774C374.45 119.614 374.77 119.448 375.094 119.286C374.648 119.768 374.206 120.254 373.758 120.738C372.142 122.476 370.522 124.21 368.904 125.946C366.035 129.024 363.078 132.068 360.871 135.676C360.399 136.448 361.427 137.056 362.042 136.566C366.336 133.149 370.49 129.557 374.478 125.786C376.41 123.958 378.318 122.098 380.156 120.177C381.134 119.154 382.096 118.118 383.05 117.074C383.699 116.362 384.631 115.537 384.902 114.573C385.13 114.481 385.35 114.357 385.56 114.189C385.671 114.1 385.735 113.965 385.778 113.821C386.022 113.694 386.266 113.568 386.51 113.441C386.65 113.368 386.788 113.29 386.93 113.217C386.506 113.777 386.088 114.332 385.67 114.86C383.828 117.188 382.028 119.549 380.272 121.942C376.632 126.905 373.192 132.012 369.943 137.24C369.43 138.065 370.552 138.756 371.215 138.206C377.094 133.333 382.544 127.95 387.5 122.14C389.848 119.386 392.043 116.498 394.128 113.541C395.624 111.42 397.114 109.265 398.394 106.998C399.623 106.312 400.86 105.637 402.083 104.941C401.528 105.773 400.971 106.604 400.422 107.44C398.467 110.405 396.534 113.385 394.622 116.376C390.847 122.282 387.152 128.238 383.548 134.249C383.15 134.913 383.994 135.841 384.667 135.353C391.04 130.736 396.203 124.741 400.671 118.305C402.967 115 405.116 111.598 407.266 108.198C408.482 106.274 409.727 104.365 410.907 102.418C411.68 101.142 412.488 99.8235 413.136 98.4488C414.202 97.8035 415.271 97.1648 416.331 96.5115C414.954 98.4875 413.775 100.658 412.586 102.63C410.492 106.097 408.483 109.616 406.56 113.181C402.715 120.316 399.272 127.661 396.174 135.148C395.798 136.057 396.744 136.804 397.527 136.178C404.656 130.496 409.667 122.84 413.831 114.829C416.127 110.409 418.19 105.874 420.346 101.385C422.154 97.6208 424.188 93.9835 426.116 90.2875C428.135 88.9662 430.136 87.6182 432.131 86.2608C432.406 86.2168 432.68 86.1795 432.954 86.1315C432.974 86.1288 432.984 86.1168 433.003 86.1128C432.084 87.5248 431.18 88.9462 430.319 90.3928C427.834 94.5675 425.527 98.8435 423.34 103.181C418.874 112.044 414.915 121.15 410.971 130.256C410.608 131.094 411.546 131.904 412.274 131.246C419.546 124.684 424.751 116.222 428.96 107.458C431.279 102.629 433.346 97.6835 435.472 92.7675C437.339 88.4515 439.328 84.1835 441.204 79.8728C443.348 78.3022 445.47 76.7008 447.571 75.0755C447.81 75.1008 448.047 75.1262 448.284 75.1528C448.304 75.1542 448.318 75.1475 448.335 75.1475C446.451 78.1822 444.714 81.3328 443.032 84.4435C440.523 89.0822 438.143 93.7915 435.894 98.5608C431.48 107.921 427.532 117.522 424.191 127.317C423.876 128.242 425.118 128.768 425.743 128.198C433.384 121.246 437.063 111.001 440.872 101.672C444.824 91.9915 448.428 82.1662 451.918 72.3088C452.01 72.1328 452.108 71.9595 452.2 71.7835C452.282 71.6262 452.291 71.4808 452.272 71.3475C453.19 70.6035 454.115 69.8715 455.023 69.1142C456.039 68.2662 457.024 67.3835 458.026 66.5168C456.768 68.9662 455.606 71.4662 454.486 73.9582C452.323 78.7662 450.368 83.6702 448.588 88.6315C444.972 98.7035 442.044 108.981 439.046 119.248C438.846 119.934 439.73 120.702 440.354 120.23C446.488 115.589 449.538 108.461 451.814 101.332C454.679 92.3582 457.139 83.2435 459.76 74.1982C460.952 70.0808 462.25 65.9648 463.295 61.7982C464.354 60.8182 465.424 59.8515 466.463 58.8502C466.516 58.7982 466.57 58.7462 466.623 58.6942C466.444 59.3448 466.268 59.9968 466.087 60.6462C465.415 63.0488 464.751 65.4542 464.104 67.8648C462.74 72.9635 461.471 78.0888 460.234 83.2195C457.782 93.3888 455.515 103.606 453.51 113.873C453.326 114.812 454.596 115.4 455.104 114.522C466.054 95.6062 470.251 73.6955 473.035 52.2368C474.422 50.7942 475.775 49.2915 476.718 47.5435C477.318 46.4302 476.024 44.9195 474.868 45.7182C473.358 46.7622 472.128 48.0622 470.878 49.3782C453.228 42.0662 432.971 40.5488 414.18 43.2488C412.883 43.4355 412.835 45.2915 414.216 45.3355C419.032 45.4915 423.683 46.6675 428.323 47.8742C432.88 49.0608 437.454 50.0582 442.124 50.6862C450.798 51.8528 459.534 52.0155 468.271 52.0675C467.314 53.0462 466.354 54.0222 465.378 54.9822C465.242 55.1168 465.099 55.2448 464.962 55.3795C460.486 54.6622 455.922 54.3702 451.402 54.0902C446.468 53.7835 441.51 53.6542 436.568 53.7515C426.656 53.9475 417.122 55.3688 407.606 58.1182C406.732 58.3702 406.662 59.7955 407.63 59.9742C416.791 61.6568 426.238 62.7395 435.55 62.9782C440.184 63.0968 444.831 62.9702 449.443 62.4728C452.592 62.1328 455.99 61.6782 459.176 60.8222C457.976 61.9155 456.778 63.0088 455.56 64.0822C455.322 64.2915 455.075 64.4928 454.836 64.7008C446.016 63.1888 436.879 62.9168 427.979 63.2048C418.046 63.5262 408.184 64.7995 398.467 66.8662C397.667 67.0355 397.708 68.2862 398.487 68.4542C403.076 69.4395 407.854 69.8635 412.526 70.2755C417.323 70.6982 422.148 70.8235 426.963 70.8088C431.782 70.7955 436.603 70.6382 441.41 70.2968C443.9 70.1195 446.438 69.9422 448.959 69.6608C447.435 70.9088 445.875 72.1142 444.323 73.3302C436.675 71.8982 428.707 71.5488 420.995 71.7635C411.795 72.0208 402.63 73.2315 393.655 75.2555C392.871 75.4315 392.848 76.7488 393.675 76.8755C401.622 78.0968 409.624 78.7982 417.656 79.1342C421.678 79.3035 425.703 79.3675 429.728 79.3262C431.968 79.3035 434.243 79.3062 436.512 79.2355C435.83 79.7315 435.163 80.2488 434.476 80.7395C433.812 81.2142 433.136 81.6728 432.47 82.1408C429.256 81.5328 425.999 81.1208 422.762 80.7222C418.588 80.2075 414.4 79.7715 410.2 79.5395C401.723 79.0728 393.486 79.6675 385.118 80.9768H385.115V80.9782C385.042 80.9888 384.97 80.9982 384.896 81.0102C383.872 81.1715 384.263 82.6048 385.144 82.6808C389.387 83.0475 393.384 83.7648 397.526 84.7555C401.343 85.6688 405.175 86.4475 409.076 86.8942C414.434 87.5075 419.823 87.5622 425.18 87.1195C423.384 88.3115 421.56 89.4595 419.744 90.6208C416.896 89.8728 413.868 89.4875 411.028 89.0075C407.234 88.3662 403.424 87.8088 399.598 87.4088C391.818 86.5928 384.122 86.6768 376.358 87.6035C375.194 87.7422 375.164 89.4782 376.39 89.4648C383.406 89.3902 389.65 92.0715 396.312 93.8515C401.796 95.3168 407.286 95.3662 412.838 94.9582C411.876 95.5488 410.907 96.1262 409.943 96.7115C409.02 96.4928 408.074 96.3502 407.152 96.1902C405.519 95.9075 403.88 95.6382 402.236 95.4275C398.794 94.9888 395.323 94.7248 391.858 94.5648C388.424 94.4062 384.986 94.3728 381.55 94.4648C377.922 94.5622 374.343 95.0408 370.728 95.2435C369.791 95.2968 369.624 96.6115 370.535 96.8808C377.012 98.7968 384.019 99.5355 390.736 100.021C394.094 100.264 397.463 100.394 400.83 100.425C401.732 100.433 402.671 100.462 403.624 100.485C402.463 101.169 401.294 101.838 400.13 102.516C398.218 101.936 396.238 101.51 394.318 101.098C391.371 100.468 388.406 99.9448 385.411 99.6048C379.388 98.9248 373.316 99.0248 367.411 100.476C366.483 100.704 366.606 101.993 367.434 102.249C376.568 105.078 386.335 106.122 395.844 105.001C394.846 105.573 393.842 106.133 392.84 106.701C390.574 106.176 388.114 106.112 385.838 105.953C383.006 105.754 380.17 105.634 377.331 105.606C374.492 105.578 371.654 105.626 368.819 105.75C365.894 105.878 362.975 106.284 360.054 106.381C359.216 106.409 359.1 107.578 359.884 107.821C362.298 108.565 364.947 108.866 367.452 109.174C370.096 109.501 372.763 109.685 375.426 109.766C379.739 109.9 384.115 109.818 388.402 109.212C387.614 109.65 386.827 110.092 386.04 110.533C384.222 110.44 382.4 110.39 380.582 110.306C377.566 110.166 374.555 110.021 371.536 110.032C368.648 110.041 365.76 110.182 362.902 110.602C360.032 111.024 357.362 111.848 354.62 112.762C353.872 113.012 353.735 114.294 354.642 114.437C359.924 115.268 365.32 115.549 370.663 115.526C372.955 115.517 375.244 115.432 377.532 115.3C376.851 115.68 376.172 116.065 375.49 116.444C374.955 116.741 374.415 117.026 373.878 117.317C370.996 118.069 368.122 118.32 365.182 118.781C362.192 119.25 359.303 120.18 356.527 121.373C351.126 123.697 345.836 127.017 341.246 130.686C340.675 131.142 341.195 132.022 341.819 132.029Z" fill="#477163"/>
<path d="M323.02 804.117C324.705 811.357 327.813 817.819 332.534 823.588C335.056 826.668 337.892 829.481 340.836 832.153C342.01 833.219 343.216 834.251 344.421 835.281C344.469 835.339 344.516 835.397 344.562 835.453C344.818 835.759 345.081 836.057 345.338 836.361C344.706 836.011 344.07 835.665 343.437 835.312C341.157 834.039 338.88 832.761 336.601 831.485C332.56 829.221 328.534 826.855 324.1 825.439C323.152 825.135 322.77 826.393 323.453 826.923C328.229 830.621 333.154 834.123 338.228 837.401C340.688 838.989 343.173 840.543 345.709 842.007C347.057 842.784 348.416 843.544 349.782 844.289C350.712 844.797 351.838 845.579 352.94 845.616C353.098 845.836 353.288 846.039 353.524 846.219C353.648 846.315 353.808 846.347 353.973 846.355C354.172 846.583 354.37 846.812 354.57 847.039C354.685 847.169 354.805 847.297 354.92 847.429C354.21 847.121 353.508 846.82 352.834 846.512C349.865 845.151 346.869 843.844 343.852 842.592C337.594 839.997 331.236 837.655 324.798 835.547C323.782 835.213 323.336 836.593 324.096 837.159C330.844 842.171 338.022 846.591 345.53 850.371C349.088 852.161 352.748 853.753 356.454 855.209C359.113 856.255 361.806 857.285 364.564 858.061C365.618 859.196 366.662 860.341 367.728 861.468C366.692 861.092 365.658 860.713 364.621 860.343C360.941 859.029 357.25 857.741 353.552 856.479C346.252 853.985 338.918 851.592 331.55 849.311C330.737 849.059 329.965 850.203 330.662 850.795C337.265 856.401 345.021 860.355 353.07 863.451C357.204 865.04 361.402 866.449 365.6 867.859C367.974 868.656 370.341 869.489 372.73 870.241C374.297 870.735 375.917 871.255 377.556 871.588C378.524 872.559 379.486 873.535 380.462 874.497C377.99 873.541 375.361 872.848 372.942 872.091C368.688 870.76 364.401 869.531 360.088 868.408C351.456 866.161 342.704 864.4 333.889 863.043C332.82 862.879 332.268 864.085 333.141 864.76C341.08 870.896 350.573 874.253 360.226 876.611C365.552 877.911 370.938 878.931 376.301 880.063C380.797 881.012 385.218 882.237 389.673 883.332C391.614 885.145 393.577 886.933 395.55 888.711C395.669 888.992 395.78 889.276 395.902 889.556C395.912 889.577 395.926 889.585 395.936 889.604C394.186 888.991 392.43 888.396 390.658 887.852C385.548 886.287 380.372 884.937 375.164 883.733C364.521 881.275 353.75 879.421 342.986 877.585C341.994 877.416 341.374 878.629 342.268 879.236C351.184 885.296 361.589 888.649 372.06 890.859C377.829 892.077 383.656 892.993 389.466 893.983C394.569 894.851 399.65 895.863 404.752 896.741C406.99 898.623 409.256 900.472 411.542 902.295C411.577 902.556 411.613 902.816 411.648 903.077C411.649 903.099 411.661 903.111 411.665 903.131C407.929 901.908 404.106 900.875 400.341 899.889C394.726 898.42 389.07 897.105 383.382 895.947C372.222 893.673 360.926 891.963 349.581 890.951C348.51 890.855 348.273 892.319 349.046 892.84C358.474 899.192 370.389 900.448 381.358 902.083C392.74 903.779 404.186 905.064 415.637 906.219C415.849 906.271 416.06 906.331 416.272 906.383C416.461 906.428 416.62 906.401 416.757 906.347C417.792 907.132 418.817 907.931 419.862 908.703C421.034 909.568 422.237 910.391 423.424 911.235C420.477 910.531 417.501 909.941 414.544 909.395C408.838 908.339 403.086 907.531 397.317 906.924C385.602 905.691 373.85 905.245 362.09 904.723C361.305 904.688 360.713 905.833 361.381 906.377C367.946 911.724 376.365 913.121 384.582 913.692C394.922 914.409 405.31 914.659 415.666 915.096C420.378 915.295 425.12 915.607 429.846 915.635C431.17 916.511 432.484 917.404 433.826 918.252C433.894 918.296 433.965 918.337 434.034 918.381C433.292 918.36 432.549 918.343 431.808 918.319C429.064 918.228 426.318 918.147 423.572 918.087C417.765 917.96 411.953 917.943 406.145 917.96C394.632 917.996 383.117 918.243 371.616 918.781C370.565 918.831 370.268 920.341 371.34 920.656C394.424 927.419 418.945 926.181 442.614 923.551C444.518 924.655 446.478 925.709 448.594 926.26C449.94 926.611 451.218 924.833 450.062 923.805C448.55 922.464 446.84 921.489 445.106 920.496C448.31 899.716 444.64 877.664 436.844 858.28C436.305 856.941 434.308 857.376 434.621 858.864C435.713 864.053 435.672 869.332 435.593 874.608C435.516 879.791 435.645 884.941 436.194 890.097C437.213 899.676 439.322 909.057 441.55 918.412C440.253 917.644 438.96 916.873 437.677 916.081C437.498 915.969 437.324 915.851 437.145 915.74C436.741 910.767 435.861 905.811 434.98 900.907C434.018 895.552 432.861 890.216 431.465 884.959C428.666 874.413 424.654 864.592 419.229 855.136C418.73 854.268 417.188 854.565 417.25 855.647C417.845 865.881 419.156 876.263 421.334 886.281C422.418 891.267 423.768 896.203 425.505 901.001C426.692 904.28 428.066 907.793 429.813 910.976C428.33 909.98 426.849 908.984 425.384 907.963C425.097 907.763 424.818 907.552 424.533 907.351C423.844 897.527 421.748 887.687 419.114 878.247C416.174 867.711 412.237 857.5 407.488 847.651C407.097 846.841 405.772 847.212 405.796 848.088C405.941 853.252 406.736 858.471 407.517 863.572C408.318 868.812 409.446 874.004 410.718 879.148C411.993 884.296 413.42 889.408 415.042 894.457C415.882 897.073 416.736 899.741 417.694 902.364C415.961 901.06 414.265 899.707 412.561 898.365C412.092 889.816 410.384 881.205 408.138 873.016C405.461 863.248 401.772 853.767 397.262 844.699C396.868 843.908 395.454 844.227 395.534 845.144C396.306 853.959 397.648 862.699 399.386 871.372C400.257 875.716 401.241 880.037 402.336 884.329C402.945 886.719 403.537 889.152 404.206 891.557C403.497 890.959 402.769 890.38 402.065 889.775C401.384 889.188 400.718 888.587 400.042 887.995C399.853 884.401 399.442 880.812 399.024 877.247C398.482 872.649 397.854 868.059 397.004 863.508C395.289 854.323 392.5 845.672 388.913 837.068C388.913 837.067 388.913 837.065 388.913 837.065C388.882 836.991 388.852 836.915 388.821 836.84C388.38 835.788 386.95 836.579 387.098 837.541C387.816 842.172 388.094 846.635 388.117 851.321C388.137 855.64 388.306 859.94 388.849 864.228C389.593 870.116 390.944 875.892 392.816 881.504C391.072 879.896 389.368 878.245 387.652 876.608C387.708 873.367 387.328 870.028 387.1 866.867C386.793 862.643 386.393 858.425 385.821 854.228C384.66 845.699 382.56 837.491 379.541 829.433C379.088 828.225 377.224 828.648 377.558 829.955C379.472 837.436 378.237 844.812 378.076 852.4C377.942 858.645 379.324 864.528 381.21 870.356C380.328 869.483 379.457 868.597 378.58 867.719C378.572 866.676 378.477 865.627 378.406 864.6C378.284 862.78 378.142 860.957 377.937 859.145C377.508 855.351 376.882 851.569 376.149 847.823C375.421 844.112 374.558 840.427 373.562 836.777C372.51 832.924 371.062 829.224 369.901 825.412C369.6 824.423 368.15 824.589 368.101 825.633C367.745 833.057 368.785 840.741 370.021 848.051C370.64 851.704 371.381 855.34 372.229 858.947C372.456 859.913 372.669 860.925 372.893 861.951C371.858 860.888 370.837 859.813 369.809 858.745C369.929 856.549 369.866 854.321 369.805 852.161C369.71 848.845 369.496 845.539 369.074 842.248C368.229 835.632 366.536 829.167 363.441 823.233C362.954 822.3 361.609 822.767 361.55 823.72C360.914 834.225 362.35 844.94 366.032 854.812C365.16 853.895 364.298 852.967 363.43 852.045C363.4 849.485 362.825 846.839 362.401 844.364C361.872 841.284 361.26 838.221 360.548 835.179C359.836 832.137 359.044 829.115 358.169 826.116C357.269 823.023 356.073 820.008 355.205 816.911C354.957 816.021 353.676 816.204 353.622 817.105C353.456 819.88 353.826 822.791 354.152 825.549C354.493 828.461 354.994 831.36 355.602 834.228C356.586 838.875 357.817 843.532 359.586 847.956C358.912 847.229 358.234 846.503 357.557 845.777C357.181 843.809 356.758 841.848 356.373 839.881C355.734 836.621 355.102 833.364 354.302 830.139C353.537 827.056 352.633 824.004 351.436 821.057C350.236 818.1 348.657 815.46 346.964 812.769C346.501 812.035 345.094 812.221 345.178 813.229C345.672 819.095 346.78 824.936 348.2 830.643C348.809 833.089 349.498 835.516 350.237 837.927C349.653 837.297 349.064 836.673 348.48 836.043C348.024 835.548 347.577 835.045 347.125 834.547C345.568 831.663 344.549 828.656 343.288 825.632C342.005 822.56 340.257 819.712 338.256 817.057C334.36 811.891 329.428 807.103 324.305 803.153C323.669 802.663 322.864 803.448 323.02 804.117Z" fill="#56A262"/>
<path d="M167.783 429.369C167.747 428.408 167.455 427.531 166.994 426.832C166.39 425.907 165.491 425.288 164.423 425.3C163.459 425.289 162.492 425.307 161.527 425.331C161.139 425.335 160.752 425.339 160.364 425.343C159.975 425.347 159.587 425.377 159.199 425.399C157.832 425.403 156.466 425.417 155.1 425.417C154.916 425.417 154.735 425.448 154.555 425.488C154.219 425.479 153.883 425.468 153.542 425.471C151.856 425.457 150.244 427.272 150.322 429.369C150.4 431.492 151.736 433.256 153.542 433.269C153.882 433.271 154.218 433.263 154.552 433.253C154.731 433.291 154.911 433.321 155.1 433.321C156.466 433.321 157.832 433.336 159.199 433.34C159.587 433.361 159.975 433.392 160.364 433.396C160.752 433.4 161.142 433.404 161.53 433.408C162.495 433.432 163.459 433.449 164.423 433.439C165.444 433.449 166.43 432.8 167.07 431.836C167.531 431.147 167.818 430.296 167.783 429.369Z" fill="#FFB58E"/>
<path d="M59.3974 357.183C59.3561 356.256 59.0147 355.412 58.4761 354.737C57.7721 353.847 56.7228 353.252 55.4774 353.263C54.3508 353.252 53.2241 353.268 52.0974 353.292C51.6454 353.296 51.1934 353.3 50.7414 353.304C50.2868 353.308 49.8334 353.337 49.3814 353.357C47.7868 353.361 46.1921 353.375 44.5988 353.375C44.3854 353.375 44.1734 353.405 43.9628 353.443C43.5708 353.435 43.1788 353.424 42.7801 353.425C40.8148 353.415 38.9334 355.161 39.0241 357.183C39.1148 359.228 40.6734 360.927 42.7801 360.939C43.1774 360.941 43.5681 360.933 43.9601 360.924C44.1681 360.96 44.3788 360.989 44.5988 360.989C46.1921 360.989 47.7868 361.004 49.3814 361.008C49.8348 361.028 50.2868 361.057 50.7414 361.061C51.1948 361.065 51.6481 361.069 52.1014 361.073C53.2268 361.096 54.3521 361.113 55.4774 361.103C56.6694 361.113 57.8187 360.488 58.5641 359.559C59.1027 358.895 59.4374 358.075 59.3974 357.183Z" fill="#FFB58E"/>
<path d="M42.3765 342.926C42.3351 341.999 41.9938 341.155 41.4551 340.48C40.7511 339.59 39.7018 338.995 38.4565 339.006C37.3298 338.995 36.2031 339.011 35.0765 339.035C34.6245 339.039 34.1725 339.043 33.7205 339.047C33.2658 339.051 32.8125 339.08 32.3605 339.1C30.7658 339.106 29.1711 339.118 27.5778 339.118C27.3645 339.118 27.1525 339.148 26.9418 339.187C26.5498 339.178 26.1578 339.167 25.7591 339.17C23.7938 339.158 21.9125 340.904 22.0031 342.926C22.0938 344.971 23.6525 346.67 25.7591 346.682C26.1565 346.684 26.5471 346.676 26.9391 346.668C27.1471 346.703 27.3578 346.732 27.5778 346.732C29.1711 346.732 30.7658 346.747 32.3605 346.751C32.8138 346.772 33.2658 346.8 33.7205 346.804C34.1738 346.808 34.6271 346.812 35.0805 346.816C36.2058 346.84 37.3311 346.856 38.4565 346.846C39.6471 346.856 40.7978 346.231 41.5431 345.302C42.0818 344.638 42.4165 343.818 42.3765 342.926Z" fill="#FFB58E"/>
<path d="M263.618 859.072C263.654 860.033 263.946 860.911 264.407 861.609C265.011 862.535 265.91 863.153 266.978 863.141C267.942 863.152 268.908 863.135 269.874 863.111C270.262 863.107 270.648 863.103 271.036 863.099C271.426 863.095 271.814 863.064 272.202 863.043C273.568 863.039 274.935 863.024 276.3 863.024C276.484 863.024 276.666 862.993 276.846 862.953C277.182 862.963 277.518 862.973 277.859 862.971C279.544 862.984 281.156 861.169 281.079 859.072C281 856.949 279.664 855.185 277.859 855.172C277.519 855.171 277.183 855.179 276.848 855.188C276.67 855.151 276.49 855.12 276.3 855.12C274.935 855.12 273.568 855.105 272.202 855.101C271.814 855.08 271.426 855.049 271.036 855.045C270.648 855.041 270.259 855.037 269.871 855.033C268.906 855.009 267.942 854.992 266.978 855.003C265.956 854.992 264.971 855.641 264.331 856.605C263.87 857.295 263.583 858.145 263.618 859.072Z" fill="#FFB58E"/>
<path d="M115.003 825.923C115.045 826.85 115.386 827.694 115.925 828.369C116.629 829.259 117.678 829.854 118.923 829.843C120.05 829.854 121.177 829.838 122.303 829.814C122.755 829.81 123.207 829.806 123.659 829.802C124.114 829.798 124.567 829.769 125.019 829.749C126.614 829.745 128.209 829.731 129.802 829.731C130.015 829.731 130.227 829.701 130.438 829.663C130.83 829.671 131.222 829.682 131.621 829.681C133.586 829.691 135.467 827.945 135.377 825.923C135.286 823.878 133.727 822.179 131.621 822.167C131.223 822.165 130.833 822.173 130.441 822.182C130.233 822.146 130.022 822.117 129.802 822.117C128.209 822.117 126.614 822.102 125.019 822.098C124.566 822.078 124.114 822.049 123.659 822.045C123.206 822.041 122.753 822.037 122.299 822.033C121.174 822.01 120.049 821.993 118.923 822.003C117.731 821.993 116.582 822.618 115.837 823.547C115.298 824.211 114.963 825.031 115.003 825.923Z" fill="#FFB58E"/>
<path d="M132.024 840.18C132.065 841.107 132.407 841.951 132.945 842.626C133.649 843.516 134.699 844.111 135.944 844.1C137.071 844.111 138.197 844.095 139.324 844.071C139.776 844.067 140.228 844.063 140.68 844.059C141.135 844.055 141.588 844.026 142.04 844.006C143.635 844 145.229 843.988 146.823 843.988C147.036 843.988 147.248 843.958 147.459 843.919C147.851 843.928 148.243 843.939 148.641 843.936C150.607 843.948 152.488 842.202 152.397 840.18C152.307 838.135 150.748 836.436 148.641 836.424C148.244 836.422 147.853 836.43 147.461 836.438C147.253 836.403 147.043 836.374 146.823 836.374C145.229 836.374 143.635 836.359 142.04 836.355C141.587 836.334 141.135 836.306 140.68 836.302C140.227 836.298 139.773 836.294 139.32 836.29C138.195 836.266 137.069 836.25 135.944 836.26C134.753 836.25 133.603 836.875 132.857 837.804C132.319 838.468 131.984 839.288 132.024 840.18Z" fill="#FFB58E"/>
<path d="M339.003 387.923C339.044 388.85 339.386 389.694 339.924 390.369C340.628 391.259 341.678 391.854 342.923 391.843C344.05 391.854 345.176 391.838 346.303 391.814C346.755 391.81 347.207 391.806 347.659 391.802C348.114 391.798 348.567 391.769 349.019 391.749C350.614 391.745 352.208 391.731 353.802 391.731C354.015 391.731 354.227 391.701 354.438 391.663C354.83 391.671 355.222 391.682 355.62 391.681C357.586 391.691 359.467 389.945 359.376 387.923C359.286 385.878 357.727 384.179 355.62 384.167C355.223 384.165 354.832 384.173 354.44 384.182C354.232 384.146 354.022 384.117 353.802 384.117C352.208 384.117 350.614 384.102 349.019 384.098C348.566 384.078 348.114 384.049 347.659 384.045C347.206 384.041 346.752 384.037 346.299 384.033C345.174 384.01 344.048 383.993 342.923 384.003C341.731 383.993 340.582 384.618 339.836 385.547C339.298 386.211 338.963 387.031 339.003 387.923Z" fill="#FFB58E"/>
<path d="M356.024 402.18C356.065 403.107 356.407 403.951 356.945 404.626C357.649 405.516 358.699 406.111 359.944 406.1C361.071 406.111 362.197 406.095 363.324 406.071C363.776 406.067 364.228 406.063 364.68 406.059C365.135 406.055 365.588 406.026 366.04 406.006C367.635 406 369.229 405.988 370.823 405.988C371.036 405.988 371.248 405.958 371.459 405.919C371.851 405.928 372.243 405.939 372.641 405.936C374.607 405.948 376.488 404.202 376.397 402.18C376.307 400.135 374.748 398.436 372.641 398.424C372.244 398.422 371.853 398.43 371.461 398.438C371.253 398.403 371.043 398.374 370.823 398.374C369.229 398.374 367.635 398.359 366.04 398.355C365.587 398.334 365.135 398.306 364.68 398.302C364.227 398.298 363.773 398.294 363.32 398.29C362.195 398.266 361.069 398.25 359.944 398.26C358.753 398.25 357.603 398.875 356.857 399.804C356.319 400.468 355.984 401.288 356.024 402.18Z" fill="#FFB58E"/>
<path d="M268.795 88.5776C269.37 89.1002 270.091 89.8709 270.943 89.7176C271.963 89.5336 272.139 88.4349 272.341 87.5976C272.71 86.0536 272.971 84.4949 272.982 82.9122C274.002 83.2736 275.05 83.5616 276.077 83.8082C276.969 84.0216 278.234 84.5189 279.138 84.1122C280.387 83.5482 279.807 82.2189 279.389 81.3122C278.517 79.4216 277.519 77.5642 276.245 75.9122C276.199 75.8536 276.15 75.7976 276.103 75.7402C276.755 75.6522 277.406 75.5522 278.051 75.4269C278.818 75.2776 279.611 75.1162 280.289 74.7096C280.935 74.3216 281.695 73.5962 281.554 72.7602C281.418 71.9509 280.381 71.3762 279.783 70.9216C278.887 70.2402 277.935 69.6162 276.925 69.1122C277.726 68.5202 278.515 67.7962 279.006 66.9202C279.53 65.9842 280.009 64.4082 278.886 63.6976C278.37 63.3709 277.75 63.4736 277.181 63.5522C276.555 63.6389 275.93 63.7362 275.309 63.8442C274.791 63.9349 274.278 64.0389 273.766 64.1562C274.565 62.6909 275.113 61.1149 275.349 59.4576C275.466 58.6322 275.489 57.8029 275.443 56.9696C275.419 56.5296 275.366 56.0882 275.071 55.7362C274.701 55.2922 274.083 55.1936 273.554 55.3522C273.126 55.4816 272.771 55.7576 272.402 56.0016C271.979 56.2802 271.558 56.5616 271.142 56.8509C270.362 57.3949 269.607 57.9816 268.909 58.6282C268.714 58.8069 268.526 58.9922 268.342 59.1816C268.327 58.9882 268.321 58.7949 268.302 58.6029C268.106 56.5562 267.661 54.5562 267.026 52.6016C266.831 52.0016 266.001 51.9442 265.577 52.2789C263.794 53.6842 262.493 55.6176 261.719 57.7442C261.555 58.1976 261.418 58.6602 261.301 59.1282C260.971 58.6909 260.642 58.2549 260.318 57.8149C260.095 57.5122 259.874 57.2082 259.651 56.9056C259.423 56.5949 259.203 56.2122 258.825 56.0656C257.929 55.7162 257.389 56.5536 257.302 57.3216C257.214 58.1082 257.183 58.9042 257.19 59.6949C257.194 60.0376 257.213 60.3789 257.233 60.7202C256.194 59.8522 255.027 59.0562 253.754 58.7496C253.326 58.6469 252.767 58.8376 252.751 59.3682C252.695 61.2176 252.973 63.0056 253.593 64.7456C252.702 64.3349 251.791 63.9509 250.879 63.5989C249.767 63.1696 248.639 62.9096 247.443 63.0442C246.879 63.1069 246.615 63.7536 246.819 64.2322C247.481 65.7869 248.505 67.1722 249.769 68.2909C250.135 68.6162 250.529 68.9029 250.937 69.1709C250.53 69.2749 250.127 69.3962 249.733 69.5216C248.11 70.0416 246.481 70.8989 245.271 72.1122C244.974 72.4109 244.891 72.8509 245.174 73.1989C245.617 73.7442 246.263 73.9416 246.941 74.0016C247.706 74.0696 248.483 74.0669 249.25 74.0562C249.858 74.0482 250.466 74.0229 251.073 73.9816C250.699 74.2722 250.333 74.5736 249.993 74.8962C248.863 75.9709 247.937 77.2336 247.722 78.8149C247.67 79.2029 248.001 79.6349 248.402 79.6496C249.949 79.7069 251.518 79.6056 253.017 79.1909C253.046 79.1829 253.077 79.1722 253.106 79.1642C252.899 79.5016 252.699 79.8442 252.513 80.1896C251.611 81.8496 251.017 83.6096 250.623 85.4549C250.506 86.0069 251.111 86.4509 251.603 86.3722C254.041 85.9842 256.367 85.0456 258.382 83.6469C258.382 83.7216 258.377 83.7936 258.378 83.8682C258.386 84.5909 258.419 85.3136 258.485 86.0336C258.543 86.6709 258.513 87.5922 258.935 88.1136C259.455 88.7562 260.394 88.5682 261.027 88.2216C261.659 87.8749 262.137 87.3416 262.617 86.8149C263.495 85.8522 264.271 84.7802 264.981 83.6882C265.022 83.6229 265.059 83.5562 265.101 83.4909C265.274 83.8869 265.465 84.2749 265.674 84.6496C266.497 86.1242 267.549 87.4402 268.795 88.5776Z" fill="#FFB58E"/>
<path d="M282.851 66.8465C281.955 66.1651 281.003 65.5411 279.993 65.0371C280.794 64.4451 281.583 63.7211 282.074 62.8451C282.598 61.9091 283.077 60.3331 281.954 59.6225C281.438 59.2958 280.818 59.3985 280.249 59.4771C279.623 59.5638 278.998 59.6611 278.377 59.7691C277.859 59.8598 277.346 59.9638 276.834 60.0811C277.633 58.6145 278.181 57.0398 278.417 55.3825C278.534 54.5571 278.557 53.7278 278.511 52.8945C278.487 52.4545 278.434 52.0131 278.139 51.6598C277.767 51.2158 277.151 51.1185 276.622 51.2771C276.194 51.4065 275.839 51.6825 275.47 51.9265C275.047 52.2051 274.626 52.4865 274.21 52.7758C273.43 53.3185 272.675 53.9065 271.977 54.5518C271.782 54.7318 271.594 54.9171 271.41 55.1065C271.395 54.9131 271.387 54.7198 271.37 54.5278C271.174 52.4811 270.729 50.4811 270.094 48.5265C269.899 47.9265 269.069 47.8691 268.645 48.2038C266.862 49.6091 265.561 51.5425 264.787 53.6691C264.622 54.1225 264.486 54.5851 264.369 55.0531C264.039 54.6158 263.71 54.1798 263.386 53.7398C263.163 53.4358 262.941 53.1331 262.719 52.8305C262.491 52.5198 262.271 52.1371 261.893 51.9891C260.997 51.6411 260.457 52.4785 260.37 53.2465C260.282 54.0331 260.251 54.8278 260.258 55.6185C260.262 55.9625 260.281 56.3038 260.301 56.6451C259.262 55.7771 258.095 54.9811 256.822 54.6745C256.394 54.5718 255.835 54.7625 255.819 55.2931C255.763 57.1425 256.041 58.9305 256.661 60.6705C255.77 60.2598 254.859 59.8745 253.947 59.5225C252.835 59.0931 251.707 58.8345 250.511 58.9691C249.947 59.0318 249.683 59.6785 249.887 60.1571C250.549 61.7118 251.573 63.0971 252.835 64.2158C253.203 64.5411 253.597 64.8278 254.005 65.0958C253.598 65.1998 253.195 65.3198 252.801 65.4465C251.178 65.9665 249.549 66.8238 248.339 68.0371C248.042 68.3358 247.959 68.7758 248.242 69.1238C248.685 69.6691 249.331 69.8665 250.009 69.9265C250.773 69.9945 251.551 69.9918 252.318 69.9811C252.925 69.9718 253.534 69.9478 254.141 69.9065C253.767 70.1971 253.401 70.4985 253.061 70.8211C251.931 71.8958 251.005 73.1571 250.79 74.7385C250.738 75.1278 251.069 75.5598 251.47 75.5745C253.017 75.6318 254.586 75.5305 256.083 75.1158C256.114 75.1078 256.145 75.0971 256.174 75.0878C255.967 75.4265 255.767 75.7678 255.581 76.1145C254.679 77.7745 254.085 79.5345 253.691 81.3798C253.574 81.9305 254.179 82.3758 254.671 82.2971C257.109 81.9091 259.435 80.9705 261.45 79.5718C261.45 79.6465 261.445 79.7185 261.446 79.7931C261.454 80.5158 261.487 81.2385 261.553 81.9585C261.61 82.5958 261.581 83.5171 262.003 84.0371C262.523 84.6811 263.462 84.4931 264.095 84.1465C264.727 83.7985 265.205 83.2651 265.685 82.7398C266.563 81.7771 267.339 80.7038 268.049 79.6118C268.09 79.5478 268.127 79.4811 268.169 79.4158C268.342 79.8105 268.533 80.1985 268.742 80.5745C269.565 82.0491 270.617 83.3651 271.863 84.5025C272.437 85.0251 273.159 85.7958 274.011 85.6411C275.031 85.4585 275.207 84.3598 275.409 83.5225C275.778 81.9785 276.039 80.4198 276.05 78.8371C277.07 79.1985 278.118 79.4865 279.145 79.7331C280.037 79.9465 281.302 80.4438 282.206 80.0358C283.455 79.4731 282.875 78.1438 282.457 77.2371C281.585 75.3465 280.587 73.4891 279.313 71.8371C279.267 71.7785 279.218 71.7225 279.171 71.6651C279.823 71.5771 280.474 71.4771 281.119 71.3518C281.886 71.2025 282.678 71.0411 283.357 70.6345C284.003 70.2465 284.763 69.5211 284.622 68.6851C284.486 67.8758 283.449 67.3011 282.851 66.8465Z" fill="#56A262"/>
<path d="M273.54 67.3421C273.144 67.0408 272.724 66.7661 272.278 66.5435C272.632 66.2821 272.98 65.9621 273.197 65.5768C273.428 65.1635 273.638 64.4675 273.144 64.1541C272.916 64.0101 272.642 64.0555 272.39 64.0901C272.114 64.1275 271.84 64.1701 271.565 64.2181C271.337 64.2581 271.109 64.3048 270.884 64.3568C271.237 63.7088 271.478 63.0141 271.582 62.2821C271.634 61.9181 271.645 61.5515 271.624 61.1848C271.613 60.9901 271.59 60.7955 271.46 60.6395C271.296 60.4435 271.024 60.3995 270.79 60.4701C270.601 60.5275 270.445 60.6488 270.282 60.7568C270.096 60.8795 269.909 61.0035 269.726 61.1315C269.381 61.3715 269.049 61.6301 268.74 61.9155C268.654 61.9955 268.57 62.0768 268.489 62.1595C268.484 62.0755 268.48 61.9901 268.472 61.9048C268.385 61.0021 268.189 60.1181 267.909 59.2568C267.824 58.9915 267.456 58.9661 267.269 59.1141C266.482 59.7341 265.908 60.5875 265.566 61.5261C265.494 61.7261 265.434 61.9301 265.382 62.1368C265.237 61.9435 265.09 61.7515 264.948 61.5568C264.85 61.4235 264.752 61.2901 264.654 61.1555C264.553 61.0181 264.456 60.8501 264.289 60.7848C263.894 60.6301 263.656 61.0008 263.617 61.3395C263.578 61.6861 263.565 62.0381 263.568 62.3861C263.569 62.5381 263.577 62.6888 263.586 62.8395C263.128 62.4568 262.613 62.1048 262.05 61.9701C261.862 61.9248 261.616 62.0088 261.608 62.2435C261.584 63.0595 261.706 63.8488 261.98 64.6155C261.586 64.4355 261.185 64.2648 260.782 64.1101C260.292 63.9208 259.793 63.8061 259.266 63.8648C259.017 63.8928 258.9 64.1781 258.99 64.3901C259.282 65.0755 259.734 65.6875 260.292 66.1808C260.453 66.3248 260.628 66.4515 260.808 66.5688C260.628 66.6155 260.45 66.6688 260.276 66.7248C259.56 66.9541 258.841 67.3315 258.306 67.8675C258.176 67.9995 258.14 68.1941 258.264 68.3475C258.46 68.5888 258.745 68.6755 259.044 68.7021C259.381 68.7315 259.725 68.7301 260.064 68.7261C260.332 68.7221 260.6 68.7101 260.868 68.6928C260.702 68.8208 260.541 68.9541 260.392 69.0968C259.892 69.5701 259.484 70.1275 259.389 70.8261C259.365 70.9968 259.512 71.1875 259.689 71.1941C260.372 71.2195 261.064 71.1755 261.725 70.9928C261.738 70.9888 261.752 70.9835 261.765 70.9795C261.674 71.1288 261.585 71.2808 261.502 71.4328C261.105 72.1661 260.842 72.9421 260.669 73.7568C260.617 73.9995 260.885 74.1968 261.102 74.1621C262.177 73.9901 263.205 73.5755 264.094 72.9595C264.094 72.9915 264.092 73.0235 264.092 73.0568C264.096 73.3755 264.11 73.6941 264.14 74.0128C264.165 74.2928 264.152 74.6995 264.338 74.9301C264.568 75.2141 264.982 75.1315 265.261 74.9781C265.541 74.8248 265.75 74.5888 265.962 74.3568C266.35 73.9328 266.693 73.4581 267.006 72.9768C267.025 72.9488 267.041 72.9181 267.058 72.8901C267.136 73.0648 267.22 73.2355 267.312 73.4008C267.676 74.0515 268.14 74.6328 268.69 75.1355C268.944 75.3661 269.262 75.7061 269.638 75.6381C270.088 75.5568 270.166 75.0728 270.254 74.7021C270.418 74.0208 270.533 73.3328 270.537 72.6341C270.988 72.7941 271.45 72.9208 271.904 73.0301C272.297 73.1248 272.856 73.3435 273.254 73.1635C273.806 72.9155 273.55 72.3288 273.365 71.9288C272.981 71.0941 272.541 70.2741 271.978 69.5448C271.958 69.5195 271.936 69.4941 271.916 69.4688C272.204 69.4301 272.49 69.3861 272.776 69.3301C273.114 69.2648 273.464 69.1941 273.762 69.0141C274.048 68.8435 274.384 68.5235 274.321 68.1541C274.261 67.7968 273.804 67.5421 273.54 67.3421Z" fill="#477163"/>
<path d="M304.223 220.777C305.339 221.779 306.741 223.256 308.396 222.962C310.377 222.609 310.719 220.504 311.11 218.899C311.827 215.939 312.335 212.952 312.356 209.918C314.337 210.611 316.373 211.163 318.367 211.635C320.1 212.044 322.558 212.998 324.314 212.218C326.741 211.137 325.614 208.589 324.801 206.851C323.107 203.227 321.17 199.667 318.694 196.501C318.605 196.388 318.51 196.281 318.419 196.171C319.686 196.002 320.949 195.811 322.203 195.57C323.692 195.284 325.233 194.975 326.549 194.196C327.805 193.452 329.282 192.062 329.007 190.459C328.743 188.908 326.728 187.806 325.567 186.935C323.827 185.629 321.978 184.433 320.014 183.467C321.571 182.332 323.104 180.944 324.057 179.265C325.075 177.471 326.005 174.45 323.824 173.088C322.822 172.462 321.618 172.659 320.512 172.81C319.297 172.976 318.082 173.162 316.875 173.369C315.87 173.543 314.873 173.743 313.879 173.967C315.43 171.159 316.495 168.138 316.953 164.961C317.181 163.379 317.225 161.79 317.137 160.192C317.09 159.349 316.987 158.503 316.414 157.828C315.694 156.977 314.495 156.788 313.467 157.092C312.635 157.34 311.946 157.869 311.229 158.337C310.408 158.871 309.59 159.41 308.781 159.965C307.266 161.008 305.8 162.132 304.443 163.372C304.065 163.714 303.7 164.069 303.342 164.432C303.314 164.062 303.301 163.691 303.265 163.323C302.884 159.4 302.019 155.567 300.786 151.82C300.408 150.67 298.794 150.56 297.971 151.202C294.508 153.895 291.98 157.601 290.478 161.677C290.159 162.546 289.892 163.433 289.664 164.33C289.025 163.492 288.385 162.656 287.756 161.813C287.323 161.233 286.893 160.65 286.461 160.07C286.018 159.474 285.59 158.741 284.855 158.46C283.114 157.79 282.065 159.395 281.897 160.867C281.726 162.375 281.666 163.901 281.679 165.416C281.687 166.073 281.723 166.727 281.762 167.381C279.745 165.718 277.478 164.192 275.005 163.604C274.173 163.407 273.088 163.773 273.057 164.79C272.948 168.335 273.487 171.762 274.691 175.097C272.961 174.31 271.192 173.574 269.421 172.899C267.261 172.076 265.069 171.578 262.746 171.836C261.651 171.956 261.138 173.196 261.534 174.113C262.819 177.093 264.808 179.748 267.263 181.893C267.976 182.516 268.74 183.066 269.532 183.579C268.742 183.779 267.96 184.011 267.193 184.251C264.041 185.248 260.876 186.891 258.527 189.217C257.949 189.79 257.789 190.633 258.338 191.3C259.198 192.345 260.454 192.723 261.77 192.838C263.256 192.969 264.766 192.964 266.256 192.943C267.437 192.928 268.618 192.879 269.796 192.8C269.071 193.357 268.359 193.935 267.698 194.553C265.505 196.613 263.705 199.033 263.288 202.064C263.187 202.808 263.829 203.636 264.608 203.664C267.613 203.774 270.661 203.58 273.573 202.785C273.63 202.77 273.689 202.749 273.746 202.734C273.345 203.381 272.956 204.037 272.594 204.699C270.843 207.881 269.688 211.255 268.923 214.792C268.696 215.85 269.871 216.701 270.827 216.55C275.562 215.806 280.081 214.007 283.995 211.326C283.995 211.469 283.985 211.607 283.987 211.75C284.003 213.136 284.067 214.521 284.194 215.901C284.308 217.122 284.249 218.888 285.07 219.888C286.08 221.119 287.903 220.759 289.133 220.095C290.361 219.43 291.288 218.408 292.221 217.398C293.928 215.553 295.435 213.498 296.813 211.405C296.893 211.28 296.966 211.152 297.046 211.027C297.383 211.786 297.753 212.53 298.16 213.248C299.758 216.075 301.801 218.597 304.223 220.777Z" fill="#FFB58E"/>
<path d="M331.527 179.124C329.787 177.818 327.937 176.622 325.974 175.656C327.531 174.521 329.064 173.133 330.017 171.454C331.035 169.66 331.965 166.64 329.784 165.277C328.782 164.651 327.577 164.848 326.471 164.999C325.257 165.165 324.042 165.351 322.835 165.559C321.83 165.732 320.833 165.932 319.838 166.157C321.39 163.345 322.454 160.327 322.913 157.15C323.141 155.568 323.185 153.979 323.097 152.382C323.05 151.538 322.946 150.692 322.374 150.015C321.651 149.164 320.455 148.977 319.427 149.281C318.595 149.529 317.906 150.058 317.189 150.526C316.368 151.06 315.549 151.599 314.741 152.154C313.226 153.194 311.76 154.321 310.403 155.558C310.025 155.903 309.66 156.258 309.302 156.621C309.274 156.251 309.258 155.88 309.224 155.512C308.844 151.589 307.979 147.756 306.746 144.009C306.368 142.859 304.754 142.749 303.93 143.391C300.468 146.084 297.94 149.79 296.437 153.866C296.116 154.735 295.852 155.622 295.624 156.519C294.984 155.681 294.345 154.845 293.715 154.002C293.283 153.419 292.85 152.839 292.42 152.259C291.977 151.663 291.55 150.93 290.814 150.646C289.074 149.979 288.025 151.584 287.857 153.056C287.686 154.564 287.626 156.087 287.639 157.603C287.647 158.262 287.683 158.916 287.722 159.571C285.704 157.907 283.438 156.381 280.965 155.793C280.133 155.597 279.048 155.962 279.017 156.979C278.908 160.524 279.447 163.951 280.651 167.286C278.921 166.499 277.152 165.76 275.38 165.086C273.22 164.263 271.029 163.767 268.706 164.025C267.61 164.145 267.098 165.385 267.494 166.302C268.778 169.282 270.768 171.937 273.22 174.082C273.935 174.705 274.699 175.255 275.492 175.768C274.702 175.968 273.92 176.198 273.153 176.441C270.001 177.437 266.836 179.081 264.487 181.406C263.909 181.979 263.749 182.822 264.298 183.489C265.158 184.534 266.414 184.913 267.73 185.028C269.214 185.158 270.726 185.153 272.215 185.132C273.394 185.114 274.578 185.068 275.756 184.989C275.031 185.546 274.319 186.124 273.658 186.742C271.464 188.802 269.664 191.22 269.247 194.251C269.146 194.997 269.789 195.825 270.568 195.853C273.573 195.963 276.621 195.769 279.53 194.974C279.589 194.959 279.649 194.938 279.706 194.921C279.304 195.57 278.916 196.224 278.553 196.888C276.802 200.07 275.647 203.444 274.883 206.981C274.655 208.036 275.831 208.89 276.787 208.739C281.521 207.995 286.041 206.196 289.955 203.515C289.955 203.658 289.944 203.796 289.947 203.939C289.962 205.325 290.027 206.71 290.154 208.09C290.265 209.311 290.208 211.077 291.029 212.074C292.04 213.309 293.863 212.948 295.093 212.284C296.321 211.617 297.248 210.594 298.181 209.587C299.887 207.742 301.395 205.685 302.773 203.592C302.853 203.469 302.925 203.341 303.006 203.216C303.342 203.973 303.713 204.716 304.119 205.437C305.718 208.264 307.761 210.786 310.183 212.966C311.296 213.968 312.7 215.445 314.355 215.149C316.337 214.798 316.679 212.693 317.07 211.088C317.787 208.128 318.295 205.141 318.315 202.107C320.297 202.8 322.333 203.352 324.327 203.824C326.06 204.233 328.518 205.187 330.274 204.405C332.7 203.326 331.574 200.778 330.761 199.04C329.067 195.416 327.129 191.856 324.653 188.69C324.565 188.577 324.469 188.47 324.379 188.36C325.645 188.191 326.909 188 328.163 187.76C329.652 187.473 331.19 187.164 332.509 186.385C333.765 185.641 335.241 184.251 334.967 182.648C334.703 181.097 332.688 179.995 331.527 179.124Z" fill="#56A262"/>
<path d="M313.439 180.074C312.67 179.497 311.854 178.97 310.989 178.543C311.675 178.042 312.351 177.429 312.773 176.69C313.221 175.898 313.631 174.564 312.67 173.964C312.227 173.688 311.696 173.774 311.206 173.841C310.67 173.912 310.137 173.994 309.603 174.086C309.16 174.163 308.717 174.252 308.28 174.352C308.966 173.11 309.435 171.778 309.637 170.375C309.738 169.678 309.758 168.975 309.717 168.272C309.696 167.899 309.652 167.526 309.398 167.227C309.08 166.851 308.552 166.767 308.098 166.902C307.73 167.012 307.427 167.245 307.111 167.452C306.749 167.687 306.386 167.924 306.031 168.17C305.361 168.63 304.716 169.126 304.115 169.673C303.949 169.826 303.786 169.982 303.628 170.14C303.617 169.979 303.61 169.816 303.594 169.652C303.426 167.922 303.045 166.228 302.501 164.577C302.335 164.068 301.621 164.019 301.258 164.303C299.73 165.491 298.614 167.127 297.951 168.926C297.811 169.31 297.694 169.701 297.593 170.097C297.311 169.726 297.026 169.358 296.749 168.985C296.56 168.73 296.368 168.474 296.179 168.216C295.982 167.953 295.793 167.631 295.469 167.505C294.703 167.209 294.239 167.919 294.164 168.569C294.089 169.233 294.063 169.908 294.068 170.575C294.071 170.866 294.086 171.155 294.104 171.444C293.213 170.71 292.214 170.035 291.121 169.777C290.755 169.69 290.276 169.851 290.261 170.301C290.214 171.865 290.452 173.378 290.983 174.848C290.219 174.503 289.44 174.176 288.657 173.879C287.704 173.516 286.736 173.296 285.713 173.409C285.228 173.463 285 174.01 285.176 174.416C285.744 175.729 286.622 176.903 287.704 177.848C288.018 178.124 288.357 178.367 288.707 178.592C288.357 178.681 288.013 178.784 287.673 178.891C286.282 179.33 284.886 180.054 283.848 181.081C283.594 181.334 283.524 181.707 283.765 182.001C284.146 182.464 284.7 182.63 285.28 182.681C285.935 182.737 286.604 182.735 287.261 182.727C287.782 182.719 288.303 182.696 288.823 182.663C288.502 182.908 288.189 183.164 287.899 183.437C286.927 184.345 286.135 185.413 285.951 186.752C285.904 187.079 286.189 187.445 286.534 187.457C287.86 187.506 289.204 187.422 290.489 187.072C290.515 187.064 290.54 187.054 290.566 187.046C290.39 187.332 290.217 187.624 290.056 187.915C289.284 189.321 288.774 190.808 288.437 192.369C288.336 192.835 288.857 193.213 289.279 193.146C291.367 192.817 293.364 192.022 295.091 190.841C295.091 190.902 295.086 190.964 295.086 191.028C295.094 191.638 295.122 192.249 295.179 192.86C295.228 193.397 295.202 194.176 295.565 194.618C296.011 195.163 296.816 195.004 297.357 194.71C297.901 194.416 298.308 193.964 298.72 193.519C299.473 192.707 300.139 191.797 300.748 190.874C300.784 190.821 300.815 190.762 300.849 190.708C300.999 191.043 301.162 191.37 301.341 191.687C302.048 192.934 302.949 194.048 304.019 195.012C304.511 195.454 305.13 196.106 305.86 195.975C306.733 195.82 306.886 194.892 307.057 194.181C307.376 192.875 307.598 191.557 307.606 190.218C308.482 190.524 309.38 190.767 310.261 190.977C311.025 191.158 312.11 191.577 312.885 191.232C313.957 190.757 313.46 189.632 313.1 188.866C312.354 187.266 311.499 185.694 310.406 184.296C310.367 184.248 310.323 184.199 310.284 184.15C310.844 184.076 311.401 183.992 311.955 183.885C312.613 183.759 313.291 183.624 313.871 183.279C314.426 182.952 315.078 182.338 314.957 181.631C314.84 180.946 313.952 180.457 313.439 180.074Z" fill="#477163"/>
<path d="M186.819 366.491C187.732 367.322 188.879 368.547 190.233 368.303C191.854 368.011 192.134 366.265 192.454 364.934C193.041 362.48 193.456 360.003 193.473 357.487C195.094 358.062 196.76 358.519 198.391 358.911C199.809 359.25 201.82 360.041 203.257 359.395C205.242 358.498 204.321 356.385 203.655 354.944C202.269 351.939 200.684 348.988 198.658 346.362C198.586 346.269 198.508 346.18 198.434 346.089C199.47 345.949 200.504 345.79 201.53 345.591C202.748 345.353 204.009 345.097 205.086 344.451C206.113 343.834 207.321 342.681 207.097 341.352C206.881 340.066 205.232 339.153 204.282 338.43C202.858 337.347 201.345 336.355 199.739 335.554C201.013 334.614 202.267 333.463 203.047 332.071C203.88 330.583 204.641 328.078 202.856 326.949C202.036 326.43 201.051 326.593 200.146 326.718C199.152 326.855 198.158 327.01 197.171 327.182C196.349 327.326 195.533 327.491 194.719 327.678C195.988 325.349 196.859 322.844 197.234 320.21C197.421 318.898 197.457 317.58 197.385 316.256C197.347 315.556 197.262 314.855 196.794 314.295C196.204 313.59 195.223 313.433 194.382 313.685C193.702 313.891 193.138 314.329 192.551 314.717C191.879 315.16 191.21 315.607 190.548 316.067C189.309 316.932 188.109 317.864 186.999 318.892C186.69 319.176 186.391 319.47 186.098 319.771C186.075 319.464 186.064 319.157 186.035 318.852C185.723 315.599 185.015 312.42 184.007 309.313C183.697 308.36 182.377 308.269 181.703 308.801C178.87 311.034 176.802 314.107 175.573 317.487C175.312 318.207 175.094 318.943 174.907 319.686C174.384 318.991 173.86 318.298 173.345 317.599C172.992 317.118 172.64 316.635 172.286 316.154C171.924 315.66 171.574 315.052 170.972 314.819C169.548 314.264 168.69 315.594 168.552 316.815C168.412 318.065 168.363 319.33 168.374 320.587C168.38 321.132 168.41 321.674 168.442 322.217C166.791 320.837 164.937 319.572 162.913 319.085C162.233 318.921 161.345 319.225 161.319 320.068C161.23 323.007 161.671 325.849 162.657 328.614C161.241 327.962 159.794 327.351 158.344 326.792C156.577 326.11 154.784 325.696 152.883 325.91C151.987 326.01 151.567 327.038 151.892 327.798C152.943 330.269 154.57 332.471 156.579 334.249C157.162 334.766 157.787 335.222 158.435 335.648C157.789 335.813 157.149 336.006 156.522 336.205C153.943 337.031 151.353 338.394 149.431 340.322C148.959 340.797 148.827 341.496 149.277 342.05C149.98 342.916 151.008 343.23 152.084 343.325C153.301 343.433 154.536 343.429 155.755 343.412C156.721 343.399 157.687 343.359 158.652 343.293C158.058 343.755 157.475 344.234 156.935 344.747C155.14 346.455 153.667 348.462 153.326 350.975C153.244 351.592 153.769 352.279 154.407 352.302C156.865 352.393 159.359 352.232 161.741 351.573C161.788 351.56 161.837 351.543 161.883 351.53C161.555 352.067 161.237 352.611 160.94 353.16C159.508 355.798 158.563 358.596 157.937 361.528C157.751 362.406 158.713 363.111 159.495 362.986C163.369 362.37 167.067 360.878 170.269 358.655C170.269 358.774 170.26 358.888 170.262 359.007C170.275 360.155 170.328 361.304 170.432 362.448C170.525 363.461 170.476 364.925 171.148 365.754C171.974 366.775 173.466 366.477 174.473 365.926C175.477 365.375 176.236 364.527 176.999 363.69C178.395 362.16 179.629 360.456 180.756 358.721C180.822 358.617 180.881 358.511 180.947 358.407C181.222 359.036 181.525 359.653 181.858 360.249C183.165 362.592 184.837 364.684 186.819 366.491Z" fill="#FFB58E"/>
<path d="M209.159 331.953C207.735 330.871 206.221 329.879 204.615 329.078C205.889 328.137 207.143 326.986 207.923 325.594C208.756 324.106 209.517 321.602 207.732 320.472C206.912 319.953 205.927 320.116 205.022 320.241C204.028 320.379 203.034 320.533 202.047 320.705C201.225 320.849 200.409 321.015 199.595 321.201C200.864 318.87 201.735 316.367 202.11 313.733C202.297 312.422 202.333 311.103 202.261 309.779C202.223 309.08 202.138 308.378 201.67 307.817C201.078 307.111 200.099 306.956 199.258 307.208C198.578 307.414 198.014 307.853 197.427 308.241C196.755 308.683 196.086 309.131 195.425 309.59C194.185 310.453 192.985 311.387 191.875 312.413C191.566 312.699 191.267 312.994 190.974 313.295C190.951 312.987 190.938 312.68 190.911 312.375C190.599 309.122 189.892 305.943 188.883 302.837C188.573 301.883 187.253 301.792 186.579 302.324C183.746 304.557 181.678 307.63 180.449 311.01C180.186 311.731 179.97 312.466 179.783 313.21C179.26 312.515 178.737 311.822 178.222 311.123C177.868 310.639 177.514 310.158 177.162 309.677C176.8 309.184 176.45 308.575 175.848 308.34C174.424 307.787 173.566 309.118 173.428 310.338C173.288 311.589 173.24 312.852 173.25 314.108C173.256 314.655 173.286 315.198 173.318 315.74C171.667 314.361 169.813 313.095 167.789 312.608C167.109 312.445 166.221 312.748 166.196 313.591C166.107 316.53 166.547 319.372 167.533 322.138C166.117 321.485 164.67 320.873 163.22 320.313C161.453 319.631 159.66 319.22 157.759 319.434C156.863 319.533 156.443 320.561 156.768 321.322C157.819 323.793 159.446 325.994 161.453 327.772C162.038 328.289 162.663 328.745 163.311 329.171C162.665 329.336 162.025 329.527 161.398 329.728C158.819 330.555 156.229 331.917 154.307 333.846C153.835 334.32 153.703 335.02 154.153 335.573C154.856 336.44 155.884 336.753 156.96 336.849C158.175 336.957 159.412 336.952 160.631 336.935C161.595 336.921 162.563 336.882 163.528 336.817C162.934 337.279 162.352 337.758 161.811 338.271C160.016 339.979 158.543 341.983 158.202 344.496C158.12 345.115 158.645 345.802 159.283 345.825C161.741 345.916 164.235 345.755 166.615 345.096C166.664 345.083 166.713 345.067 166.759 345.052C166.431 345.59 166.113 346.132 165.816 346.683C164.384 349.322 163.439 352.119 162.813 355.052C162.627 355.927 163.589 356.635 164.371 356.51C168.245 355.893 171.943 354.401 175.145 352.178C175.145 352.297 175.136 352.411 175.138 352.53C175.151 353.679 175.204 354.827 175.308 355.972C175.399 356.984 175.352 358.449 176.024 359.275C176.851 360.299 178.342 360 179.349 359.449C180.353 358.896 181.112 358.048 181.875 357.213C183.271 355.683 184.505 353.977 185.632 352.242C185.698 352.14 185.757 352.034 185.823 351.93C186.098 352.558 186.401 353.174 186.734 353.772C188.042 356.116 189.714 358.207 191.695 360.015C192.606 360.845 193.755 362.07 195.109 361.825C196.73 361.534 197.01 359.788 197.33 358.457C197.917 356.003 198.332 353.526 198.349 351.011C199.97 351.585 201.636 352.043 203.267 352.435C204.685 352.774 206.696 353.564 208.133 352.916C210.119 352.021 209.197 349.909 208.531 348.468C207.145 345.463 205.56 342.511 203.534 339.885C203.462 339.792 203.384 339.703 203.31 339.612C204.346 339.472 205.38 339.313 206.406 339.114C207.624 338.877 208.883 338.62 209.962 337.974C210.99 337.357 212.197 336.204 211.973 334.876C211.757 333.589 210.108 332.676 209.159 331.953Z" fill="#56A262"/>
<path d="M194.359 332.741C193.73 332.262 193.062 331.826 192.354 331.472C192.916 331.057 193.469 330.548 193.814 329.936C194.181 329.279 194.516 328.172 193.73 327.674C193.367 327.446 192.933 327.518 192.532 327.573C192.094 327.632 191.657 327.7 191.221 327.776C190.858 327.84 190.496 327.914 190.138 327.997C190.699 326.967 191.083 325.863 191.248 324.699C191.331 324.121 191.348 323.538 191.314 322.955C191.297 322.646 191.261 322.336 191.053 322.088C190.793 321.777 190.36 321.707 189.989 321.819C189.689 321.91 189.441 322.103 189.182 322.275C188.885 322.47 188.589 322.667 188.298 322.87C187.75 323.252 187.222 323.663 186.73 324.116C186.595 324.244 186.461 324.373 186.332 324.504C186.323 324.371 186.317 324.235 186.304 324.1C186.167 322.665 185.855 321.26 185.41 319.891C185.274 319.469 184.69 319.429 184.393 319.664C183.143 320.65 182.229 322.006 181.687 323.498C181.572 323.816 181.477 324.14 181.394 324.468C181.163 324.161 180.93 323.856 180.704 323.546C180.549 323.335 180.392 323.123 180.237 322.909C180.076 322.69 179.922 322.423 179.657 322.319C179.029 322.074 178.65 322.663 178.589 323.201C178.527 323.752 178.506 324.311 178.51 324.865C178.512 325.106 178.525 325.346 178.54 325.585C177.811 324.977 176.993 324.417 176.099 324.203C175.8 324.131 175.408 324.265 175.395 324.638C175.357 325.935 175.552 327.189 175.986 328.408C175.361 328.122 174.723 327.85 174.083 327.605C173.304 327.304 172.511 327.121 171.674 327.215C171.278 327.259 171.091 327.713 171.235 328.05C171.699 329.139 172.418 330.111 173.304 330.896C173.56 331.124 173.838 331.326 174.124 331.512C173.838 331.586 173.556 331.671 173.278 331.76C172.14 332.125 170.998 332.724 170.148 333.576C169.941 333.786 169.883 334.095 170.08 334.339C170.392 334.723 170.845 334.86 171.32 334.903C171.856 334.949 172.403 334.947 172.941 334.941C173.367 334.935 173.793 334.916 174.219 334.888C173.956 335.091 173.7 335.303 173.462 335.53C172.668 336.282 172.019 337.168 171.869 338.279C171.831 338.55 172.064 338.853 172.346 338.863C173.431 338.904 174.531 338.834 175.582 338.543C175.603 338.537 175.624 338.529 175.645 338.522C175.501 338.76 175.359 339.001 175.228 339.243C174.596 340.408 174.179 341.642 173.903 342.936C173.821 343.322 174.247 343.636 174.592 343.581C176.3 343.307 177.934 342.648 179.347 341.669C179.347 341.72 179.343 341.771 179.343 341.824C179.349 342.33 179.373 342.837 179.419 343.343C179.46 343.788 179.438 344.435 179.735 344.801C180.1 345.253 180.759 345.121 181.202 344.877C181.647 344.634 181.979 344.259 182.316 343.89C182.933 343.216 183.477 342.462 183.975 341.697C184.005 341.652 184.031 341.603 184.058 341.559C184.181 341.837 184.314 342.108 184.461 342.371C185.039 343.405 185.777 344.329 186.652 345.128C187.055 345.494 187.561 346.035 188.159 345.926C188.873 345.797 188.998 345.028 189.138 344.439C189.398 343.356 189.58 342.262 189.587 341.152C190.303 341.406 191.038 341.608 191.759 341.781C192.384 341.932 193.272 342.279 193.906 341.993C194.783 341.599 194.376 340.667 194.081 340.031C193.471 338.704 192.772 337.401 191.878 336.242C191.846 336.202 191.81 336.162 191.778 336.121C192.236 336.06 192.691 335.99 193.145 335.901C193.683 335.797 194.238 335.685 194.713 335.399C195.166 335.127 195.701 334.619 195.601 334.032C195.506 333.464 194.779 333.059 194.359 332.741Z" fill="#477163"/>
</svg>
