<svg width="34" height="53" viewBox="0 0 34 53" fill="none" xmlns="http://www.w3.org/2000/svg">
<g filter="url(#filter0_d_22_5679)">
<path d="M9.03134 28.2564C9.03134 28.2564 4.48971 32.1645 3.59178 38.13C2.69385 44.0955 7.31145 43.8783 7.31145 43.8783L11.4708 29.4059L9.03134 28.2564Z" fill="#FFCE43"/>
<path d="M8.9832 28.2603C8.9832 28.2603 1.6182 39.9917 7.24712 43.9373L10.7517 28.8455L8.9832 28.2603Z" fill="#EE9D2F"/>
<path d="M7.24625 44.2461C6.8693 44.2461 5.31636 44.1681 4.21191 42.9444C3.23625 41.8635 2.9056 40.2252 3.22918 38.0754C4.13691 32.0447 8.60256 28.1416 8.79212 27.9785L8.97255 27.8234L11.9095 29.207L7.59135 44.232L7.32885 44.2444C7.32048 44.2449 7.29201 44.2461 7.24625 44.2461ZM9.09756 28.6931C8.26908 29.4754 4.7219 33.0851 3.95451 38.1846C3.66516 40.1069 3.93494 41.5428 4.75635 42.4529C5.51505 43.2936 6.55983 43.4691 7.03733 43.5039L11.032 29.6045L9.09756 28.6931Z" fill="#111111"/>
<path d="M27.3912 28.2564C27.3912 28.2564 31.9329 32.1645 32.8308 38.13C33.7287 44.0955 29.1111 43.8783 29.1111 43.8783L24.9518 29.4059L27.3912 28.2564Z" fill="#FFCE43"/>
<path d="M27.4394 28.2603C27.4394 28.2603 34.8044 39.9917 29.1755 43.9373L25.6709 28.8455L27.4394 28.2603Z" fill="#EE9D2F"/>
<path d="M29.1763 44.2461C29.1306 44.2461 29.1021 44.2449 29.0938 44.2445L28.8313 44.2321L24.5132 29.2071L27.4501 27.8235L27.6306 27.9786C27.8201 28.1417 32.2858 32.0448 33.1935 38.0755C33.517 40.2253 33.1863 41.8636 32.2107 42.9447C31.1062 44.1679 29.5534 44.2461 29.1763 44.2461ZM25.3906 29.6046L29.3849 43.503C29.8648 43.4661 30.9176 43.287 31.6717 42.4471C32.4888 41.5364 32.7568 40.1025 32.4682 38.1846C31.7007 33.0852 28.1536 29.4754 27.3251 28.693L25.3906 29.6046Z" fill="#111111"/>
<path d="M23.7731 26.0749L18.2957 26.9852L12.5739 26.0749C12.5739 26.0749 4.17762 35.3373 6.91436 42.7472C9.47012 49.6672 17.2748 49.64 18.2957 49.6061C19.3167 49.6399 27.1214 49.6672 29.6771 42.7472C32.4139 35.3373 23.7731 26.0749 23.7731 26.0749Z" fill="#FFCE43"/>
<path d="M21.7487 46.8317C20.7439 47.0164 13.0295 48.1993 9.47686 41.7342C7.39621 37.9477 8.52729 33.1198 9.97925 29.5225C7.77784 32.8939 5.22501 38.173 6.91436 42.7472C9.47012 49.6672 17.2748 49.64 18.2957 49.6061C19.2969 49.6392 26.8183 49.6614 29.5195 43.1363C26.6601 46.1414 22.4769 46.7473 21.7487 46.8317Z" fill="#EE9D2F"/>
<path d="M18.5721 49.977C18.4445 49.977 18.3471 49.9748 18.2838 49.9726C17.386 50.0053 9.22514 50.0622 6.57036 42.8741C3.78873 35.3423 11.9534 26.2135 12.3023 25.8286L12.4357 25.6815L18.2946 26.6138L23.9071 25.6809L24.0412 25.8247C24.4003 26.2097 32.8044 35.3389 30.0213 42.8741C27.549 49.5683 20.3012 49.977 18.5721 49.977ZM18.2838 49.2397C19.1752 49.2669 26.8566 49.3259 29.3332 42.6201C31.7794 35.997 24.6959 27.6647 23.6352 26.4696L18.2972 27.3567L12.7166 26.4689C11.6773 27.6758 4.81492 36.0041 7.2584 42.6201C9.73482 49.3257 17.4153 49.2672 18.2838 49.2397Z" fill="#111111"/>
<path d="M32.8172 21.4192C33.1419 20.4419 32.6638 19.4003 31.7104 18.9241C25.2997 15.7225 29.5107 7.32 18.1715 7.32V7.31718C18.1541 7.31718 18.139 7.31848 18.1218 7.31859C18.1046 7.31859 18.0894 7.31718 18.072 7.31718V7.32C7.05545 7.32 10.9669 15.6859 4.57926 18.9032C3.61089 19.3909 3.12991 20.4542 3.48339 21.4416C4.61328 24.5972 9.18556 30.5519 18.072 30.5519V30.5541C18.0891 30.5541 18.1048 30.553 18.1218 30.5529C18.1388 30.5529 18.1544 30.5541 18.1715 30.5541V30.5519C27.2798 30.5519 31.7707 24.5689 32.8172 21.4192Z" fill="#FFCE43"/>
<path d="M32.8172 21.4192C33.1419 20.4419 32.6638 19.4003 31.7104 18.9241C25.2997 15.7225 29.5107 7.32 18.1715 7.32V7.31718C18.1541 7.31718 18.139 7.31848 18.1218 7.31859C18.1046 7.31859 18.0894 7.31718 18.072 7.31718V7.32C7.05545 7.32 10.9669 15.6859 4.57926 18.9032C3.61089 19.3909 3.12991 20.4542 3.48339 21.4416C4.61328 24.5972 9.18556 30.5519 18.072 30.5519V30.5541C18.0891 30.5541 18.1048 30.553 18.1218 30.5529C18.1388 30.5529 18.1544 30.5541 18.1715 30.5541V30.5519C27.2798 30.5519 31.7707 24.5689 32.8172 21.4192Z" fill="#FFCE43"/>
<path d="M18.1715 28.3724V28.3748C18.1544 28.3748 18.1388 28.3736 18.1218 28.3736C18.1048 28.3736 18.0892 28.3748 18.072 28.3748V28.3724C9.55447 28.3724 5.00262 22.6292 3.64425 19.2343C3.35556 19.7559 3.27838 20.3834 3.48338 20.9848C4.61327 24.2985 9.18555 30.5517 18.072 30.5517V30.5541C18.0891 30.5541 18.1048 30.5529 18.1218 30.5529C18.1389 30.5529 18.1544 30.5541 18.1715 30.5541V30.5517C27.2798 30.5517 31.7707 24.2689 32.8172 20.9614C33.0027 20.3749 32.9253 19.7668 32.6477 19.2598C31.3441 22.6577 26.8597 28.3724 18.1715 28.3724Z" fill="#EE9D2F"/>
<path d="M14.0833 19.1762C13.8807 19.1762 13.7166 19.0121 13.7166 18.8095C13.7166 17.8341 12.9231 17.0407 11.9478 17.0407C10.9723 17.0407 10.1787 17.8341 10.1787 18.8095C10.1787 19.0121 10.0146 19.1762 9.81199 19.1762C9.60938 19.1762 9.44525 19.0121 9.44525 18.8095C9.44525 17.4297 10.5679 16.3072 11.9476 16.3072C13.3274 16.3072 14.4499 17.4297 14.4499 18.8095C14.45 19.0121 14.2859 19.1762 14.0833 19.1762Z" fill="#111111"/>
<path d="M26.5157 19.1762C26.3131 19.1762 26.149 19.0121 26.149 18.8095C26.149 17.8341 25.3555 17.0407 24.3802 17.0407C23.4048 17.0407 22.6113 17.8341 22.6113 18.8095C22.6113 19.0121 22.4472 19.1762 22.2445 19.1762C22.0419 19.1762 21.8778 19.0121 21.8778 18.8095C21.8778 17.4297 23.0004 16.3072 24.3802 16.3072C25.76 16.3072 26.8825 17.4297 26.8825 18.8095C26.8826 19.0121 26.7184 19.1762 26.5157 19.1762Z" fill="#111111"/>
<path d="M12.1813 29.9314C12.14 29.9314 12.0983 29.9244 12.0572 29.9097C6.68264 27.9757 3.92199 23.7546 3.13808 21.5653C2.72558 20.4131 3.26232 19.1558 4.41427 18.5756C6.86938 17.339 7.70938 15.3496 8.59862 13.2434C9.88047 10.2072 11.2051 7.06957 17.7053 6.95642V6.95327L18.0721 6.95044L18.1131 6.95153L18.5383 6.95044V6.95631C25.2485 7.06696 26.53 10.2304 27.77 13.2915C28.62 15.3899 29.4229 17.3718 31.8744 18.5961C33.0013 19.1587 33.5441 20.3947 33.1652 21.5349C32.4449 23.7033 29.7927 27.8973 24.4224 29.8614C24.2325 29.9306 24.0215 29.8332 23.9521 29.643C23.8825 29.4528 23.9802 29.2422 24.1705 29.1726C29.2785 27.3046 31.7903 23.3474 32.4693 21.3036C32.732 20.5132 32.3441 19.6504 31.5469 19.2523C28.8473 17.9041 27.9541 15.6993 27.0903 13.5669C25.8651 10.5429 24.708 7.68674 18.1714 7.68674H18.072C11.7408 7.68674 10.5427 10.5244 9.27438 13.5287C8.37253 15.6644 7.44025 17.8728 4.74416 19.2308C3.92786 19.642 3.54275 20.5197 3.82851 21.3182C4.56916 23.3864 7.18797 27.3781 12.3055 29.2195C12.4961 29.2882 12.5949 29.4983 12.5264 29.6887C12.4726 29.8383 12.3317 29.9314 12.1813 29.9314Z" fill="#111111"/>
<path d="M16.3997 8.19663C15.0671 7.34793 14.4853 5.49184 15.095 4.03424C15.459 4.75576 15.984 4.96282 16.6896 5.35695C16.0307 3.78641 16.5514 1.80402 17.8969 0.759888C17.8832 1.4876 18.3258 2.23021 18.7675 2.80891C19.0792 3.21739 19.4838 3.54739 19.8001 3.95228C20.6915 5.09326 20.74 6.81891 19.9142 8.00826L16.3997 8.19663Z" fill="#FFCE43"/>
<path d="M16.3993 8.56337C16.3319 8.56337 16.2637 8.54489 16.2027 8.50597C14.7079 7.55402 14.0727 5.52761 14.7566 3.89282L15.0639 3.15826L15.4224 3.86913C15.5962 4.21369 15.8119 4.41706 16.0945 4.60011C15.8454 3.07869 16.4445 1.42261 17.672 0.470217L18.278 0L18.2634 0.766848C18.254 1.27033 18.5217 1.8825 19.0589 2.58641C19.2051 2.77804 19.3764 2.95359 19.5577 3.13946C19.737 3.32315 19.9222 3.51315 20.0891 3.72652C21.0843 5.00054 21.1376 6.88924 20.2154 8.21739C20.1 8.38358 19.8714 8.42489 19.7051 8.30945C19.5387 8.19402 19.4975 7.96554 19.613 7.79913C20.3444 6.74554 20.3006 5.1888 19.511 4.17804C19.3692 3.99641 19.2058 3.82902 19.0328 3.65163C18.8441 3.45837 18.6491 3.25837 18.4758 3.0313C18.0582 2.48424 17.7813 1.98076 17.6403 1.50946C16.786 2.5075 16.5157 3.99467 17.0278 5.215L17.4392 6.19554L16.5108 5.67706C16.4212 5.62706 16.3345 5.58 16.2508 5.53467C15.8795 5.33337 15.5399 5.14924 15.2472 4.86348C15.0895 6.01043 15.6158 7.2625 16.5967 7.88728C16.7676 7.99598 16.8179 8.22271 16.709 8.39358C16.6392 8.50337 16.5205 8.56337 16.3993 8.56337Z" fill="#111111"/>
<path d="M10.9605 14.7418C10.5337 13.9378 13.0527 12.7949 13.4679 13.5773C13.8831 14.3597 11.3757 15.5242 10.9605 14.7418Z" fill="#F39007"/>
<path d="M11.53 15.3678C11.5103 15.3678 11.4906 15.3675 11.4711 15.3669C10.9442 15.3479 10.722 15.075 10.6366 14.9138C10.3597 14.3922 10.7237 13.767 11.564 13.3211C12.4104 12.8717 13.4472 12.7565 13.7918 13.4053C13.9297 13.6651 13.907 13.9657 13.728 14.2519C13.3611 14.8381 12.309 15.3678 11.53 15.3678ZM11.2844 14.57C11.3027 14.6042 11.3882 14.6299 11.4973 14.6339C12.0056 14.6482 12.8692 14.2414 13.1062 13.8627C13.1116 13.8541 13.1587 13.7773 13.144 13.7492C13.0885 13.6453 12.5647 13.6204 11.9078 13.969C11.432 14.2215 11.2464 14.4985 11.2845 14.5701L11.2844 14.57Z" fill="#111111"/>
<path d="M25.3256 14.7418C25.7523 13.9378 23.2334 12.7949 22.8182 13.5773C22.403 14.3597 24.9104 15.5242 25.3256 14.7418Z" fill="#F39007"/>
<path d="M24.7575 15.3695C24.3407 15.3695 23.8583 15.2186 23.436 14.9945C22.5899 14.5453 22.2202 13.9216 22.4942 13.4053C22.8385 12.7565 23.8759 12.8718 24.7221 13.3211C25.5624 13.7671 25.9265 14.3923 25.6496 14.9138L25.6495 14.9139C25.4771 15.2384 25.1458 15.3695 24.7575 15.3695ZM23.3935 13.6811C23.2534 13.6811 23.1632 13.7092 23.142 13.7491C23.1163 13.7978 23.259 14.0701 23.78 14.3466C24.4303 14.6917 24.9477 14.6711 25.0017 14.5699C25.0395 14.4984 24.8539 14.2214 24.3783 13.9689C23.9733 13.754 23.6188 13.6811 23.3935 13.6811Z" fill="#111111"/>
<path d="M21.2229 23.8542L18.1217 23.1132L15.0205 23.8542C15.0205 23.8542 15.3478 28.4985 18.1217 28.4985C20.7877 28.4985 21.2229 23.8542 21.2229 23.8542Z" fill="#DB4A1D"/>
<path d="M18.1217 28.8652C15.0415 28.8652 14.669 24.0836 14.6548 23.88L14.6328 23.5699L18.1218 22.7361L21.6177 23.5716L21.5881 23.8886C21.569 24.0917 21.0875 28.8652 18.1217 28.8652ZM15.42 24.1359C15.548 25.121 16.1049 28.1317 18.1217 28.1317C20.0556 28.1317 20.6675 25.1276 20.8167 24.1344L18.1217 23.4903L15.42 24.1359Z" fill="#111111"/>
<path d="M17.214 25.007C17.214 25.007 17.155 25.9026 18.0038 26.7438C18.1 26.8391 18.2548 26.841 18.3481 26.743C18.6154 26.4628 19.1033 25.8279 19.1033 24.9271L17.214 25.007Z" fill="#892713"/>
<path d="M25.5922 22.8539C25.7253 22.1732 24.3126 22.445 22.5245 21.8601C20.6352 21.2422 20.4551 19.0252 18.1245 19.0252C15.7938 19.0252 15.6137 21.2422 13.7245 21.8601C11.9363 22.445 10.8364 22.184 10.6569 22.8539C10.4115 23.7694 13.3983 24.7876 18.0821 24.7876C22.7658 24.7876 25.4132 23.7694 25.5922 22.8539Z" fill="#F15A24"/>
<path d="M18.082 25.1543C14.2909 25.1543 11.2334 24.4896 10.4742 23.5C10.2473 23.2045 10.2556 22.9339 10.3025 22.759C10.4709 22.1312 11.0777 22.0339 11.846 21.9107C12.3212 21.8345 12.9128 21.7397 13.6105 21.5114C14.331 21.2758 14.7779 20.7679 15.2511 20.2302C15.8996 19.4934 16.6344 18.6584 18.1246 18.6584C19.6147 18.6584 20.3496 19.4935 20.9981 20.2302C21.4711 20.7679 21.9181 21.2758 22.6387 21.5114C23.3334 21.7387 23.9739 21.8318 24.4886 21.9065C25.1714 22.0058 25.6226 22.0713 25.8499 22.392C25.9238 22.4962 26.0014 22.6729 25.9523 22.9242C25.6953 24.2373 22.4589 25.1543 18.082 25.1543ZM18.1245 19.3918C16.9659 19.3918 16.4264 20.0049 15.8018 20.7148C15.3085 21.2752 14.7493 21.9105 13.8384 22.2086C13.0858 22.4548 12.4627 22.5547 11.962 22.6349C11.3183 22.738 11.0521 22.7953 11.0109 22.9489C11.0031 22.9784 11.0358 23.0271 11.056 23.0535C11.4618 23.5821 13.7279 24.4209 18.082 24.4209C22.85 24.4209 25.0665 23.3802 25.2273 22.8045C25.0938 22.7357 24.7028 22.6789 24.3831 22.6324C23.8404 22.5536 23.1652 22.4554 22.4106 22.2086C21.4997 21.9107 20.9406 21.2752 20.4472 20.7148C19.8225 20.0049 19.2829 19.3918 18.1245 19.3918Z" fill="#111111"/>
<path d="M15.5692 22.2345C15.1896 21.9498 16.1384 20.9061 16.4231 21.2857C16.7078 21.6651 15.9488 22.519 15.5692 22.2345Z" fill="#333333"/>
<path d="M20.3823 22.2345C20.7619 21.9498 19.8131 20.9061 19.5284 21.2857C19.2437 21.6651 20.0028 22.519 20.3823 22.2345Z" fill="#333333"/>
</g>
<defs>
<filter id="filter0_d_22_5679" x="0" y="0" width="33.326" height="53" filterUnits="userSpaceOnUse" color-interpolation-filters="sRGB">
<feFlood flood-opacity="0" result="BackgroundImageFix"/>
<feColorMatrix in="SourceAlpha" type="matrix" values="0 0 0 0 0 0 0 0 0 0 0 0 0 0 0 0 0 0 127 0" result="hardAlpha"/>
<feOffset dx="-3" dy="3"/>
<feComposite in2="hardAlpha" operator="out"/>
<feColorMatrix type="matrix" values="0 0 0 0 0.372549 0 0 0 0 0.807843 0 0 0 0 0.976471 0 0 0 1 0"/>
<feBlend mode="normal" in2="BackgroundImageFix" result="effect1_dropShadow_22_5679"/>
<feBlend mode="normal" in="SourceGraphic" in2="effect1_dropShadow_22_5679" result="shape"/>
</filter>
</defs>
</svg>
