<svg width="34" height="52" viewBox="0 0 34 52" fill="none" xmlns="http://www.w3.org/2000/svg">
<path d="M6.03134 30.2564C6.03134 30.2564 1.48971 34.1645 0.591781 40.13C-0.306154 46.0955 4.31145 45.8783 4.31145 45.8783L8.4708 31.4059L6.03134 30.2564Z" fill="#5FCEF9"/>
<path d="M5.9832 30.2603C5.9832 30.2603 -1.3818 41.9917 4.24712 45.9373L7.75168 30.8455L5.9832 30.2603Z" fill="#5FCEF9"/>
<path d="M4.24625 46.2461C3.8693 46.2461 2.31636 46.1681 1.21191 44.9444C0.236249 43.8635 -0.0944033 42.2252 0.229183 40.0754C1.13691 34.0447 5.60256 30.1416 5.79212 29.9785L5.97255 29.8234L8.9095 31.207L4.59135 46.232L4.32885 46.2444C4.32048 46.2449 4.29201 46.2461 4.24625 46.2461ZM6.09756 30.6931C5.26908 31.4754 1.7219 35.0851 0.954508 40.1846C0.66516 42.1069 0.934943 43.5428 1.75635 44.4529C2.51505 45.2936 3.55983 45.4691 4.03733 45.5039L8.032 31.6045L6.09756 30.6931Z" fill="#5FCEF9"/>
<path d="M24.3912 30.2564C24.3912 30.2564 28.9329 34.1645 29.8308 40.13C30.7287 46.0955 26.1111 45.8783 26.1111 45.8783L21.9518 31.4059L24.3912 30.2564Z" fill="#5FCEF9"/>
<path d="M24.4394 30.2603C24.4394 30.2603 31.8044 41.9917 26.1755 45.9373L22.6709 30.8455L24.4394 30.2603Z" fill="#5FCEF9"/>
<path d="M26.1763 46.2461C26.1306 46.2461 26.1021 46.2449 26.0938 46.2445L25.8313 46.2321L21.5132 31.2071L24.4501 29.8235L24.6306 29.9786C24.8201 30.1417 29.2858 34.0448 30.1935 40.0755C30.517 42.2253 30.1863 43.8636 29.2107 44.9447C28.1062 46.1679 26.5534 46.2461 26.1763 46.2461ZM22.3906 31.6046L26.3849 45.503C26.8648 45.4661 27.9176 45.287 28.6717 44.4471C29.4888 43.5364 29.7568 42.1025 29.4682 40.1846C28.7007 35.0852 25.1536 31.4754 24.3251 30.693L22.3906 31.6046Z" fill="#5FCEF9"/>
<path d="M20.7731 28.0749L15.2957 28.9852L9.57394 28.0749C9.57394 28.0749 1.17762 37.3373 3.91436 44.7472C6.47012 51.6672 14.2748 51.64 15.2957 51.6061C16.3167 51.6399 24.1214 51.6672 26.6771 44.7472C29.4139 37.3373 20.7731 28.0749 20.7731 28.0749Z" fill="#5FCEF9"/>
<path d="M18.7487 48.8317C17.7439 49.0164 10.0295 50.1993 6.47686 43.7342C4.39621 39.9477 5.52729 35.1198 6.97925 31.5225C4.77784 34.8939 2.22501 40.173 3.91436 44.7472C6.47012 51.6672 14.2748 51.64 15.2957 51.6061C16.2969 51.6392 23.8183 51.6614 26.5195 45.1363C23.6601 48.1414 19.4769 48.7473 18.7487 48.8317Z" fill="#5FCEF9"/>
<path d="M15.5721 51.977C15.4445 51.977 15.3471 51.9748 15.2838 51.9726C14.386 52.0053 6.22514 52.0622 3.57036 44.8741C0.788733 37.3423 8.9534 28.2135 9.30232 27.8286L9.43569 27.6815L15.2946 28.6138L20.9071 27.6809L21.0412 27.8247C21.4003 28.2097 29.8044 37.3389 27.0213 44.8741C24.549 51.5683 17.3012 51.977 15.5721 51.977ZM15.2838 51.2397C16.1752 51.2669 23.8566 51.3259 26.3332 44.6201C28.7794 37.997 21.6959 29.6647 20.6352 28.4696L15.2972 29.3567L9.71656 28.4689C8.67732 29.6758 1.81492 38.0041 4.2584 44.6201C6.73482 51.3257 14.4153 51.2672 15.2838 51.2397Z" fill="#5FCEF9"/>
<path d="M29.8172 23.4192C30.1419 22.4419 29.6638 21.4003 28.7104 20.9241C22.2997 17.7225 26.5107 9.32 15.1715 9.32V9.31718C15.1541 9.31718 15.139 9.31848 15.1218 9.31859C15.1046 9.31859 15.0894 9.31718 15.072 9.31718V9.32C4.05545 9.32 7.96687 17.6859 1.57926 20.9032C0.610891 21.3909 0.129913 22.4542 0.483391 23.4416C1.61328 26.5972 6.18556 32.5519 15.072 32.5519V32.5541C15.0891 32.5541 15.1048 32.553 15.1218 32.5529C15.1388 32.5529 15.1544 32.5541 15.1715 32.5541V32.5519C24.2798 32.5519 28.7707 26.5689 29.8172 23.4192Z" fill="#5FCEF9"/>
<path d="M29.8172 23.4192C30.1419 22.4419 29.6638 21.4003 28.7104 20.9241C22.2997 17.7225 26.5107 9.32 15.1715 9.32V9.31718C15.1541 9.31718 15.139 9.31848 15.1218 9.31859C15.1046 9.31859 15.0894 9.31718 15.072 9.31718V9.32C4.05545 9.32 7.96687 17.6859 1.57926 20.9032C0.610891 21.3909 0.129913 22.4542 0.483391 23.4416C1.61328 26.5972 6.18556 32.5519 15.072 32.5519V32.5541C15.0891 32.5541 15.1048 32.553 15.1218 32.5529C15.1388 32.5529 15.1544 32.5541 15.1715 32.5541V32.5519C24.2798 32.5519 28.7707 26.5689 29.8172 23.4192Z" fill="#5FCEF9"/>
<path d="M15.1715 30.3724V30.3748C15.1544 30.3748 15.1388 30.3736 15.1218 30.3736C15.1048 30.3736 15.0892 30.3748 15.072 30.3748V30.3724C6.55447 30.3724 2.00262 24.6292 0.644253 21.2343C0.355557 21.7559 0.278382 22.3834 0.483382 22.9848C1.61327 26.2985 6.18555 32.5517 15.072 32.5517V32.5541C15.0891 32.5541 15.1048 32.5529 15.1218 32.5529C15.1389 32.5529 15.1544 32.5541 15.1715 32.5541V32.5517C24.2798 32.5517 28.7707 26.2689 29.8172 22.9614C30.0027 22.3749 29.9253 21.7668 29.6477 21.2598C28.3441 24.6577 23.8597 30.3724 15.1715 30.3724Z" fill="#5FCEF9"/>
<path d="M11.0833 21.1762C10.8807 21.1762 10.7166 21.0121 10.7166 20.8095C10.7166 19.8341 9.92308 19.0407 8.94775 19.0407C7.97232 19.0407 7.17873 19.8341 7.17873 20.8095C7.17873 21.0121 7.0146 21.1762 6.81199 21.1762C6.60938 21.1762 6.44525 21.0121 6.44525 20.8095C6.44525 19.4297 7.56786 18.3072 8.94764 18.3072C10.3274 18.3072 11.4499 19.4297 11.4499 20.8095C11.45 21.0121 11.2859 21.1762 11.0833 21.1762Z" fill="#5FCEF9"/>
<path d="M23.5157 21.1762C23.3131 21.1762 23.149 21.0121 23.149 20.8095C23.149 19.8341 22.3555 19.0407 21.3802 19.0407C20.4048 19.0407 19.6113 19.8341 19.6113 20.8095C19.6113 21.0121 19.4472 21.1762 19.2445 21.1762C19.0419 21.1762 18.8778 21.0121 18.8778 20.8095C18.8778 19.4297 20.0004 18.3072 21.3802 18.3072C22.76 18.3072 23.8825 19.4297 23.8825 20.8095C23.8826 21.0121 23.7184 21.1762 23.5157 21.1762Z" fill="#5FCEF9"/>
<path d="M9.18134 31.9314C9.14003 31.9314 9.09829 31.9244 9.05721 31.9097C3.68264 29.9757 0.921994 25.7546 0.138081 23.5653C-0.274419 22.4131 0.26232 21.1558 1.41427 20.5756C3.86938 19.339 4.70938 17.3496 5.59862 15.2434C6.88047 12.2072 8.20514 9.06957 14.7053 8.95642V8.95327L15.0721 8.95044L15.1131 8.95153L15.5383 8.95044V8.95631C22.2485 9.06696 23.53 12.2304 24.77 15.2915C25.62 17.3899 26.4229 19.3718 28.8744 20.5961C30.0013 21.1587 30.5441 22.3947 30.1652 23.5349C29.4449 25.7033 26.7927 29.8973 21.4224 31.8614C21.2325 31.9306 21.0215 31.8332 20.9521 31.643C20.8825 31.4528 20.9802 31.2422 21.1705 31.1726C26.2785 29.3046 28.7903 25.3474 29.4693 23.3036C29.732 22.5132 29.3441 21.6504 28.5469 21.2523C25.8473 19.9041 24.9541 17.6993 24.0903 15.5669C22.8651 12.5429 21.708 9.68674 15.1714 9.68674H15.072C8.74079 9.68674 7.54275 12.5244 6.27438 15.5287C5.37253 17.6644 4.44025 19.8728 1.74416 21.2308C0.927862 21.642 0.542754 22.5197 0.828514 23.3182C1.56916 25.3864 4.18797 29.3781 9.30547 31.2195C9.49612 31.2882 9.59492 31.4983 9.52644 31.6887C9.47264 31.8383 9.33166 31.9314 9.18134 31.9314Z" fill="#5FCEF9"/>
<path d="M13.3998 10.1966C12.0672 9.34793 11.4853 7.49184 12.095 6.03424C12.459 6.75576 12.984 6.96282 13.6897 7.35695C13.0308 5.78641 13.5514 3.80402 14.897 2.75989C14.8833 3.4876 15.3259 4.23021 15.7675 4.80891C16.0793 5.21739 16.4838 5.54739 16.8001 5.95228C17.6915 7.09326 17.74 8.81891 16.9143 10.0083L13.3998 10.1966Z" fill="#5FCEF9"/>
<path d="M13.3994 10.5634C13.332 10.5634 13.2637 10.5449 13.2027 10.506C11.708 9.55402 11.0727 7.52761 11.7567 5.89282L12.0639 5.15826L12.4224 5.86913C12.5962 6.21369 12.812 6.41706 13.0946 6.60011C12.8455 5.07869 13.4446 3.42261 14.6721 2.47022L15.2781 2L15.2635 2.76685C15.254 3.27033 15.5218 3.8825 16.0589 4.58641C16.2051 4.77804 16.3764 4.95359 16.5577 5.13946C16.7371 5.32315 16.9223 5.51315 17.0892 5.72652C18.0844 7.00054 18.1376 8.88924 17.2155 10.2174C17.1 10.3836 16.8714 10.4249 16.7051 10.3095C16.5387 10.194 16.4975 9.96554 16.6131 9.79913C17.3445 8.74554 17.3007 7.1888 16.5111 6.17804C16.3693 5.99641 16.2059 5.82902 16.0328 5.65163C15.8442 5.45837 15.6492 5.25837 15.4759 5.0313C15.0583 4.48424 14.7813 3.98076 14.6403 3.50946C13.7861 4.5075 13.5158 5.99467 14.0278 7.215L14.4393 8.19554L13.5109 7.67706C13.4212 7.62706 13.3346 7.58 13.2509 7.53467C12.8796 7.33337 12.5399 7.14924 12.2473 6.86348C12.0896 8.01043 12.6159 9.2625 13.5968 9.88728C13.7676 9.99598 13.818 10.2227 13.709 10.3936C13.6393 10.5034 13.5206 10.5634 13.3994 10.5634Z" fill="#5FCEF9"/>
<path d="M7.96048 16.7418C7.53374 15.9378 10.0527 14.7949 10.4679 15.5773C10.8831 16.3597 8.3757 17.5242 7.96048 16.7418Z" fill="#5FCEF9"/>
<path d="M8.53005 17.3678C8.51026 17.3678 8.49059 17.3675 8.47113 17.3669C7.94418 17.3479 7.722 17.075 7.63657 16.9138C7.35972 16.3922 7.72374 15.767 8.56396 15.3211C9.41037 14.8717 10.4472 14.7565 10.7918 15.4053C10.9297 15.6651 10.907 15.9657 10.728 16.2519C10.3611 16.8381 9.30896 17.3678 8.53005 17.3678ZM8.28439 16.57C8.30265 16.6042 8.3882 16.6299 8.49733 16.6339C9.00559 16.6482 9.86918 16.2414 10.1062 15.8627C10.1116 15.8541 10.1587 15.7773 10.144 15.7492C10.0885 15.6453 9.56472 15.6204 8.90776 15.969C8.432 16.2215 8.24635 16.4985 8.2845 16.5701L8.28439 16.57Z" fill="#5FCEF9"/>
<path d="M22.3256 16.7418C22.7523 15.9378 20.2334 14.7949 19.8182 15.5773C19.403 16.3597 21.9104 17.5242 22.3256 16.7418Z" fill="#5FCEF9"/>
<path d="M21.7575 17.3695C21.3407 17.3695 20.8583 17.2186 20.436 16.9945C19.5899 16.5453 19.2202 15.9216 19.4942 15.4053C19.8385 14.7565 20.8759 14.8718 21.7221 15.3211C22.5624 15.7671 22.9265 16.3923 22.6496 16.9138L22.6495 16.9139C22.4771 17.2384 22.1458 17.3695 21.7575 17.3695ZM20.3935 15.6811C20.2534 15.6811 20.1632 15.7092 20.142 15.7491C20.1163 15.7978 20.259 16.0701 20.78 16.3466C21.4303 16.6917 21.9477 16.6711 22.0017 16.5699C22.0395 16.4984 21.8539 16.2214 21.3783 15.9689C20.9733 15.754 20.6188 15.6811 20.3935 15.6811Z" fill="#5FCEF9"/>
<path d="M18.223 25.8542L15.1218 25.1132L12.0206 25.8542C12.0206 25.8542 12.3479 30.4985 15.1218 30.4985C17.7877 30.4985 18.223 25.8542 18.223 25.8542Z" fill="#5FCEF9"/>
<path d="M15.1217 30.8652C12.0415 30.8652 11.669 26.0836 11.6548 25.88L11.6328 25.5699L15.1218 24.7361L18.6177 25.5716L18.5881 25.8886C18.569 26.0917 18.0875 30.8652 15.1217 30.8652ZM12.42 26.1359C12.548 27.121 13.1049 30.1317 15.1217 30.1317C17.0556 30.1317 17.6675 27.1276 17.8167 26.1344L15.1217 25.4903L12.42 26.1359Z" fill="#5FCEF9"/>
<path d="M14.214 27.007C14.214 27.007 14.155 27.9026 15.0038 28.7438C15.1 28.8391 15.2548 28.841 15.3481 28.743C15.6154 28.4628 16.1033 27.8279 16.1033 26.9271L14.214 27.007Z" fill="#5FCEF9"/>
<path d="M22.5922 24.8539C22.7253 24.1732 21.3126 24.445 19.5245 23.8601C17.6352 23.2422 17.4551 21.0252 15.1245 21.0252C12.7938 21.0252 12.6137 23.2422 10.7245 23.8601C8.93634 24.445 7.83645 24.184 7.65688 24.8539C7.41145 25.7694 10.3983 26.7876 15.0821 26.7876C19.7658 26.7876 22.4132 25.7694 22.5922 24.8539Z" fill="#5FCEF9"/>
<path d="M15.082 27.1543C11.2909 27.1543 8.23341 26.4896 7.47417 25.5C7.24733 25.2045 7.25559 24.9339 7.30254 24.759C7.47091 24.1312 8.07765 24.0339 8.84602 23.9107C9.32124 23.8345 9.91276 23.7397 10.6105 23.5114C11.331 23.2758 11.7779 22.7679 12.2511 22.2302C12.8996 21.4934 13.6344 20.6584 15.1246 20.6584C16.6147 20.6584 17.3496 21.4935 17.9981 22.2302C18.4711 22.7679 18.9181 23.2758 19.6387 23.5114C20.3334 23.7387 20.9739 23.8318 21.4886 23.9065C22.1714 24.0058 22.6226 24.0713 22.8499 24.392C22.9238 24.4962 23.0014 24.6729 22.9523 24.9242C22.6953 26.2373 19.4589 27.1543 15.082 27.1543ZM15.1245 21.3918C13.9659 21.3918 13.4264 22.0049 12.8018 22.7148C12.3085 23.2752 11.7493 23.9105 10.8384 24.2086C10.0858 24.4548 9.46265 24.5547 8.962 24.6349C8.3183 24.738 8.05211 24.7953 8.01091 24.9489C8.00309 24.9784 8.03581 25.0271 8.05602 25.0535C8.46178 25.5821 10.7279 26.4209 15.082 26.4209C19.85 26.4209 22.0665 25.3802 22.2273 24.8045C22.0938 24.7357 21.7028 24.6789 21.3831 24.6324C20.8404 24.5536 20.1652 24.4554 19.4106 24.2086C18.4997 23.9107 17.9406 23.2752 17.4472 22.7148C16.8225 22.0049 16.2829 21.3918 15.1245 21.3918Z" fill="#5FCEF9"/>
<path d="M12.5693 24.2345C12.1897 23.9498 13.1385 22.9061 13.4232 23.2857C13.7078 23.6651 12.9488 24.519 12.5693 24.2345Z" fill="#5FCEF9"/>
<path d="M17.3823 24.2345C17.7619 23.9498 16.8131 22.9061 16.5284 23.2857C16.2437 23.6651 17.0028 24.519 17.3823 24.2345Z" fill="#5FCEF9"/>
<path d="M9.03134 28.2564C9.03134 28.2564 4.48971 32.1645 3.59178 38.13C2.69385 44.0955 7.31145 43.8783 7.31145 43.8783L11.4708 29.4059L9.03134 28.2564Z" fill="#FFCE43"/>
<path d="M8.9832 28.2603C8.9832 28.2603 1.6182 39.9917 7.24712 43.9373L10.7517 28.8455L8.9832 28.2603Z" fill="#EE9D2F"/>
<path d="M7.24625 44.2461C6.8693 44.2461 5.31636 44.1681 4.21191 42.9444C3.23625 41.8635 2.9056 40.2252 3.22918 38.0754C4.13691 32.0447 8.60256 28.1416 8.79212 27.9785L8.97255 27.8234L11.9095 29.207L7.59135 44.232L7.32885 44.2444C7.32048 44.2449 7.29201 44.2461 7.24625 44.2461ZM9.09756 28.6931C8.26908 29.4754 4.7219 33.0851 3.95451 38.1846C3.66516 40.1069 3.93494 41.5428 4.75635 42.4529C5.51505 43.2936 6.55983 43.4691 7.03733 43.5039L11.032 29.6045L9.09756 28.6931Z" fill="#111111"/>
<path d="M27.3912 28.2564C27.3912 28.2564 31.9329 32.1645 32.8308 38.13C33.7287 44.0955 29.1111 43.8783 29.1111 43.8783L24.9518 29.4059L27.3912 28.2564Z" fill="#FFCE43"/>
<path d="M27.4394 28.2603C27.4394 28.2603 34.8044 39.9917 29.1755 43.9373L25.6709 28.8455L27.4394 28.2603Z" fill="#EE9D2F"/>
<path d="M29.1763 44.2461C29.1306 44.2461 29.1021 44.2449 29.0938 44.2445L28.8313 44.2321L24.5132 29.2071L27.4501 27.8235L27.6306 27.9786C27.8201 28.1417 32.2858 32.0448 33.1935 38.0755C33.517 40.2253 33.1863 41.8636 32.2107 42.9447C31.1062 44.1679 29.5534 44.2461 29.1763 44.2461ZM25.3906 29.6046L29.3849 43.503C29.8648 43.4661 30.9176 43.287 31.6717 42.4471C32.4888 41.5364 32.7568 40.1025 32.4682 38.1846C31.7007 33.0852 28.1536 29.4754 27.3251 28.693L25.3906 29.6046Z" fill="#111111"/>
<path d="M23.7731 26.0749L18.2957 26.9852L12.5739 26.0749C12.5739 26.0749 4.17762 35.3373 6.91436 42.7472C9.47012 49.6672 17.2748 49.64 18.2957 49.6061C19.3167 49.6399 27.1214 49.6672 29.6771 42.7472C32.4139 35.3373 23.7731 26.0749 23.7731 26.0749Z" fill="#FFCE43"/>
<path d="M21.7487 46.8317C20.7439 47.0164 13.0295 48.1993 9.47686 41.7342C7.39621 37.9477 8.52729 33.1198 9.97925 29.5225C7.77784 32.8939 5.22501 38.173 6.91436 42.7472C9.47012 49.6672 17.2748 49.64 18.2957 49.6061C19.2969 49.6392 26.8183 49.6614 29.5195 43.1363C26.6601 46.1414 22.4769 46.7473 21.7487 46.8317Z" fill="#EE9D2F"/>
<path d="M18.5721 49.977C18.4445 49.977 18.3471 49.9748 18.2838 49.9726C17.386 50.0053 9.22514 50.0622 6.57036 42.8741C3.78873 35.3423 11.9534 26.2135 12.3023 25.8286L12.4357 25.6815L18.2946 26.6138L23.9071 25.6809L24.0412 25.8247C24.4003 26.2097 32.8044 35.3389 30.0213 42.8741C27.549 49.5683 20.3012 49.977 18.5721 49.977ZM18.2838 49.2397C19.1752 49.2669 26.8566 49.3259 29.3332 42.6201C31.7794 35.997 24.6959 27.6647 23.6352 26.4696L18.2972 27.3567L12.7166 26.4689C11.6773 27.6758 4.81492 36.0041 7.2584 42.6201C9.73482 49.3257 17.4153 49.2672 18.2838 49.2397Z" fill="#111111"/>
<path d="M32.8172 21.4192C33.1419 20.4419 32.6638 19.4003 31.7104 18.9241C25.2997 15.7225 29.5107 7.32 18.1715 7.32V7.31718C18.1541 7.31718 18.139 7.31848 18.1218 7.31859C18.1046 7.31859 18.0894 7.31718 18.072 7.31718V7.32C7.05545 7.32 10.9669 15.6859 4.57926 18.9032C3.61089 19.3909 3.12991 20.4542 3.48339 21.4416C4.61328 24.5972 9.18556 30.5519 18.072 30.5519V30.5541C18.0891 30.5541 18.1048 30.553 18.1218 30.5529C18.1388 30.5529 18.1544 30.5541 18.1715 30.5541V30.5519C27.2798 30.5519 31.7707 24.5689 32.8172 21.4192Z" fill="#FFCE43"/>
<path d="M32.8172 21.4192C33.1419 20.4419 32.6638 19.4003 31.7104 18.9241C25.2997 15.7225 29.5107 7.32 18.1715 7.32V7.31718C18.1541 7.31718 18.139 7.31848 18.1218 7.31859C18.1046 7.31859 18.0894 7.31718 18.072 7.31718V7.32C7.05545 7.32 10.9669 15.6859 4.57926 18.9032C3.61089 19.3909 3.12991 20.4542 3.48339 21.4416C4.61328 24.5972 9.18556 30.5519 18.072 30.5519V30.5541C18.0891 30.5541 18.1048 30.553 18.1218 30.5529C18.1388 30.5529 18.1544 30.5541 18.1715 30.5541V30.5519C27.2798 30.5519 31.7707 24.5689 32.8172 21.4192Z" fill="#FFCE43"/>
<path d="M18.1715 28.3724V28.3748C18.1544 28.3748 18.1388 28.3736 18.1218 28.3736C18.1048 28.3736 18.0892 28.3748 18.072 28.3748V28.3724C9.55447 28.3724 5.00262 22.6292 3.64425 19.2343C3.35556 19.7559 3.27838 20.3834 3.48338 20.9848C4.61327 24.2985 9.18555 30.5517 18.072 30.5517V30.5541C18.0891 30.5541 18.1048 30.5529 18.1218 30.5529C18.1389 30.5529 18.1544 30.5541 18.1715 30.5541V30.5517C27.2798 30.5517 31.7707 24.2689 32.8172 20.9614C33.0027 20.3749 32.9253 19.7668 32.6477 19.2598C31.3441 22.6577 26.8597 28.3724 18.1715 28.3724Z" fill="#EE9D2F"/>
<path d="M14.0833 19.1762C13.8807 19.1762 13.7166 19.0121 13.7166 18.8095C13.7166 17.8341 12.9231 17.0407 11.9478 17.0407C10.9723 17.0407 10.1787 17.8341 10.1787 18.8095C10.1787 19.0121 10.0146 19.1762 9.81199 19.1762C9.60938 19.1762 9.44525 19.0121 9.44525 18.8095C9.44525 17.4297 10.5679 16.3072 11.9476 16.3072C13.3274 16.3072 14.4499 17.4297 14.4499 18.8095C14.45 19.0121 14.2859 19.1762 14.0833 19.1762Z" fill="#111111"/>
<path d="M26.5157 19.1762C26.3131 19.1762 26.149 19.0121 26.149 18.8095C26.149 17.8341 25.3555 17.0407 24.3802 17.0407C23.4048 17.0407 22.6113 17.8341 22.6113 18.8095C22.6113 19.0121 22.4472 19.1762 22.2445 19.1762C22.0419 19.1762 21.8778 19.0121 21.8778 18.8095C21.8778 17.4297 23.0004 16.3072 24.3802 16.3072C25.76 16.3072 26.8825 17.4297 26.8825 18.8095C26.8826 19.0121 26.7184 19.1762 26.5157 19.1762Z" fill="#111111"/>
<path d="M12.1813 29.9314C12.14 29.9314 12.0983 29.9244 12.0572 29.9097C6.68264 27.9757 3.92199 23.7546 3.13808 21.5653C2.72558 20.4131 3.26232 19.1558 4.41427 18.5756C6.86938 17.339 7.70938 15.3496 8.59862 13.2434C9.88047 10.2072 11.2051 7.06957 17.7053 6.95642V6.95327L18.0721 6.95044L18.1131 6.95153L18.5383 6.95044V6.95631C25.2485 7.06696 26.53 10.2304 27.77 13.2915C28.62 15.3899 29.4229 17.3718 31.8744 18.5961C33.0013 19.1587 33.5441 20.3947 33.1652 21.5349C32.4449 23.7033 29.7927 27.8973 24.4224 29.8614C24.2325 29.9306 24.0215 29.8332 23.9521 29.643C23.8825 29.4528 23.9802 29.2422 24.1705 29.1726C29.2785 27.3046 31.7903 23.3474 32.4693 21.3036C32.732 20.5132 32.3441 19.6504 31.5469 19.2523C28.8473 17.9041 27.9541 15.6993 27.0903 13.5669C25.8651 10.5429 24.708 7.68674 18.1714 7.68674H18.072C11.7408 7.68674 10.5427 10.5244 9.27438 13.5287C8.37253 15.6644 7.44025 17.8728 4.74416 19.2308C3.92786 19.642 3.54275 20.5197 3.82851 21.3182C4.56916 23.3864 7.18797 27.3781 12.3055 29.2195C12.4961 29.2882 12.5949 29.4983 12.5264 29.6887C12.4726 29.8383 12.3317 29.9314 12.1813 29.9314Z" fill="#111111"/>
<path d="M16.3997 8.19663C15.0671 7.34793 14.4853 5.49184 15.095 4.03424C15.459 4.75576 15.984 4.96282 16.6896 5.35695C16.0307 3.78641 16.5514 1.80402 17.8969 0.759888C17.8832 1.4876 18.3258 2.23021 18.7675 2.80891C19.0792 3.21739 19.4838 3.54739 19.8001 3.95228C20.6915 5.09326 20.74 6.81891 19.9142 8.00826L16.3997 8.19663Z" fill="#FFCE43"/>
<path d="M16.3993 8.56337C16.3319 8.56337 16.2637 8.54489 16.2027 8.50597C14.7079 7.55402 14.0727 5.52761 14.7566 3.89282L15.0639 3.15826L15.4224 3.86913C15.5962 4.21369 15.8119 4.41706 16.0945 4.60011C15.8454 3.07869 16.4445 1.42261 17.672 0.470217L18.278 0L18.2634 0.766848C18.254 1.27033 18.5217 1.8825 19.0589 2.58641C19.2051 2.77804 19.3764 2.95359 19.5577 3.13946C19.737 3.32315 19.9222 3.51315 20.0891 3.72652C21.0843 5.00054 21.1376 6.88924 20.2154 8.21739C20.1 8.38358 19.8714 8.42489 19.7051 8.30945C19.5387 8.19402 19.4975 7.96554 19.613 7.79913C20.3444 6.74554 20.3006 5.1888 19.511 4.17804C19.3692 3.99641 19.2058 3.82902 19.0328 3.65163C18.8441 3.45837 18.6491 3.25837 18.4758 3.0313C18.0582 2.48424 17.7813 1.98076 17.6403 1.50946C16.786 2.5075 16.5157 3.99467 17.0278 5.215L17.4392 6.19554L16.5108 5.67706C16.4212 5.62706 16.3345 5.58 16.2508 5.53467C15.8795 5.33337 15.5399 5.14924 15.2472 4.86348C15.0895 6.01043 15.6158 7.2625 16.5967 7.88728C16.7676 7.99598 16.8179 8.22271 16.709 8.39358C16.6392 8.50337 16.5205 8.56337 16.3993 8.56337Z" fill="#111111"/>
<path d="M10.9605 14.7418C10.5337 13.9378 13.0527 12.7949 13.4679 13.5773C13.8831 14.3597 11.3757 15.5242 10.9605 14.7418Z" fill="#F39007"/>
<path d="M11.53 15.3678C11.5103 15.3678 11.4906 15.3675 11.4711 15.3669C10.9442 15.3479 10.722 15.075 10.6366 14.9138C10.3597 14.3922 10.7237 13.767 11.564 13.3211C12.4104 12.8717 13.4472 12.7565 13.7918 13.4053C13.9297 13.6651 13.907 13.9657 13.728 14.2519C13.3611 14.8381 12.309 15.3678 11.53 15.3678ZM11.2844 14.57C11.3027 14.6042 11.3882 14.6299 11.4973 14.6339C12.0056 14.6482 12.8692 14.2414 13.1062 13.8627C13.1116 13.8541 13.1587 13.7773 13.144 13.7492C13.0885 13.6453 12.5647 13.6204 11.9078 13.969C11.432 14.2215 11.2464 14.4985 11.2845 14.5701L11.2844 14.57Z" fill="#111111"/>
<path d="M25.3256 14.7418C25.7523 13.9378 23.2334 12.7949 22.8182 13.5773C22.403 14.3597 24.9104 15.5242 25.3256 14.7418Z" fill="#F39007"/>
<path d="M24.7575 15.3695C24.3407 15.3695 23.8583 15.2186 23.436 14.9945C22.5899 14.5453 22.2202 13.9216 22.4942 13.4053C22.8385 12.7565 23.8759 12.8718 24.7221 13.3211C25.5624 13.7671 25.9265 14.3923 25.6496 14.9138L25.6495 14.9139C25.4771 15.2384 25.1458 15.3695 24.7575 15.3695ZM23.3935 13.6811C23.2534 13.6811 23.1632 13.7092 23.142 13.7491C23.1163 13.7978 23.259 14.0701 23.78 14.3466C24.4303 14.6917 24.9477 14.6711 25.0017 14.5699C25.0395 14.4984 24.8539 14.2214 24.3783 13.9689C23.9733 13.754 23.6188 13.6811 23.3935 13.6811Z" fill="#111111"/>
<path d="M21.2229 23.8542L18.1217 23.1132L15.0205 23.8542C15.0205 23.8542 15.3478 28.4985 18.1217 28.4985C20.7877 28.4985 21.2229 23.8542 21.2229 23.8542Z" fill="#DB4A1D"/>
<path d="M18.1217 28.8652C15.0415 28.8652 14.669 24.0836 14.6548 23.88L14.6328 23.5699L18.1218 22.7361L21.6177 23.5716L21.5881 23.8886C21.569 24.0917 21.0875 28.8652 18.1217 28.8652ZM15.42 24.1359C15.548 25.121 16.1049 28.1317 18.1217 28.1317C20.0556 28.1317 20.6675 25.1276 20.8167 24.1344L18.1217 23.4903L15.42 24.1359Z" fill="#111111"/>
<path d="M17.214 25.007C17.214 25.007 17.155 25.9026 18.0038 26.7438C18.1 26.8391 18.2548 26.841 18.3481 26.743C18.6154 26.4628 19.1033 25.8279 19.1033 24.9271L17.214 25.007Z" fill="#892713"/>
<path d="M25.5922 22.8539C25.7253 22.1732 24.3126 22.445 22.5245 21.8601C20.6352 21.2422 20.4551 19.0252 18.1245 19.0252C15.7938 19.0252 15.6137 21.2422 13.7245 21.8601C11.9363 22.445 10.8364 22.184 10.6569 22.8539C10.4115 23.7694 13.3983 24.7876 18.0821 24.7876C22.7658 24.7876 25.4132 23.7694 25.5922 22.8539Z" fill="#F15A24"/>
<path d="M18.082 25.1543C14.2909 25.1543 11.2334 24.4896 10.4742 23.5C10.2473 23.2045 10.2556 22.9339 10.3025 22.759C10.4709 22.1312 11.0777 22.0339 11.846 21.9107C12.3212 21.8345 12.9128 21.7397 13.6105 21.5114C14.331 21.2758 14.7779 20.7679 15.2511 20.2302C15.8996 19.4934 16.6344 18.6584 18.1246 18.6584C19.6147 18.6584 20.3496 19.4935 20.9981 20.2302C21.4711 20.7679 21.9181 21.2758 22.6387 21.5114C23.3334 21.7387 23.9739 21.8318 24.4886 21.9065C25.1714 22.0058 25.6226 22.0713 25.8499 22.392C25.9238 22.4962 26.0014 22.6729 25.9523 22.9242C25.6953 24.2373 22.4589 25.1543 18.082 25.1543ZM18.1245 19.3918C16.9659 19.3918 16.4264 20.0049 15.8018 20.7148C15.3085 21.2752 14.7493 21.9105 13.8384 22.2086C13.0858 22.4548 12.4627 22.5547 11.962 22.6349C11.3183 22.738 11.0521 22.7953 11.0109 22.9489C11.0031 22.9784 11.0358 23.0271 11.056 23.0535C11.4618 23.5821 13.7279 24.4209 18.082 24.4209C22.85 24.4209 25.0665 23.3802 25.2273 22.8045C25.0938 22.7357 24.7028 22.6789 24.3831 22.6324C23.8404 22.5536 23.1652 22.4554 22.4106 22.2086C21.4997 21.9107 20.9406 21.2752 20.4472 20.7148C19.8225 20.0049 19.2829 19.3918 18.1245 19.3918Z" fill="#111111"/>
<path d="M15.5692 22.2345C15.1896 21.9498 16.1384 20.9061 16.4231 21.2857C16.7078 21.6651 15.9488 22.519 15.5692 22.2345Z" fill="#333333"/>
<path d="M20.3823 22.2345C20.7619 21.9498 19.8131 20.9061 19.5284 21.2857C19.2437 21.6651 20.0028 22.519 20.3823 22.2345Z" fill="#333333"/>
</svg>
