<svg width="44" height="44" viewBox="0 0 44 44" fill="none" xmlns="http://www.w3.org/2000/svg">
<g filter="url(#filter0_d_25_5891)">
<path d="M22.287 30.1819C17.0393 29.5845 13.2698 24.846 13.8675 19.5983C14.4648 14.3506 19.2033 10.5811 24.4507 11.1788C29.6984 11.7762 33.4679 16.5147 32.8705 21.762C32.2729 27.0097 27.5347 30.7792 22.287 30.1819ZM25.6313 0.810687C14.6576 -0.43895 4.74872 7.4441 3.49908 18.4177C2.24975 29.3914 10.1328 39.3003 21.1064 40.5499C32.0801 41.7996 41.989 33.9165 43.2386 22.9429C44.488 11.9689 36.6052 2.06002 25.6313 0.810687Z" fill="#FF451B"/>
<path d="M4.10669 26.0564C7.29974 23.3413 10.5713 21.5307 13.8068 20.6538C13.808 20.305 13.8268 19.9531 13.8674 19.5985C13.9174 19.1581 13.9992 18.7292 14.1056 18.3113C11.1635 16.744 8.3948 14.2675 5.90159 10.9365C4.64831 13.1806 3.80815 15.7041 3.4993 18.4177C3.19803 21.0618 3.43202 23.6423 4.10669 26.0564Z" fill="white"/>
<path d="M42.4933 14.8302C39.3463 17.5459 36.1205 19.3832 32.9259 20.3113C32.9438 20.7886 32.9262 21.273 32.8705 21.7622C32.8244 22.1665 32.7511 22.5608 32.6574 22.9463C35.5774 24.5845 38.3206 27.1274 40.786 30.5169C42.0677 28.2498 42.9255 25.6935 43.2386 22.9427C43.5595 20.1249 43.2743 17.3789 42.4933 14.8302Z" fill="white"/>
<path d="M17.719 1.49152C20.4032 4.66244 22.1977 7.91004 23.0703 11.1222C23.525 11.1085 23.9857 11.1258 24.4509 11.1786C24.7946 11.2177 25.1316 11.2758 25.462 11.3495C27.0547 8.39619 29.5683 5.61899 32.9413 3.12153C30.74 1.92039 28.2768 1.11175 25.6314 0.810475C22.8879 0.498293 20.2107 0.756526 17.719 1.49152Z" fill="white"/>
<path d="M23.4143 30.2414C23.0418 30.2427 22.6659 30.2251 22.2871 30.1817C21.7879 30.1251 21.3023 30.0302 20.8326 29.9017C19.221 32.8086 16.7172 35.5425 13.3729 38.002C15.6797 39.335 18.2902 40.2291 21.1065 40.5498C23.8271 40.8596 26.4815 40.6068 28.9557 39.886C26.2054 36.7142 24.3475 33.4621 23.4143 30.2414Z" fill="white"/>
<mask id="mask0_25_5891" style="mask-type:luminance" maskUnits="userSpaceOnUse" x="11" y="8" width="25" height="25">
<path d="M11.6848 8.9961H35.053V32.3643H11.6848V8.9961Z" fill="white"/>
</mask>
<g mask="url(#mask0_25_5891)">
<g opacity="0.479996">
<path d="M13.8673 19.5983C14.4647 14.3507 19.2032 10.5811 24.4509 11.1785C29.6983 11.7762 33.4681 16.5147 32.8704 21.7621C32.273 27.0098 27.5345 30.7793 22.2869 30.1819C17.0395 29.5842 13.2699 24.846 13.8673 19.5983ZM34.9769 22.0021C35.707 15.5912 31.1016 9.8022 24.6907 9.07236C18.2797 8.34221 12.491 12.9477 11.7609 19.3586C11.031 25.7695 15.6362 31.5582 22.0471 32.2881C28.4581 33.0182 34.2471 28.4131 34.9769 22.0021Z" fill="#D9D9D9"/>
</g>
</g>
<mask id="mask1_25_5891" style="mask-type:luminance" maskUnits="userSpaceOnUse" x="5" y="8" width="39" height="33">
<path d="M5.36823 8.91335H43.3689V40.6801H5.36823V8.91335Z" fill="white"/>
</mask>
<g mask="url(#mask1_25_5891)">
<g opacity="0.479996">
<path d="M39.5377 8.91332C41.1371 12.2088 41.8517 15.9826 41.4065 19.8915C40.1572 30.8652 30.2483 38.7482 19.2746 37.4986C13.4811 36.8391 8.54981 33.7651 5.36829 29.3958C8.25885 35.3518 14.0418 39.7454 21.1065 40.5498C32.0801 41.7994 41.989 33.9164 43.2387 22.9427C43.8285 17.7626 42.3824 12.8201 39.5377 8.91332Z" fill="#D9D9D9"/>
</g>
</g>
<mask id="mask2_25_5891" style="mask-type:luminance" maskUnits="userSpaceOnUse" x="5" y="2" width="16" height="14">
<path d="M5.82123 2.35511H20.4151V15.7489H5.82123V2.35511Z" fill="white"/>
</mask>
<g mask="url(#mask2_25_5891)">
<path d="M17.9075 2.65177C18.6864 2.33049 19.7472 2.12742 20.2325 2.81604C20.5646 3.28735 20.4104 3.97021 20.04 4.41211C19.6699 4.85432 19.1338 5.11588 18.6215 5.38048C14.4507 7.53484 10.8182 10.7221 8.14071 14.578C7.78337 15.0924 7.32874 15.7725 6.62133 15.7483C5.97938 15.7261 5.75813 15.3106 5.83663 14.7381C6.00303 13.519 7.11021 12.0533 7.77488 11.0479C9.33973 8.68203 11.3519 6.61223 13.673 4.98131C14.9936 4.05325 16.4147 3.26734 17.9075 2.65177Z" fill="#383838"/>
</g>
<mask id="mask3_25_5891" style="mask-type:luminance" maskUnits="userSpaceOnUse" x="22" y="1" width="9" height="5">
<path d="M22.3679 1.70043H30.918V5.42874H22.3679V1.70043Z" fill="white"/>
</mask>
<g mask="url(#mask3_25_5891)">
<path d="M23.0183 4.15837C23.4435 4.45055 23.9573 4.57936 24.461 4.6912C25.8752 5.0046 27.3095 5.22464 28.7494 5.38225C29.134 5.42437 29.5262 5.46196 29.9048 5.38164C30.2834 5.30132 30.6519 5.08431 30.8216 4.73636C31.0808 4.20414 30.7856 3.53522 30.3116 3.1803C29.8378 2.82538 29.2326 2.70839 28.65 2.6011C27.0721 2.31013 25.2166 1.6494 23.6084 1.70335C22.1915 1.75124 21.9796 3.36246 23.0183 4.15837Z" fill="#383838"/>
</g>
<mask id="mask4_25_5891" style="mask-type:luminance" maskUnits="userSpaceOnUse" x="23" y="28" width="13" height="7">
<path d="M23.9678 28.3399H35.0091V34.8296H23.9678V28.3399Z" fill="white"/>
</mask>
<g mask="url(#mask4_25_5891)">
<path d="M25.4034 33.0018C25.0085 33.1045 24.5924 33.2034 24.2874 33.4743C23.9822 33.7456 23.8434 34.2536 24.1074 34.5648C24.3332 34.8309 24.7336 34.8437 25.0818 34.8231C28.3425 34.6294 31.5273 33.3331 33.9966 31.1948C34.3397 30.8975 34.677 30.5747 34.8741 30.1658C35.3087 29.2626 34.6486 28.1133 33.562 28.3788C32.8631 28.5497 32.3478 29.566 31.7777 29.9903C29.8901 31.3945 27.6763 32.4117 25.4034 33.0018Z" fill="#383838"/>
</g>
</g>
<defs>
<filter id="filter0_d_25_5891" x="0.368896" y="0.680348" width="42.9999" height="42.9998" filterUnits="userSpaceOnUse" color-interpolation-filters="sRGB">
<feFlood flood-opacity="0" result="BackgroundImageFix"/>
<feColorMatrix in="SourceAlpha" type="matrix" values="0 0 0 0 0 0 0 0 0 0 0 0 0 0 0 0 0 0 127 0" result="hardAlpha"/>
<feOffset dx="-3" dy="3"/>
<feComposite in2="hardAlpha" operator="out"/>
<feColorMatrix type="matrix" values="0 0 0 0 0.372549 0 0 0 0 0.807843 0 0 0 0 0.976471 0 0 0 1 0"/>
<feBlend mode="normal" in2="BackgroundImageFix" result="effect1_dropShadow_25_5891"/>
<feBlend mode="normal" in="SourceGraphic" in2="effect1_dropShadow_25_5891" result="shape"/>
</filter>
</defs>
</svg>
