<svg width="43" height="42" viewBox="0 0 43 42" fill="none" xmlns="http://www.w3.org/2000/svg">
<path d="M18.9181 31.5015C13.6704 30.9041 9.90087 26.1656 10.4986 20.9179C11.096 15.6702 15.8345 11.9007 21.0818 12.4984C26.3295 13.0958 30.099 17.8343 29.5017 23.0817C28.904 28.3294 24.1658 32.0989 18.9181 31.5015ZM22.2624 2.13033C11.2887 0.880691 1.37982 8.76374 0.130186 19.7374C-1.11915 30.711 6.7639 40.6199 17.7375 41.8696C28.7112 43.1192 38.6201 35.2362 39.8697 24.2625C41.1191 13.2886 33.2363 3.37966 22.2624 2.13033Z" fill="#5FCEF9"/>
<path d="M0.737797 27.3761C3.93084 24.661 7.20239 22.8503 10.4379 21.9735C10.4391 21.6246 10.4579 21.2727 10.4985 20.9181C10.5485 20.4777 10.6303 20.0489 10.7367 19.6309C7.79462 18.0636 5.0259 15.5871 2.53269 12.2561C1.27942 14.5002 0.439255 17.0237 0.130407 19.7373C-0.170864 22.3814 0.0631208 24.9619 0.737797 27.3761Z" fill="#5FCEF9"/>
<path d="M39.1244 16.1498C35.9774 18.8655 32.7516 20.7029 29.5571 21.6309C29.5749 22.1083 29.5574 22.5926 29.5016 23.0818C29.4555 23.4861 29.3822 23.8804 29.2885 24.266C32.2085 25.9042 34.9517 28.4471 37.4171 31.8365C38.6988 29.5694 39.5566 27.0132 39.8697 24.2623C40.1906 21.4445 39.9054 18.6985 39.1244 16.1498Z" fill="#5FCEF9"/>
<path d="M14.3501 2.81115C17.0343 5.98207 18.8288 9.22967 19.7014 12.4418C20.1561 12.4282 20.6168 12.4454 21.082 12.4982C21.4257 12.5373 21.7628 12.5955 22.0931 12.6691C23.6859 9.71583 26.1994 6.93862 29.5725 4.44116C27.3711 3.24002 24.9079 2.43138 22.2625 2.13011C19.519 1.81793 16.8418 2.07616 14.3501 2.81115Z" fill="#5FCEF9"/>
<path d="M20.0454 31.5611C19.6729 31.5623 19.297 31.5447 18.9182 31.5014C18.419 31.4447 17.9334 31.3498 17.4637 31.2213C15.8521 34.1282 13.3483 36.8621 10.004 39.3217C12.3108 40.6547 14.9213 41.5488 17.7377 41.8694C20.4582 42.1792 23.1126 41.9264 25.5868 41.2057C22.8365 38.0339 20.9786 34.7817 20.0454 31.5611Z" fill="#5FCEF9"/>
<mask id="mask0_25_5891" style="mask-type:luminance" maskUnits="userSpaceOnUse" x="8" y="10" width="24" height="24">
<path d="M8.31592 10.3157H31.6841V33.6839H8.31592V10.3157Z" fill="white"/>
</mask>
<g mask="url(#mask0_25_5891)">
<g opacity="0.479996">
<path d="M10.4984 20.918C11.0958 15.6703 15.8343 11.9008 21.082 12.4982C26.3294 13.0959 30.0992 17.8344 29.5015 23.0817C28.9041 28.3294 24.1656 32.0989 18.918 31.5016C13.6706 30.9039 9.90105 26.1657 10.4984 20.918ZM31.608 23.3218C32.3381 16.9108 27.7327 11.1218 21.3218 10.392C14.9108 9.66186 9.12211 14.2673 8.39197 20.6782C7.66213 27.0892 12.2673 32.8779 18.6782 33.6077C25.0892 34.3379 30.8782 29.7327 31.608 23.3218Z" fill="#5FCEF9"/>
</g>
</g>
<mask id="mask1_25_5891" style="mask-type:luminance" maskUnits="userSpaceOnUse" x="1" y="10" width="39" height="32">
<path d="M1.99933 10.233H40V41.9998H1.99933V10.233Z" fill="white"/>
</mask>
<g mask="url(#mask1_25_5891)">
<g opacity="0.479996">
<path d="M36.1688 10.233C37.7682 13.5285 38.4828 17.3022 38.0376 21.2112C36.7883 32.1848 26.8794 40.0679 15.9057 38.8182C10.1122 38.1587 5.18092 35.0848 1.99939 30.7154C4.88995 36.6714 10.6729 41.065 17.7376 41.8694C28.7112 43.1191 38.6201 35.236 39.8698 24.2624C40.4596 19.0823 39.0136 14.1398 36.1688 10.233Z" fill="#5FCEF9"/>
</g>
</g>
<mask id="mask2_25_5891" style="mask-type:luminance" maskUnits="userSpaceOnUse" x="2" y="3" width="16" height="15">
<path d="M2.45233 3.67475H17.0462V17.0686H2.45233V3.67475Z" fill="white"/>
</mask>
<g mask="url(#mask2_25_5891)">
<path d="M14.5386 3.97141C15.3175 3.65014 16.3783 3.44707 16.8636 4.13569C17.1957 4.60699 17.0415 5.28985 16.6711 5.73175C16.301 6.17396 15.7649 6.43553 15.2526 6.70012C11.0818 8.85448 7.44931 12.0418 4.77182 15.8977C4.41448 16.412 3.95984 17.0921 3.25243 17.0679C2.61049 17.0458 2.38923 16.6302 2.46773 16.0577C2.63413 14.8387 3.74131 13.3729 4.40599 12.3676C5.97084 10.0017 7.98305 7.93188 10.3041 6.30096C11.6247 5.3729 13.0458 4.58699 14.5386 3.97141Z" fill="#5FCEF9"/>
</g>
<mask id="mask3_25_5891" style="mask-type:luminance" maskUnits="userSpaceOnUse" x="18" y="3" width="10" height="4">
<path d="M18.999 3.02008H27.5491V6.74838H18.999V3.02008Z" fill="white"/>
</mask>
<g mask="url(#mask3_25_5891)">
<path d="M19.6494 5.47801C20.0747 5.77019 20.5884 5.899 21.0921 6.01084C22.5063 6.32424 23.9406 6.54428 25.3805 6.70189C25.7652 6.74402 26.1574 6.7816 26.5359 6.70128C26.9145 6.62096 27.283 6.40395 27.4528 6.056C27.7119 5.52378 27.4167 4.85486 26.9427 4.49994C26.4689 4.14503 25.8637 4.02803 25.2811 3.92074C23.7032 3.62977 21.8477 2.96904 20.2395 3.02299C18.8226 3.07088 18.6107 4.6821 19.6494 5.47801Z" fill="#5FCEF9"/>
</g>
<mask id="mask4_25_5891" style="mask-type:luminance" maskUnits="userSpaceOnUse" x="20" y="29" width="12" height="8">
<path d="M20.5989 29.6595H31.6402V36.1492H20.5989V29.6595Z" fill="white"/>
</mask>
<g mask="url(#mask4_25_5891)">
<path d="M22.0345 34.3214C21.6396 34.4242 21.2235 34.523 20.9186 34.794C20.6133 35.0652 20.4745 35.5732 20.7385 35.8845C20.9643 36.1506 21.3647 36.1633 21.7129 36.1427C24.9736 35.949 28.1584 34.6527 30.6277 32.5144C30.9708 32.2171 31.3081 31.8943 31.5052 31.4854C31.9398 30.5822 31.2797 29.4329 30.1931 29.6984C29.4942 29.8694 28.9789 30.8856 28.4088 31.31C26.5212 32.7142 24.3074 33.7313 22.0345 34.3214Z" fill="#5FCEF9"/>
</g>
<path d="M21.9181 29.5015C16.6704 28.9041 12.9009 24.1656 13.4986 18.9179C14.096 13.6702 18.8345 9.90071 24.0818 10.4984C29.3295 11.0958 33.099 15.8343 32.5017 21.0817C31.904 26.3294 27.1658 30.0989 21.9181 29.5015ZM25.2624 0.130328C14.2887 -1.11931 4.37982 6.76374 3.13019 17.7374C1.88085 28.711 9.7639 38.6199 20.7375 39.8696C31.7112 41.1192 41.6201 33.2362 42.8697 22.2625C44.1191 11.2886 36.2363 1.37966 25.2624 0.130328Z" fill="#FF451B"/>
<path d="M3.7378 25.3761C6.93084 22.661 10.2024 20.8503 13.4379 19.9735C13.4391 19.6246 13.4579 19.2727 13.4985 18.9181C13.5485 18.4777 13.6303 18.0489 13.7367 17.6309C10.7946 16.0636 8.0259 13.5871 5.53269 10.2561C4.27942 12.5002 3.43925 15.0237 3.13041 17.7373C2.82914 20.3814 3.06312 22.9619 3.7378 25.3761Z" fill="white"/>
<path d="M42.1244 14.1498C38.9774 16.8655 35.7516 18.7029 32.5571 19.6309C32.5749 20.1083 32.5574 20.5926 32.5016 21.0818C32.4555 21.4861 32.3822 21.8804 32.2885 22.266C35.2085 23.9042 37.9517 26.4471 40.4171 29.8365C41.6988 27.5694 42.5566 25.0132 42.8697 22.2623C43.1906 19.4445 42.9054 16.6985 42.1244 14.1498Z" fill="white"/>
<path d="M17.3501 0.811151C20.0343 3.98207 21.8288 7.22967 22.7014 10.4418C23.1561 10.4282 23.6168 10.4454 24.082 10.4982C24.4257 10.5373 24.7628 10.5955 25.0931 10.6691C26.6859 7.71583 29.1994 4.93862 32.5725 2.44116C30.3711 1.24002 27.9079 0.431379 25.2625 0.130109C22.519 -0.182073 19.8418 0.0761593 17.3501 0.811151Z" fill="white"/>
<path d="M23.0454 29.5611C22.6729 29.5623 22.297 29.5447 21.9182 29.5014C21.419 29.4447 20.9334 29.3498 20.4637 29.2213C18.8521 32.1282 16.3483 34.8621 13.004 37.3217C15.3108 38.6547 17.9213 39.5488 20.7377 39.8694C23.4582 40.1792 26.1126 39.9264 28.5868 39.2057C25.8365 36.0339 23.9786 32.7817 23.0454 29.5611Z" fill="white"/>
<mask id="mask5_25_5891" style="mask-type:luminance" maskUnits="userSpaceOnUse" x="11" y="8" width="24" height="24">
<path d="M11.3159 8.31574H34.6841V31.6839H11.3159V8.31574Z" fill="white"/>
</mask>
<g mask="url(#mask5_25_5891)">
<g opacity="0.479996">
<path d="M13.4984 18.918C14.0958 13.6703 18.8343 9.90078 24.082 10.4982C29.3294 11.0959 33.0992 15.8344 32.5015 21.0817C31.9041 26.3294 27.1656 30.0989 21.918 29.5016C16.6706 28.9039 12.9011 24.1657 13.4984 18.918ZM34.608 21.3218C35.3381 14.9108 30.7327 9.12184 24.3218 8.392C17.9108 7.66186 12.1221 12.2673 11.392 18.6782C10.6621 25.0892 15.2673 30.8779 21.6782 31.6077C28.0892 32.3379 33.8782 27.7327 34.608 21.3218Z" fill="#D9D9D9"/>
</g>
</g>
<mask id="mask6_25_5891" style="mask-type:luminance" maskUnits="userSpaceOnUse" x="4" y="8" width="39" height="32">
<path d="M4.99933 8.23299H43V39.9998H4.99933V8.23299Z" fill="white"/>
</mask>
<g mask="url(#mask6_25_5891)">
<g opacity="0.479996">
<path d="M39.1688 8.23297C40.7682 11.5285 41.4828 15.3022 41.0376 19.2112C39.7883 30.1848 29.8794 38.0679 18.9057 36.8182C13.1122 36.1587 8.18092 33.0848 4.99939 28.7154C7.88995 34.6714 13.6729 39.065 20.7376 39.8694C31.7112 41.1191 41.6201 33.236 42.8698 22.2624C43.4596 17.0823 42.0136 12.1398 39.1688 8.23297Z" fill="#D9D9D9"/>
</g>
</g>
<mask id="mask7_25_5891" style="mask-type:luminance" maskUnits="userSpaceOnUse" x="5" y="1" width="16" height="15">
<path d="M5.45233 1.67475H20.0462V15.0686H5.45233V1.67475Z" fill="white"/>
</mask>
<g mask="url(#mask7_25_5891)">
<path d="M17.5386 1.97141C18.3175 1.65014 19.3783 1.44707 19.8636 2.13569C20.1957 2.60699 20.0415 3.28985 19.6711 3.73175C19.301 4.17396 18.7649 4.43553 18.2526 4.70012C14.0818 6.85448 10.4493 10.0418 7.77182 13.8977C7.41448 14.412 6.95984 15.0921 6.25243 15.0679C5.61049 15.0458 5.38923 14.6302 5.46773 14.0577C5.63413 12.8387 6.74131 11.3729 7.40599 10.3676C8.97084 8.00168 10.983 5.93188 13.3041 4.30096C14.6247 3.3729 16.0458 2.58699 17.5386 1.97141Z" fill="#383838"/>
</g>
<mask id="mask8_25_5891" style="mask-type:luminance" maskUnits="userSpaceOnUse" x="21" y="1" width="10" height="4">
<path d="M21.999 1.02008H30.5491V4.74838H21.999V1.02008Z" fill="white"/>
</mask>
<g mask="url(#mask8_25_5891)">
<path d="M22.6494 3.47801C23.0747 3.77019 23.5884 3.899 24.0921 4.01084C25.5063 4.32424 26.9406 4.54428 28.3805 4.70189C28.7652 4.74402 29.1574 4.7816 29.5359 4.70128C29.9145 4.62096 30.283 4.40395 30.4528 4.056C30.7119 3.52378 30.4167 2.85486 29.9427 2.49994C29.4689 2.14503 28.8637 2.02803 28.2811 1.92074C26.7032 1.62977 24.8477 0.96904 23.2395 1.02299C21.8226 1.07088 21.6107 2.6821 22.6494 3.47801Z" fill="#383838"/>
</g>
<mask id="mask9_25_5891" style="mask-type:luminance" maskUnits="userSpaceOnUse" x="23" y="27" width="12" height="8">
<path d="M23.5989 27.6595H34.6402V34.1492H23.5989V27.6595Z" fill="white"/>
</mask>
<g mask="url(#mask9_25_5891)">
<path d="M25.0345 32.3214C24.6396 32.4242 24.2235 32.523 23.9186 32.794C23.6133 33.0652 23.4745 33.5732 23.7385 33.8845C23.9643 34.1506 24.3647 34.1633 24.7129 34.1427C27.9736 33.949 31.1584 32.6527 33.6277 30.5144C33.9708 30.2171 34.3081 29.8943 34.5052 29.4854C34.9398 28.5822 34.2797 27.4329 33.1931 27.6984C32.4942 27.8694 31.9789 28.8856 31.4088 29.31C29.5212 30.7142 27.3074 31.7313 25.0345 32.3214Z" fill="#383838"/>
</g>
</svg>
