<svg width="419" height="323" viewBox="0 0 419 323" fill="none" xmlns="http://www.w3.org/2000/svg">
<path d="M184.355 0.498944C129.404 4.84298 124.421 54.8683 88.7569 70.9323C53.0931 86.9956 -15.2616 103.06 3.06523 222.302C21.3927 341.544 121.944 321.774 213.579 321.774C325.523 321.774 418.149 309.417 418.149 190.792C418.149 72.1678 337.411 108.002 299.766 79.5821C262.121 51.1611 254.691 -5.06177 184.355 0.498944Z" fill="#FFB58E"/>
<path d="M184.905 10.0128C131.178 14.1409 126.306 61.6812 91.4361 76.9472C56.5665 92.2123 -10.2663 107.478 7.65258 220.797C25.5714 334.115 123.884 315.326 213.479 315.326C322.93 315.326 413.494 303.584 413.494 190.852C413.494 78.1208 334.553 112.175 297.747 85.1666C260.94 58.1587 253.676 4.72829 184.905 10.0128Z" fill="white"/>
<path d="M185.817 18.3464C134.115 22.2358 129.426 67.0197 95.8714 81.4007C62.3165 95.7817 -1.99617 110.163 15.2468 216.912C32.4904 323.663 127.096 305.963 213.313 305.963C318.638 305.963 405.787 294.901 405.787 188.704C405.787 82.507 329.822 114.587 294.404 89.1444C258.985 63.7014 251.994 13.3686 185.817 18.3464Z" fill="#5FCEF9"/>
<path d="M186.428 26.1796C136.086 29.8984 131.521 72.7215 98.8483 86.4727C66.1759 100.224 3.55395 113.975 20.3442 216.051C37.1337 318.125 129.252 301.201 213.202 301.201C315.757 301.201 400.614 290.623 400.614 189.077C400.614 87.5305 326.647 118.206 292.16 93.8768C257.672 69.548 250.865 21.4193 186.428 26.1796Z" fill="#8EE0F8"/>
<path d="M364.724 225.822C364.274 218.717 363.46 211.654 362.887 204.564C362.316 197.479 361.9 190.376 361.609 183.266C366.767 183.466 371.928 183.707 377.096 183.836C380.117 183.912 383.139 183.926 386.16 183.912C386.535 197.839 386.912 211.765 387.289 225.692C379.767 225.733 372.246 225.776 364.724 225.822ZM364.135 243.832C363.612 251.146 362.641 258.398 362.108 265.71C361.97 267.62 361.856 269.535 361.764 271.452C354.616 272.195 347.449 272.737 340.268 273.086C338.179 273.187 336.089 273.27 333.998 273.346C333.452 259.644 332.647 245.959 332.213 232.249C332.156 230.443 332.117 228.635 332.068 226.828C335.527 226.815 338.986 226.81 342.444 226.796C349.698 226.767 356.952 226.744 364.207 226.72C364.517 232.42 364.545 238.111 364.135 243.832ZM299.312 273.693C299.406 272.054 299.499 270.415 299.591 268.777C300.128 259.241 300.611 249.701 301.042 240.158C301.242 235.746 301.428 231.333 301.604 226.919C311.582 226.898 321.558 226.864 331.535 226.829C331.952 242.015 332.787 257.169 333.419 272.343C333.433 272.683 333.445 273.025 333.459 273.365C322.08 273.766 310.696 273.812 299.312 273.693ZM298.722 273.687C288.428 273.574 278.134 273.333 267.843 273.105C267.916 257.722 267.969 242.339 268.049 226.958C279.035 226.952 290.022 226.944 301.009 226.921C300.932 228.852 300.859 230.783 300.777 232.714C300.383 242.068 299.938 251.419 299.445 260.766C299.217 265.074 298.963 269.379 298.722 273.687ZM267.562 188.541C264.906 188.498 262.252 188.439 259.599 188.357C252.639 188.141 245.681 187.899 238.722 187.646C238.745 182.692 238.81 177.737 238.957 172.785C239.248 163.03 239.817 153.293 240.351 143.554C241.441 143.422 242.531 143.289 243.622 143.158C251.84 142.169 260.059 141.344 268.292 140.797C268.224 143.55 268.158 146.304 268.104 149.058C267.845 162.216 267.68 175.378 267.562 188.541ZM267.319 226.267C257.873 226.281 248.428 226.278 238.982 226.279C238.908 219.22 238.837 212.162 238.776 205.104C238.727 199.492 238.694 193.88 238.717 188.268C242.318 188.41 245.918 188.545 249.519 188.694C255.528 188.942 261.541 189.155 267.554 189.254C267.444 201.591 267.377 213.929 267.319 226.267ZM267.116 267.009C267.103 269.035 267.086 271.061 267.072 273.088C265.655 273.057 264.238 273.025 262.822 272.996C255.036 272.83 247.25 272.682 239.464 272.529C239.321 257.337 239.148 242.145 238.989 226.955C248.431 226.961 257.873 226.965 267.315 226.959C267.252 240.31 267.199 253.66 267.116 267.009ZM207.02 271.924C207.092 271.015 207.167 270.106 207.237 269.196C208.058 258.446 208.695 247.665 208.806 236.865C208.84 233.549 208.814 230.235 208.756 226.921C218.603 226.94 228.45 226.948 238.297 226.955C238.415 238.769 238.548 250.582 238.659 262.395C238.691 265.768 238.723 269.141 238.754 272.514C228.176 272.306 217.598 272.11 207.02 271.924ZM206.364 271.914C197.23 271.754 188.095 271.597 178.96 271.456C179.368 256.587 179.779 241.719 180.195 226.85C189.49 226.879 198.783 226.901 208.078 226.919C208.094 227.806 208.111 228.692 208.121 229.58C208.242 240.385 207.803 251.181 207.087 261.948C206.867 265.272 206.621 268.594 206.364 271.914ZM178.43 271.448C169.664 271.313 160.898 271.187 152.133 271.069C151.985 256.292 151.572 241.515 151.091 226.766C158.581 226.787 166.071 226.809 173.56 226.834C175.599 226.841 177.639 226.843 179.678 226.849C179.265 241.716 178.851 256.582 178.43 271.448ZM118.659 270.665C118.7 255.976 119.283 241.32 120.19 226.67C130.332 226.706 140.473 226.736 150.614 226.765C151.074 241.528 151.423 256.292 151.551 271.061C140.587 270.914 129.623 270.784 118.659 270.665ZM118.097 270.659C114.117 270.615 110.136 270.561 106.156 270.522C103.089 270.491 100.023 270.458 96.9564 270.426C98.5518 257.056 99.942 243.644 100.159 230.123C100.177 228.943 100.174 227.765 100.177 226.587C106.668 226.618 113.159 226.645 119.649 226.668C118.746 241.31 118.114 255.961 118.097 270.659ZM96.4275 270.421C89.0092 270.343 81.5896 270.264 74.1706 270.196C74.3765 266.412 74.5837 262.627 74.7871 258.842C75.2807 249.632 75.5915 240.44 74.9962 231.224C74.8932 229.626 74.7711 228.03 74.6432 226.434C82.9791 226.495 91.3157 226.544 99.6523 226.584C99.5692 241.296 98.1381 255.875 96.4275 270.421ZM73.645 270.191C66.2733 270.125 58.9017 270.071 51.53 270.043C52.3261 255.457 53.0737 240.861 53.3627 226.246C60.2708 226.318 67.1788 226.379 74.0875 226.43C74.7557 234.98 74.9309 243.482 74.5671 252.084C74.3119 258.122 73.9813 264.157 73.645 270.191ZM31.3724 225.38C31.3443 222.08 31.3136 218.78 31.2701 215.482C31.1345 205.166 30.8916 194.854 30.5494 184.545C37.8118 184.601 45.0734 184.653 52.3351 184.699C52.7104 194.517 52.9675 204.342 52.9662 214.173C52.9656 217.96 52.9176 221.747 52.846 225.532C45.6886 225.473 38.5305 225.423 31.3724 225.38ZM29.8697 167.016C29.5154 159.303 28.9898 151.576 28.6189 143.844C35.862 143.168 43.1116 142.75 50.3668 142.541C50.622 148.101 50.8976 153.659 51.1745 159.216C51.5856 167.473 51.9866 175.734 52.3076 183.998C45.0478 183.96 37.7887 183.937 30.5296 183.925C30.3397 178.287 30.1293 172.65 29.8697 167.016ZM69.9649 142.428C69.9924 150.917 70.0947 159.406 70.3204 167.892C70.4643 173.3 70.6632 178.707 70.9126 184.11C64.8799 184.066 58.8467 184.033 52.8134 184.001C52.2711 170.171 51.4974 156.351 50.8522 142.525C57.2199 142.35 63.5914 142.333 69.9649 142.428ZM70.5225 118.976C70.5513 115.563 70.5884 112.149 70.6242 108.734C78.2561 108.326 85.8893 107.951 93.525 107.665C93.6254 107.661 93.7252 107.658 93.8249 107.655C93.5615 119.3 93.7386 130.929 94.27 142.54C93.0205 142.476 91.7717 142.411 90.5222 142.351C83.843 142.035 77.153 141.795 70.4599 141.686C70.4311 134.116 70.4598 126.546 70.5225 118.976ZM94.2898 107.64C103.581 107.306 112.869 107.266 122.147 107.722C122.686 119.92 123.153 132.124 123.346 144.332C113.83 143.698 104.313 143.063 94.7924 142.566C94.3538 133.508 94.1153 124.437 94.1741 115.336C94.1907 112.771 94.2342 110.205 94.2898 107.64ZM121.847 89.6337C121.623 84.4517 121.414 79.2673 121.204 74.0829C121.716 74.0861 122.228 74.0907 122.741 74.0923C130.939 74.1072 139.143 73.8905 147.334 73.4539C147.324 74.3333 147.312 75.2136 147.302 76.0922C147.188 87.2277 147.202 98.3648 147.309 109.5C145.534 109.293 143.759 109.086 141.983 108.882C135.535 108.143 129.093 107.595 122.644 107.255C122.376 101.379 122.1 95.505 121.847 89.6337ZM147.901 143.94C147.916 144.584 147.935 145.229 147.95 145.873C139.936 145.431 131.924 144.904 123.912 144.369C123.729 132.156 123.221 119.947 122.666 107.745C126.239 107.927 129.811 108.179 133.382 108.523C138.031 108.972 142.672 109.52 147.314 110.075C147.425 121.366 147.633 132.655 147.901 143.94ZM147.86 73.4288C148.036 73.4195 148.212 73.4132 148.388 73.403C156.989 72.9249 165.514 71.8773 174.07 70.7428C175.407 70.5651 176.747 70.4032 178.088 70.2639C178.093 72.5987 178.102 74.9326 178.119 77.2666C178.208 88.9764 178.54 100.661 178.995 112.341C168.587 111.948 158.234 110.773 147.875 109.565C147.786 101.177 147.745 92.7869 147.77 84.3961C147.78 80.7383 147.814 77.0828 147.86 73.4288ZM148.454 46.8075C158.399 46.8388 168.343 46.7379 178.277 46.5665C178.135 54.2593 178.074 61.9529 178.085 69.6442C170.403 70.3922 162.764 71.756 155.066 72.3608C152.668 72.5494 150.269 72.7027 147.869 72.8381C147.982 64.1547 148.181 55.4792 148.454 46.8075ZM178.742 46.5587C180.43 46.529 182.119 46.5031 183.807 46.4703C192.506 46.3013 201.21 46.0751 209.914 45.7739C209.758 52.9339 209.609 60.0939 209.441 67.2508C209.405 68.7562 209.37 70.2616 209.335 71.7677C208.218 71.6339 207.1 71.5126 205.984 71.364C197.585 70.2435 189.25 68.7601 180.778 69.404C180.031 69.4611 179.286 69.5331 178.54 69.6035C178.536 61.9201 178.601 54.2382 178.742 46.5587ZM225.02 73.885C230.483 74.2371 235.952 74.4194 241.421 74.4867C241.497 86.2082 241.376 97.9298 241.071 109.645C230.396 110.588 219.715 111.475 209.026 112.013C209.307 99.5291 209.588 87.0454 209.865 74.5618C209.88 73.8592 209.898 73.1558 209.914 72.4531C214.939 73.0548 219.971 73.5603 225.02 73.885ZM210.555 45.7528C220.625 45.3999 230.694 44.9414 240.755 44.328C241.037 51.9168 241.249 59.511 241.351 67.117C241.381 69.3406 241.399 71.5643 241.415 73.7872C238.182 73.7504 234.95 73.6823 231.719 73.5509C224.443 73.2536 217.175 72.6902 209.929 71.8389C210.127 63.1454 210.347 54.4503 210.555 45.7528ZM211.903 145.928C210.689 146.023 209.474 146.103 208.26 146.184C208.309 144.023 208.359 141.86 208.407 139.697C208.606 130.686 208.809 121.675 209.012 112.664C219.701 112.137 230.384 111.259 241.055 110.323C240.86 117.635 240.592 124.944 240.251 132.248C240.085 135.8 239.897 139.35 239.706 142.9C230.447 144.036 221.19 145.199 211.903 145.928ZM238.068 187.622C227.948 187.253 217.829 186.865 207.708 186.508C207.645 173.304 207.94 160.106 208.244 146.9C218.742 146.172 229.202 144.905 239.666 143.636C239.285 150.697 238.888 157.757 238.585 164.824C238.26 172.421 238.113 180.02 238.068 187.622ZM208.045 204.401C207.839 198.643 207.744 192.888 207.712 187.133C217.829 187.467 227.946 187.846 238.063 188.242C238.048 191.233 238.045 194.224 238.061 197.215C238.109 206.903 238.195 216.591 238.291 226.279C228.442 226.279 218.593 226.272 208.744 226.259C208.606 218.97 208.304 211.685 208.045 204.401ZM180.476 216.707C180.759 206.601 181.141 196.481 181.386 186.359C189.913 186.584 198.439 186.83 206.965 187.109C206.992 190.445 207.04 193.78 207.132 197.113C207.397 206.83 207.883 216.537 208.068 226.257C198.783 226.245 189.498 226.233 180.213 226.21C180.301 223.042 180.387 219.874 180.476 216.707ZM149.715 185.662C155.044 185.756 160.373 185.85 165.702 185.968C170.741 186.078 175.78 186.213 180.819 186.345C180.625 193.985 180.384 201.623 180.171 209.261C180.014 214.91 179.854 220.559 179.696 226.208C170.154 226.183 160.612 226.15 151.07 226.115C151.019 224.556 150.967 222.996 150.915 221.437C150.517 209.513 150.105 197.588 149.715 185.662ZM120.766 217.913C121.527 207.034 122.345 196.156 122.968 185.264C131.711 185.368 140.453 185.5 149.197 185.652C149.675 199.138 150.172 212.625 150.594 226.113C140.473 226.077 130.352 226.031 120.231 225.983C120.399 223.293 120.578 220.603 120.766 217.913ZM97.9923 185.018C106.125 185.086 114.258 185.163 122.389 185.258C121.914 193.781 121.322 202.299 120.713 210.819C120.352 215.874 120.008 220.927 119.694 225.981C113.19 225.95 106.685 225.923 100.181 225.889C100.181 212.224 99.1727 198.605 97.9923 185.018ZM72.5675 203.056C72.1154 196.987 71.7592 190.907 71.4702 184.824C80.1374 184.88 88.8046 184.942 97.4718 185.014C98.5563 197.544 99.504 210.09 99.644 222.697C99.6555 223.761 99.6574 224.824 99.6549 225.886C99.4624 225.885 99.2699 225.884 99.0781 225.883C90.9135 225.84 82.7489 225.778 74.5843 225.712C73.9621 218.154 73.1309 210.62 72.5675 203.056ZM95.712 164.864C96.2504 171.353 96.8477 177.839 97.4123 184.329C95.8751 184.315 94.3384 184.296 92.8012 184.283C85.6796 184.223 78.5579 184.166 71.4356 184.114C71.2988 181.169 71.1722 178.223 71.068 175.276C70.6811 164.334 70.511 153.385 70.4637 142.434C78.4057 142.561 86.3516 142.863 94.2994 143.264C94.6383 150.471 95.1147 157.671 95.712 164.864ZM122.426 184.605C114.261 184.501 106.097 184.409 97.9335 184.335C97.599 180.5 97.2531 176.668 96.9142 172.838C96.0432 162.994 95.3143 153.15 94.8251 143.289C104.335 143.774 113.848 144.392 123.359 145.015C123.368 145.631 123.386 146.248 123.393 146.864C123.551 159.477 123.118 172.048 122.426 184.605ZM180.413 143.138C180.478 144.415 180.538 145.692 180.594 146.969C177.472 146.951 174.349 146.907 171.227 146.832C163.662 146.652 156.102 146.317 148.546 145.905C148.25 133.986 148.011 122.066 147.88 110.143C155.815 111.094 163.75 112.059 171.713 112.589C174.149 112.751 176.585 112.865 179.02 112.956C179.417 123.017 179.902 133.073 180.413 143.138ZM180.372 112.399C180.045 112.389 179.718 112.369 179.391 112.357C179.034 103.137 178.781 93.9112 178.644 84.6825C178.572 79.8596 178.546 75.0375 178.54 70.217C181.348 69.9369 184.162 69.7717 186.982 69.8398C191.281 69.9447 195.562 70.5119 199.829 71.1277C202.992 71.5838 206.156 71.997 209.321 72.3812C209.01 85.6011 208.705 98.8217 208.398 112.042C199.063 112.499 189.722 112.687 180.372 112.399ZM181.046 176.072C180.991 179.273 180.917 182.473 180.837 185.673C179.182 185.63 177.528 185.583 175.873 185.544C167.147 185.341 158.42 185.172 149.694 185.018C149.275 172.204 148.883 159.389 148.562 146.573C153.16 146.824 157.755 147.049 162.35 147.23C168.439 147.468 174.531 147.622 180.624 147.663C181.033 157.128 181.209 166.586 181.046 176.072ZM181.098 146.974C180.641 137.212 180.026 127.461 179.603 117.695C179.535 116.121 179.477 114.546 179.415 112.971C189.073 113.322 198.73 113.158 208.383 112.695C208.23 119.259 208.079 125.822 207.924 132.386C207.816 137 207.69 141.616 207.566 146.234C198.752 146.804 189.924 147.015 181.098 146.974ZM206.958 186.481C198.441 186.181 189.922 185.911 181.402 185.688C181.677 173.947 181.759 162.204 181.264 150.479C181.224 149.542 181.174 148.604 181.131 147.668C188.307 147.709 195.483 147.59 202.654 147.236C204.286 147.155 205.917 147.058 207.547 146.949C207.192 160.122 206.862 173.307 206.958 186.481ZM123.921 145.051C131.938 145.576 139.955 146.098 147.967 146.54C148.287 159.364 148.719 172.186 149.174 185.009C140.451 184.856 131.727 184.725 123.004 184.613C123.579 174.421 123.979 164.219 123.987 153.993C123.991 151.012 123.963 148.032 123.921 145.051ZM52.8409 184.702C58.8761 184.741 64.9119 184.782 70.9471 184.821C71.1268 188.636 71.3282 192.45 71.5699 196.261C72.157 205.504 73.0573 214.696 73.8822 223.91C73.9353 224.509 73.9801 225.109 74.0287 225.707C67.1436 225.652 60.2592 225.592 53.3742 225.536C53.4036 223.985 53.435 222.434 53.4529 220.884C53.5929 208.808 53.3064 196.751 52.8409 184.702ZM241.72 110.265C244.632 110.008 247.545 109.749 250.455 109.492C256.795 108.932 263.131 108.409 269.466 107.963C268.95 118.659 268.577 129.365 268.308 140.074C263.237 140.371 258.167 140.779 253.096 141.328C248.858 141.786 244.624 142.297 240.391 142.816C240.438 141.943 240.488 141.07 240.534 140.197C241.067 130.228 241.458 120.249 241.72 110.265ZM270.06 107.921C281.043 107.156 292.023 106.639 303.013 106.587C303.068 117.58 303.078 128.573 303.023 139.567C291.666 139.328 280.314 139.397 268.963 140.038C269.219 129.327 269.568 118.62 270.06 107.921ZM302.867 187.645C312.267 186.466 321.627 184.838 331.045 183.787C331.01 197.866 331.14 211.946 331.512 226.018C321.552 226.073 311.592 226.122 301.632 226.164C302.139 213.329 302.551 200.489 302.867 187.645ZM268.285 188.553C268.401 172.617 268.569 156.679 268.945 140.75C274.242 140.408 279.546 140.181 284.862 140.108C290.915 140.025 296.968 140.091 303.02 140.243C302.957 152.155 302.819 164.068 302.57 175.983C302.493 179.675 302.402 183.368 302.31 187.059C301.77 187.124 301.23 187.191 300.69 187.252C289.918 188.464 279.099 188.709 268.285 188.553ZM290.655 188.839C294.547 188.599 298.424 188.195 302.294 187.717C301.969 200.538 301.547 213.355 301.04 226.167C290.044 226.213 279.048 226.251 268.053 226.267C268.072 222.458 268.093 218.648 268.117 214.839C268.172 206.316 268.219 197.792 268.28 189.266C275.741 189.377 283.201 189.3 290.655 188.839ZM303.605 140.258C311.124 140.455 318.641 140.787 326.154 141.166C327.981 141.258 329.807 141.355 331.634 141.448C331.327 154.121 331.116 166.794 331.052 179.472C331.046 180.659 331.05 181.845 331.047 183.032C321.64 184.095 312.283 185.833 302.882 186.991C303.261 171.417 303.505 155.839 303.605 140.258ZM303.61 106.583C311.892 106.557 320.182 106.798 328.484 107.41C329.856 107.511 331.23 107.619 332.603 107.731C332.307 116.107 332.08 124.488 331.85 132.858C331.779 135.46 331.717 138.063 331.653 140.666C322.3 140.192 312.953 139.783 303.608 139.578C303.635 135.275 303.654 130.973 303.659 126.671C303.667 119.976 303.648 113.279 303.61 106.583ZM360.647 142.961C360.456 154.448 360.479 165.94 360.836 177.421C360.888 179.072 360.948 180.723 361.014 182.374C354.38 182.097 347.746 181.915 341.109 182.211C337.916 182.353 334.733 182.628 331.555 182.978C331.59 169.141 331.78 155.303 332.078 141.472C341.601 141.958 351.124 142.455 360.647 142.961ZM361.957 199.677C362.48 207.061 363.274 214.407 363.873 221.78C363.983 223.13 364.073 224.477 364.154 225.825C353.451 225.889 342.749 225.954 332.046 226.015C331.672 211.926 331.523 197.83 331.553 183.735C341.394 182.675 351.215 182.87 361.047 183.245C361.271 188.728 361.569 194.207 361.957 199.677ZM361.145 142.987C369.136 143.412 377.127 143.838 385.119 144.268C385.36 153.712 385.599 163.156 385.854 172.599C385.949 176.104 386.044 179.608 386.138 183.113C384.803 183.12 383.468 183.127 382.132 183.117C375.277 183.069 368.424 182.688 361.571 182.397C361.569 182.372 361.568 182.347 361.567 182.322C361.052 169.221 360.958 156.1 361.145 142.987ZM396.063 225.648C393.329 225.662 390.594 225.674 387.859 225.688C387.759 221.999 387.659 218.31 387.557 214.622C387.277 204.385 386.986 194.148 386.703 183.911C391.315 183.883 395.925 183.766 400.536 183.591C400.528 183.317 400.52 183.043 400.512 182.771C395.902 182.953 391.293 183.079 386.681 183.112C386.323 170.172 385.97 157.233 385.601 144.294C388.262 144.437 390.921 144.579 393.581 144.721C393.466 144.437 393.348 144.158 393.23 143.878C390.679 143.745 388.129 143.612 385.578 143.479C385.536 142.005 385.496 140.531 385.454 139.058C385.369 136.078 385.278 133.097 385.192 130.117C385.042 129.929 384.893 129.74 384.743 129.555C384.787 131.31 384.828 133.064 384.873 134.817C384.947 137.696 385.023 140.575 385.097 143.453C377.117 143.037 369.137 142.62 361.157 142.203C361.178 140.852 361.198 139.501 361.224 138.15C361.383 129.938 361.694 121.737 362.037 113.539C361.865 113.471 361.693 113.402 361.521 113.336C361.257 119.821 361.041 126.31 360.867 132.792C360.783 135.919 360.716 139.048 360.661 142.177C352.323 141.742 343.985 141.307 335.646 140.871C334.462 140.809 333.278 140.749 332.094 140.689C332.109 139.981 332.121 139.273 332.137 138.565C332.369 128.297 332.722 118.033 333.037 107.766C337.597 108.14 342.164 108.562 346.735 108.982C344.625 108.509 342.501 108.078 340.374 107.673C339.041 107.558 337.709 107.441 336.377 107.329C335.27 107.236 334.165 107.15 333.059 107.063C333.066 106.831 333.072 106.6 333.079 106.367C332.938 106.343 332.797 106.319 332.656 106.295C332.647 106.54 332.637 106.784 332.629 107.029C322.96 106.276 313.291 105.776 303.604 105.752C303.592 103.736 303.574 101.721 303.557 99.7043C303.359 99.6308 303.161 99.5572 302.964 99.4821C302.978 101.571 302.997 103.659 303.008 105.749C301.25 105.748 299.491 105.76 297.732 105.792C288.511 105.964 279.299 106.491 270.094 107.177C270.233 104.207 270.378 101.238 270.539 98.2693C270.967 90.4036 271.491 82.5465 272.102 74.6987C271.946 74.5141 271.789 74.3286 271.633 74.1432C271.183 79.6272 270.779 85.1167 270.428 90.6117C270.076 96.1443 269.771 101.681 269.501 107.22C265.777 107.5 262.055 107.802 258.333 108.122C252.803 108.595 247.272 109.097 241.738 109.586C242.032 98.0855 242.15 86.5783 242.079 75.0703C242.078 74.8786 242.075 74.687 242.074 74.4953C251.809 74.597 261.548 74.2942 271.273 73.7152C271.08 73.4844 270.888 73.252 270.695 73.0212C261.16 73.5885 251.613 73.8873 242.068 73.795C241.997 63.9685 241.822 54.1216 241.504 44.2795C242.744 44.2028 243.984 44.1144 245.224 44.0338C244.968 43.8061 244.709 43.5823 244.45 43.3578C243.46 43.4188 242.469 43.483 241.479 43.5409C241.449 42.634 241.413 41.7272 241.382 40.8204C241.117 40.6122 240.854 40.4026 240.586 40.1976C240.632 41.3266 240.686 42.4556 240.729 43.5855C235.79 43.8718 230.85 44.1246 225.913 44.3695C220.8 44.6237 215.686 44.8421 210.571 45.0416C210.713 39.092 210.84 33.1432 210.951 27.1936C210.753 27.1576 210.558 27.1185 210.358 27.0841C210.2 33.0775 210.059 39.0724 209.929 45.0666C199.539 45.4664 189.148 45.7591 178.754 45.9374C178.873 39.6319 179.038 33.327 179.238 27.0222C179.098 27.0449 178.961 27.0708 178.821 27.0934C178.584 33.374 178.407 39.6593 178.288 45.9461C168.895 46.1041 159.502 46.1737 150.109 46.1573C149.564 46.1565 149.018 46.1487 148.474 46.1464C148.535 44.2184 148.606 42.2898 148.674 40.3611C148.466 40.5254 148.259 40.6905 148.053 40.8564C147.991 42.6184 147.931 44.3804 147.878 46.1424C145.978 46.1354 144.078 46.108 142.179 46.0916C141.95 46.3138 141.721 46.536 141.495 46.7598C143.616 46.7817 145.737 46.7981 147.857 46.806C147.598 55.4964 147.443 64.1884 147.341 72.8647C141.535 73.1847 135.724 73.3741 129.915 73.4742C127.003 73.5251 124.091 73.5384 121.181 73.5204C121.132 72.3045 121.082 71.0878 121.033 69.8719C120.85 70.0691 120.667 70.2662 120.484 70.4619C120.529 71.4798 120.575 72.4985 120.621 73.5165C119.6 73.5079 118.58 73.4812 117.56 73.464C117.371 73.6503 117.184 73.838 116.993 74.0219C118.211 74.043 119.429 74.0704 120.646 74.0798C120.769 76.8629 120.896 79.6468 121.015 82.4299C121.367 90.6923 121.76 98.9571 122.126 107.225C115.541 106.889 108.948 106.772 102.335 106.899C99.6568 106.95 96.9788 107.033 94.3014 107.129C94.4459 100.747 94.7215 94.3705 95.1019 88.0031C94.9485 88.0641 94.7956 88.126 94.6415 88.187C94.2553 94.4988 93.9855 100.822 93.8358 107.145C86.0978 107.427 78.3616 107.858 70.628 108.315C70.6638 104.884 70.7022 101.454 70.7444 98.0236C70.5967 98.0933 70.449 98.1614 70.3006 98.2318C70.2533 101.602 70.2124 104.972 70.1734 108.342C66.1934 108.577 62.2141 108.816 58.2347 109.043C55.8706 109.176 53.5066 109.311 51.1425 109.445C50.9558 109.582 50.771 109.723 50.5849 109.861C57.1125 109.485 63.64 109.11 70.1682 108.759C70.1574 109.699 70.1465 110.64 70.135 111.579C70.0129 121.612 69.9349 131.647 69.9623 141.681C63.5806 141.583 57.1962 141.605 50.8177 141.794C50.3579 131.868 49.9672 121.937 49.7856 111.997C49.776 111.488 49.7728 110.979 49.7683 110.471C49.6187 110.585 49.4716 110.704 49.322 110.819C49.4774 121.157 49.8623 131.486 50.3323 141.809C43.0732 142.034 35.8218 142.487 28.5882 143.219C28.4674 140.633 28.3676 138.046 28.296 135.46C28.1323 135.764 27.9679 136.067 27.8074 136.375C27.8759 138.675 27.9622 140.973 28.0652 143.272C26.8694 143.396 25.6749 143.531 24.4803 143.67C24.3998 143.872 24.325 144.082 24.2457 144.286C25.5284 144.148 26.8105 144.016 28.0939 143.893C28.3484 149.479 28.6758 155.065 28.9585 160.658C29.3504 168.409 29.6702 176.165 29.9304 183.923C25.8034 183.917 21.6757 183.917 17.548 183.919C17.548 184.092 17.5461 184.264 17.5461 184.438C21.6821 184.474 25.8181 184.509 29.9535 184.541C30.4049 198.145 30.6588 211.76 30.7617 225.376C27.8912 225.358 25.0207 225.347 22.1502 225.333C22.1892 225.506 22.2339 225.67 22.2736 225.841C25.1045 225.886 27.9353 225.931 30.7662 225.971C30.825 234.176 30.8155 242.382 30.7694 250.587C30.9856 251.034 31.1979 251.486 31.4185 251.925C31.4607 243.274 31.4498 234.625 31.3788 225.979C38.5299 226.08 45.6822 226.167 52.8339 226.241C52.5467 240.696 51.812 255.135 51.0216 269.562C51.0133 269.721 51.0037 269.881 50.9948 270.041C48.5175 270.032 46.0409 270.044 43.5637 270.043C43.7517 270.256 43.948 270.456 44.1379 270.665C46.4099 270.698 48.6825 270.736 50.9545 270.766C50.84 272.852 50.7211 274.938 50.6047 277.024C50.7754 277.173 50.9526 277.312 51.1246 277.459C51.1463 277.06 51.1674 276.66 51.1892 276.26C51.2896 274.431 51.39 272.602 51.4904 270.773C58.8595 270.867 66.2286 270.952 73.5983 271.025C73.432 274.005 73.2651 276.984 73.1053 279.963C72.9134 283.528 72.7178 287.092 72.5221 290.656C72.6967 290.732 72.8757 290.801 73.0509 290.875C73.1129 289.715 73.1737 288.556 73.2364 287.397C73.5305 281.941 73.8279 276.486 74.1252 271.031C81.5269 271.105 88.9293 271.173 96.331 271.238C96.017 273.892 95.696 276.545 95.3712 279.198C94.6345 285.212 93.8979 291.24 93.2475 297.28C93.4157 297.318 93.5839 297.357 93.7521 297.395C94.1824 293.396 94.6486 289.403 95.1314 285.414C95.7024 280.693 96.292 275.97 96.8592 271.242C103.939 271.303 111.019 271.363 118.098 271.425C118.099 272.482 118.094 273.537 118.101 274.593C118.159 283.433 118.4 292.272 118.844 301.095C119.019 301.111 119.192 301.127 119.367 301.142C119.06 294.656 118.836 288.164 118.725 281.669C118.668 278.254 118.653 274.841 118.658 271.431C129.624 271.527 140.59 271.633 151.556 271.761C151.578 274.442 151.608 277.123 151.613 279.804C151.627 287.284 151.556 294.768 151.379 302.247C151.574 302.247 151.77 302.246 151.965 302.245C152.198 292.094 152.235 281.931 152.14 271.767C159.993 271.859 167.846 271.96 175.698 272.083C176.603 272.097 177.506 272.115 178.41 272.129C178.378 273.287 178.346 274.445 178.313 275.602C178.064 284.342 177.792 293.084 177.524 301.827C177.734 301.822 177.945 301.817 178.155 301.812C178.313 295.556 178.47 289.301 178.639 283.048C178.738 279.412 178.842 275.776 178.941 272.139C188.064 272.284 197.186 272.445 206.308 272.609C205.56 282.17 204.69 291.718 203.832 301.266C204.069 301.263 204.307 301.259 204.544 301.256C205.363 291.713 206.21 282.172 206.965 272.62C217.564 272.811 228.163 273.018 238.761 273.233C238.846 282.461 238.938 291.689 239.047 300.917C239.259 300.911 239.47 300.906 239.681 300.901C239.629 291.683 239.558 282.465 239.471 273.248C244.59 273.352 249.71 273.446 254.829 273.556C258.908 273.643 262.987 273.741 267.066 273.838C267.004 282.449 266.931 291.06 266.869 299.672C267.139 299.653 267.411 299.636 267.681 299.616C267.746 291.031 267.798 282.443 267.839 273.857C278.118 274.104 288.398 274.344 298.678 274.46C298.406 279.353 298.154 284.248 297.983 289.147C297.899 291.55 297.853 293.947 297.835 296.34C298.015 296.313 298.194 296.285 298.373 296.256C298.477 288.984 298.858 281.724 299.268 274.467C310.309 274.587 321.349 274.56 332.385 274.201C332.753 274.189 333.122 274.171 333.49 274.158C333.668 278.692 333.802 283.224 333.874 287.755C334.063 287.689 334.254 287.625 334.443 287.558C334.382 284.52 334.295 281.484 334.191 278.455C334.142 277.016 334.085 275.577 334.029 274.137C343.286 273.802 352.522 273.182 361.728 272.229C361.699 272.874 361.687 273.52 361.663 274.166C361.863 274.03 362.063 273.895 362.261 273.759C362.28 273.229 362.288 272.698 362.31 272.168C363.171 272.078 364.03 271.97 364.89 271.874C365.298 271.57 365.707 271.269 366.109 270.959C364.854 271.105 363.598 271.259 362.342 271.391C362.362 270.954 362.371 270.515 362.394 270.078C362.782 262.753 363.66 255.502 364.33 248.213C364.988 241.044 365.204 233.919 364.782 226.717C372.292 226.692 379.803 226.663 387.314 226.629C387.488 233.05 387.66 239.473 387.834 245.894C388.02 245.561 388.2 245.222 388.382 244.885C388.215 238.8 388.049 232.713 387.885 226.627C390.526 226.615 393.169 226.593 395.811 226.578C395.899 226.272 395.977 225.956 396.063 225.648Z" fill="#CBF1FA"/>
<path d="M133.226 98.7858C133.191 98.6027 133.122 98.4439 133.02 98.3077C132.94 98.1544 132.832 98.0339 132.698 97.9455C132.519 97.8187 132.326 97.7546 132.118 97.7538C131.827 97.7303 131.518 97.7499 131.245 97.8805C130.981 98.0073 130.726 98.1419 130.493 98.3414C130.323 98.4877 130.195 98.6473 130.113 98.8852C130.035 99.1113 130.003 99.3851 130.066 99.6254C130.116 99.8124 130.197 99.9814 130.305 100.127C130.448 100.316 130.748 100.485 130.962 100.459C131.127 100.44 131.292 100.448 131.457 100.47C131.546 100.488 131.636 100.505 131.727 100.512C131.781 100.516 131.833 100.522 131.885 100.527C132.065 100.572 132.245 100.574 132.424 100.515C132.515 100.468 132.607 100.421 132.698 100.373C132.871 100.248 133.008 100.081 133.111 99.8695C133.194 99.7075 133.24 99.5338 133.247 99.3468C133.281 99.1598 133.274 98.9728 133.226 98.7858Z" fill="white"/>
<path d="M138.683 102.226C138.545 102.19 138.398 102.179 138.258 102.156C138.213 102.149 138.166 102.137 138.121 102.135C138.046 102.131 137.952 102.162 137.876 102.176C137.854 102.181 137.833 102.185 137.811 102.19C137.728 102.207 137.646 102.224 137.563 102.241C137.318 102.291 137.082 102.605 137.03 102.895C137.026 102.914 137.022 102.935 137.018 102.955C136.966 103.068 136.966 103.218 137.018 103.331C137.022 103.352 137.026 103.372 137.03 103.392C137.082 103.681 137.318 103.996 137.563 104.046L137.798 104.094C137.898 104.115 138.034 104.158 138.121 104.151C138.163 104.147 138.204 104.139 138.244 104.133C138.356 104.115 138.468 104.096 138.579 104.078C138.69 104.06 138.794 104.029 138.892 103.958C139.002 103.879 139.103 103.752 139.169 103.619C139.235 103.488 139.287 103.298 139.281 103.144C139.266 102.723 139.032 102.317 138.683 102.226Z" fill="white"/>
<path d="M97.3932 120.368C97.1335 120.195 96.8784 120.029 96.5894 119.939C96.2607 119.836 95.9237 119.89 95.5893 119.912C95.0419 119.949 94.4613 120.058 93.9484 120.304C93.7732 120.388 93.6319 120.483 93.5136 120.67C93.4049 120.843 93.3262 121.067 93.3339 121.291C93.3409 121.473 93.3793 121.647 93.4484 121.808C93.5545 122.053 93.7483 122.182 93.9484 122.278C94.4613 122.525 95.0419 122.634 95.5893 122.67C95.9103 122.691 96.2485 122.752 96.5638 122.653C96.8611 122.559 97.1252 122.393 97.3932 122.215C97.9623 121.837 97.9623 120.746 97.3932 120.368Z" fill="white"/>
<path d="M43.1271 220.651C43.0517 220.507 42.9551 220.419 42.8477 220.342C42.7569 220.223 42.6539 220.117 42.5382 220.037C42.4065 219.946 42.2639 219.917 42.127 219.857C41.7516 219.676 41.313 219.694 40.9152 219.67C40.6236 219.654 40.2886 219.842 40.0859 220.091C39.8819 220.34 39.729 220.748 39.7418 221.106C39.7559 221.477 39.8557 221.862 40.0859 222.121C40.309 222.371 40.6032 222.559 40.9152 222.541C41.3117 222.518 41.7491 222.536 42.1238 222.356C42.2639 222.295 42.3949 222.276 42.5382 222.175C42.6475 222.097 42.7479 221.999 42.8355 221.888C42.9506 221.811 43.0536 221.714 43.1271 221.561C43.1828 221.444 43.2345 221.248 43.2345 221.106C43.2345 220.971 43.1834 220.757 43.1271 220.651Z" fill="white"/>
<path d="M62.2258 233.635C62.2028 233.627 62.1791 233.619 62.1561 233.612C62.0775 233.539 61.9879 233.485 61.8869 233.435C61.9406 233.463 61.9943 233.49 62.048 233.518C61.9208 233.453 61.8038 233.378 61.665 233.356C61.6203 233.349 61.5761 233.344 61.5314 233.339C61.4661 233.326 61.4003 233.313 61.3363 233.291C61.2954 233.277 61.2551 233.261 61.2155 233.244C61.1752 233.227 61.133 233.219 61.0914 233.21C61.0959 233.211 61.101 233.212 61.1055 233.212C61.0134 233.196 60.9232 233.172 60.8337 233.141C60.5453 233.039 60.1815 233.205 60.0382 233.537C59.9794 233.672 59.9474 233.819 59.9417 233.972C59.9346 234.168 60.0223 234.453 60.1482 234.582C60.2761 234.712 60.4085 234.842 60.5543 234.943C60.757 235.084 61.0025 235.114 61.2302 235.141C61.3421 235.155 61.4553 235.156 61.5672 235.144C61.7354 235.127 61.8856 235.076 62.0269 234.961C62.1676 234.847 62.2859 234.715 62.3505 234.531C62.3908 234.478 62.4349 234.428 62.4695 234.367C62.6229 234.097 62.4624 233.718 62.2258 233.635Z" fill="white"/>
<path d="M113.001 248.256C112.987 248.238 112.968 248.231 112.954 248.215C112.809 247.95 112.596 247.77 112.337 247.671C112.259 247.641 112.181 247.615 112.102 247.587C111.861 247.5 111.617 247.474 111.367 247.474H110.393C110.095 247.474 109.783 247.633 109.572 247.89C109.37 248.137 109.219 248.541 109.231 248.895C109.246 249.262 109.344 249.644 109.572 249.9C109.799 250.155 110.079 250.316 110.393 250.316H111.367C111.609 250.316 111.847 250.295 112.08 250.212C112.159 250.183 112.238 250.154 112.316 250.126C112.588 250.028 112.805 249.852 112.954 249.575C112.968 249.559 112.987 249.552 113.001 249.534C113.281 249.174 113.282 248.618 113.001 248.256Z" fill="white"/>
<path d="M125.896 244.691C125.894 244.669 125.892 244.646 125.889 244.623C125.876 244.588 125.864 244.553 125.851 244.518C125.848 244.511 125.844 244.506 125.841 244.5C125.825 244.471 125.809 244.443 125.792 244.414C125.729 244.305 125.666 244.197 125.603 244.088C125.564 244.007 125.511 243.944 125.446 243.896C125.378 243.848 125.304 243.823 125.225 243.823C125.109 243.83 125 243.877 124.916 243.98C124.874 244.028 124.844 244.086 124.826 244.152C124.798 244.215 124.785 244.284 124.788 244.358C124.788 244.454 124.809 244.545 124.848 244.628C124.887 244.708 124.939 244.773 125.005 244.82C125.094 244.897 125.183 244.974 125.271 245.051C125.293 245.071 125.316 245.089 125.337 245.109C125.404 245.167 125.487 245.187 125.568 245.186C125.608 245.186 125.649 245.186 125.689 245.185C125.804 245.183 125.9 245.067 125.901 244.925C125.901 244.877 125.902 244.829 125.902 244.781C125.903 244.749 125.9 244.726 125.896 244.691Z" fill="white"/>
<path d="M197.713 216.308C197.685 216.227 197.657 216.146 197.629 216.065C197.579 215.961 197.513 215.877 197.439 215.802C197.409 215.774 197.38 215.746 197.355 215.722C197.346 215.716 197.34 215.707 197.331 215.701L197.307 215.679C197.32 215.69 197.333 215.703 197.346 215.715C197.282 215.656 197.222 215.61 197.14 215.568C197.048 215.493 196.951 215.429 196.847 215.384C196.708 215.326 196.56 215.327 196.415 215.313C196.358 215.308 196.3 215.294 196.243 215.291C196.126 215.284 196.016 215.311 195.908 215.35C195.768 215.363 195.631 215.382 195.499 215.422C195.445 215.418 195.392 215.416 195.338 215.409C195.275 215.394 195.211 215.381 195.152 215.381C194.993 215.381 194.869 215.449 194.753 215.543C194.623 215.545 194.489 215.626 194.429 215.766C194.361 215.923 194.372 216.079 194.435 216.221C194.431 216.482 194.482 216.734 194.649 216.922C194.733 217.016 194.829 217.096 194.919 217.179C194.955 217.211 194.995 217.239 195.033 217.269C195.197 217.498 195.427 217.64 195.67 217.753C195.704 217.774 195.737 217.799 195.77 217.816C195.918 217.892 196.06 217.934 196.223 217.942C196.287 217.945 196.352 217.94 196.415 217.935C196.596 217.922 196.773 217.898 196.94 217.812C197.08 217.74 197.22 217.628 197.335 217.488C197.34 217.483 197.346 217.48 197.351 217.475C197.465 217.366 197.545 217.236 197.629 217.091C197.742 216.894 197.772 216.532 197.713 216.308Z" fill="white"/>
<path d="M232.003 257.969C232.003 257.776 231.954 257.594 231.881 257.425C231.861 257.379 231.829 257.347 231.803 257.307C231.748 257.179 231.683 257.058 231.597 256.953C231.45 256.775 231.278 256.651 231.079 256.583C231.012 256.558 230.945 256.532 230.878 256.506C230.717 256.445 230.552 256.424 230.385 256.405C230.249 256.39 230.112 256.378 229.976 256.364C229.795 256.356 229.627 256.402 229.471 256.503C229.308 256.568 229.167 256.678 229.048 256.834C228.921 256.98 228.83 257.152 228.777 257.351C228.695 257.542 228.658 257.748 228.664 257.969C228.68 258.111 228.695 258.253 228.711 258.395C228.774 258.668 228.886 258.903 229.048 259.104C229.293 259.378 229.632 259.608 229.976 259.574C230.112 259.56 230.249 259.548 230.385 259.533C230.552 259.514 230.717 259.493 230.878 259.432C230.945 259.406 231.012 259.381 231.079 259.355C231.278 259.287 231.45 259.164 231.597 258.985C231.684 258.879 231.749 258.758 231.804 258.629C231.828 258.592 231.857 258.562 231.877 258.52C231.954 258.359 232.003 258.157 232.003 257.969Z" fill="white"/>
<path d="M169.834 289.982C169.771 289.744 169.656 289.574 169.488 289.431C169.322 289.291 169.13 289.251 168.936 289.236C168.798 289.203 168.663 289.199 168.505 289.227C168.369 289.252 168.234 289.276 168.098 289.3C168.023 289.339 167.947 289.378 167.872 289.418C167.783 289.475 167.72 289.563 167.66 289.655C167.628 289.675 167.596 289.695 167.565 289.715C167.407 289.813 167.296 289.95 167.221 290.122C167.152 290.159 167.083 290.195 167.013 290.232C166.895 290.295 166.819 290.47 166.801 290.628C166.72 290.743 166.728 290.949 166.864 290.993C166.932 291.151 167.099 291.245 167.238 291.245C167.296 291.246 167.354 291.246 167.413 291.246C167.438 291.272 167.459 291.302 167.488 291.325C167.622 291.431 167.774 291.442 167.927 291.453C167.933 291.453 167.938 291.454 167.943 291.455C168.145 291.573 168.378 291.612 168.603 291.539C168.734 291.496 168.865 291.452 168.996 291.409C169.147 291.359 169.296 291.25 169.415 291.105C169.549 290.997 169.668 290.872 169.758 290.694C169.855 290.501 169.892 290.199 169.834 289.982Z" fill="white"/>
<path d="M294.309 172.705C294.139 172.699 293.97 172.693 293.8 172.687L293.568 172.68C293.392 172.673 293.247 172.699 293.066 172.73C292.91 172.757 292.752 172.777 292.599 172.823C292.527 172.845 292.455 172.867 292.383 172.888C292.218 172.938 292.08 173.022 291.962 173.138C291.938 173.147 291.913 173.156 291.888 173.165C291.589 173.274 291.333 173.636 291.347 174.034C291.363 174.438 291.567 174.787 291.888 174.903C291.913 174.913 291.936 174.921 291.961 174.93C292.075 175.043 292.207 175.128 292.361 175.174C292.44 175.197 292.52 175.222 292.599 175.246C292.752 175.292 292.91 175.311 293.066 175.338C293.227 175.366 293.382 175.395 293.545 175.39L293.8 175.381C293.97 175.375 294.139 175.37 294.309 175.363C294.593 175.354 294.875 175.222 295.077 174.974C295.266 174.744 295.408 174.366 295.396 174.034C295.369 173.298 294.919 172.725 294.309 172.705Z" fill="white"/>
<path d="M289.753 185.572C289.732 185.514 289.714 185.453 289.688 185.398C289.627 185.268 289.553 185.2 289.463 185.114C289.444 185.095 289.425 185.076 289.405 185.057C289.349 185.003 289.293 184.949 289.236 184.896C289.178 184.841 289.111 184.803 289.035 184.784C288.976 184.756 288.917 184.729 288.857 184.701C288.799 184.673 288.739 184.646 288.68 184.619C288.553 184.559 288.474 184.536 288.325 184.52C288.197 184.507 288.069 184.496 287.941 184.486C287.884 184.495 287.826 184.504 287.768 184.514C287.684 184.538 287.611 184.586 287.548 184.656C287.44 184.757 287.346 184.903 287.315 185.068C287.289 185.208 287.289 185.351 287.315 185.491C287.353 185.696 287.479 185.852 287.613 185.966C287.722 186.059 287.829 186.161 287.942 186.247C288.094 186.359 288.288 186.413 288.457 186.481C288.517 186.505 288.576 186.532 288.637 186.553C288.751 186.593 288.872 186.587 288.99 186.589C289.099 186.59 289.205 186.593 289.313 186.555C289.403 186.523 289.49 186.461 289.574 186.408C289.677 186.343 289.778 186.181 289.804 186.043C289.81 185.989 289.815 185.935 289.822 185.88C289.821 185.769 289.799 185.667 289.753 185.572Z" fill="white"/>
<path d="M373.96 209.249C373.957 209.121 373.93 209.001 373.878 208.889C373.86 208.819 373.836 208.753 373.807 208.689C373.742 208.585 373.676 208.481 373.61 208.376C373.569 208.335 373.526 208.297 373.484 208.257L373.232 208.018C373.063 207.812 372.862 207.669 372.632 207.59C372.39 207.51 372.149 207.51 371.908 207.59C371.799 207.646 371.691 207.702 371.582 207.757C371.378 207.906 371.215 208.105 371.094 208.355C370.995 208.547 370.941 208.753 370.933 208.975C370.892 209.196 370.9 209.418 370.957 209.639C371.083 210.197 371.45 210.65 371.908 210.803C372.013 210.837 372.118 210.872 372.223 210.908C372.273 210.924 372.322 210.941 372.372 210.957C372.484 210.994 372.599 211.014 372.717 211.015C372.829 210.997 372.94 210.978 373.052 210.96C373.057 210.959 373.061 210.958 373.066 210.958C373.163 210.908 373.259 210.857 373.356 210.808C373.405 210.785 373.456 210.758 373.512 210.717C373.657 210.613 373.796 210.444 373.881 210.265C373.969 210.081 374.016 209.854 374.016 209.642C374.016 209.503 373.995 209.373 373.96 209.249Z" fill="white"/>
<path d="M309.562 282.598C309.56 282.588 309.558 282.58 309.555 282.57C309.521 282.446 309.475 282.325 309.431 282.205C309.323 281.906 309.124 281.682 308.902 281.507C308.755 281.391 308.585 281.312 308.422 281.244C308.381 281.228 308.34 281.215 308.299 281.204C308.19 281.179 307.999 281.141 307.945 281.144C307.844 281.161 307.743 281.177 307.642 281.193C307.589 281.222 307.536 281.249 307.483 281.276C307.389 281.318 307.296 281.366 307.208 281.417C307.085 281.487 306.976 281.611 306.873 281.709C306.82 281.793 306.768 281.876 306.715 281.96C306.681 282.059 306.646 282.157 306.613 282.257C306.6 282.366 306.588 282.477 306.577 282.586C306.571 282.757 306.6 282.917 306.664 283.064C306.688 283.17 306.732 283.261 306.794 283.339C306.84 283.432 306.9 283.506 306.976 283.561C307.04 283.638 307.114 283.692 307.2 283.721C307.306 283.789 307.42 283.818 307.54 283.822C307.588 283.852 307.64 283.872 307.692 283.883C307.74 283.892 307.785 283.912 307.831 283.929C307.89 283.968 307.95 284.002 308.014 284.03C308.015 284.031 308.017 284.032 308.019 284.034C308.11 284.098 308.152 284.134 308.296 284.182C308.423 284.225 308.484 284.217 308.573 284.228C308.587 284.23 308.601 284.232 308.615 284.235C308.748 284.241 308.872 284.207 308.986 284.133C309.068 284.106 309.139 284.055 309.199 283.982C309.305 283.898 309.387 283.788 309.448 283.65C309.486 283.549 309.533 283.435 309.559 283.328C309.56 283.321 309.562 283.315 309.564 283.308C309.578 283.258 309.603 283.009 309.603 282.956C309.603 282.883 309.579 282.668 309.562 282.598Z" fill="white"/>
<path d="M219.159 121.107C218.909 120.806 218.621 120.54 218.276 120.433C217.736 120.264 217.212 120.271 216.669 120.399C216.506 120.447 216.364 120.538 216.244 120.673C216.108 120.781 216.001 120.924 215.922 121.102C215.831 121.277 215.781 121.466 215.774 121.67C215.737 121.873 215.744 122.077 215.797 122.279C215.894 122.649 216.081 123.006 216.37 123.192C216.672 123.388 216.995 123.447 217.331 123.347C217.459 123.334 217.588 123.332 217.717 123.347C217.85 123.377 217.984 123.404 218.12 123.397C218.214 123.393 218.308 123.401 218.4 123.413C218.594 123.451 218.789 123.479 218.982 123.403C219.364 123.253 219.668 122.822 219.66 122.314C219.652 121.831 219.431 121.433 219.159 121.107Z" fill="white"/>
<path d="M231.352 91.0299C231.306 90.8241 231.182 90.6989 231.025 90.627C230.939 90.5213 230.843 90.4306 230.728 90.3711C230.626 90.3179 230.534 90.303 230.426 90.2842C230.287 90.2592 230.144 90.2146 230.004 90.217C229.856 90.2193 229.692 90.2717 229.544 90.3046C229.387 90.339 229.23 90.3734 229.073 90.4087C228.999 90.4251 228.923 90.4368 228.849 90.4579C228.653 90.5143 228.502 90.6363 228.373 90.7936C228.308 90.8374 228.242 90.8812 228.177 90.9258C227.879 91.1254 227.703 91.6292 227.81 92.0298C227.852 92.191 227.921 92.3366 228.015 92.4617C228.163 92.6581 228.374 92.7246 228.58 92.7481C228.61 92.7512 228.64 92.7544 228.669 92.7583C228.879 92.8631 229.103 92.8803 229.335 92.824C229.417 92.8044 229.498 92.7778 229.578 92.7544C229.733 92.7106 229.888 92.6667 230.043 92.6221C230.475 92.4985 231.038 92.1785 231.202 91.6277C231.211 91.6167 231.221 91.6058 231.23 91.5948C231.352 91.4532 231.396 91.2255 231.352 91.0299Z" fill="white"/>
<path d="M195.96 39.8462C195.795 39.6052 195.474 39.4933 195.246 39.3635C194.884 39.1561 194.521 39.0364 194.119 39.0278C193.832 39.0215 193.546 39.0145 193.26 39.0082C193.041 39.0035 192.837 38.9973 192.619 39.045C192.478 39.0755 192.338 39.1123 192.196 39.1459C191.833 39.2328 191.529 39.7453 191.545 40.192C191.562 40.6451 191.806 41.145 192.196 41.2382C192.338 41.2718 192.478 41.3086 192.619 41.3391C192.838 41.3868 193.04 41.3806 193.26 41.3759C193.546 41.3696 193.832 41.3626 194.119 41.3563C194.521 41.3469 194.885 41.2272 195.246 41.0206C195.474 40.89 195.795 40.7789 195.96 40.5379C196.108 40.3211 196.109 40.0645 195.96 39.8462Z" fill="white"/>
<path d="M275.284 133.308C275.203 133.179 275.081 133.057 274.946 133.023C274.91 133.014 274.876 132.998 274.841 132.985C274.82 132.97 274.797 132.958 274.775 132.94C274.715 132.889 274.649 132.856 274.582 132.825C274.542 132.801 274.504 132.771 274.467 132.741C274.445 132.717 274.424 132.692 274.405 132.665C274.401 132.658 274.398 132.652 274.394 132.645C274.291 132.42 274.089 132.236 273.887 132.168C273.683 132.099 273.413 132.131 273.232 132.273C273.051 132.415 272.892 132.629 272.842 132.893C272.793 133.16 272.803 133.458 272.927 133.695C273.025 133.88 273.14 134.067 273.281 134.209C273.425 134.353 273.568 134.491 273.739 134.581C273.851 134.641 273.965 134.706 274.084 134.743C274.273 134.803 274.458 134.781 274.644 134.724C274.802 134.677 274.97 134.597 275.102 134.475C275.191 134.393 275.277 134.312 275.334 134.191C275.409 134.037 275.431 133.859 275.412 133.684C275.396 133.541 275.356 133.422 275.284 133.308Z" fill="white"/>
<path d="M159.897 218.778C159.803 218.644 159.684 218.579 159.56 218.504C159.519 218.479 159.476 218.452 159.434 218.428C159.263 218.331 159.116 218.278 158.921 218.272C158.728 218.266 158.535 218.259 158.342 218.253C158.242 218.25 158.141 218.241 158.041 218.243C157.885 218.246 157.721 218.296 157.566 218.325C157.373 218.361 157.18 218.397 156.988 218.432C156.922 218.465 156.856 218.5 156.791 218.534C156.694 218.597 156.617 218.684 156.559 218.793C156.452 218.963 156.374 219.184 156.382 219.404C156.388 219.584 156.426 219.755 156.495 219.914C156.578 220.107 156.805 220.343 156.988 220.377C157.18 220.412 157.373 220.448 157.566 220.483C157.717 220.512 157.892 220.566 158.041 220.566C158.141 220.566 158.242 220.559 158.342 220.556C158.535 220.549 158.728 220.543 158.921 220.537C159.111 220.53 159.262 220.481 159.434 220.381C159.471 220.36 159.506 220.337 159.542 220.316C159.671 220.238 159.799 220.17 159.897 220.031C160.167 219.647 160.169 219.165 159.897 218.778Z" fill="white"/>
</svg>
