<svg width="174" height="170" viewBox="0 0 174 170" fill="none" xmlns="http://www.w3.org/2000/svg">
<path d="M165.963 96.5293C165.128 95.5159 164.335 94.3879 163.583 93.1666C161.324 89.4999 159.425 84.9812 157.835 80.1452C157.233 78.3172 156.681 76.4412 156.167 74.5519C155.367 71.6199 154.667 68.6519 154.057 65.7466C153.813 64.5906 153.584 63.4466 153.369 62.3172C151.095 50.3839 150.333 40.3999 150.333 40.3999C127.939 40.2426 99.888 9.06659 99.888 9.06659C83.248 18.4879 59.1907 19.8799 44.6107 19.7226C44.596 19.7226 44.5813 19.7213 44.5667 19.7213C43.2093 19.7066 41.9347 19.6786 40.756 19.6413C35.32 19.4733 31.9293 19.1319 31.9293 19.1319C29.532 47.0439 0.0013326 79.4426 0.0013326 79.4426C14.724 91.6786 18.2613 138.248 18.2613 138.248C40.656 138.407 68.7067 169.583 68.7067 169.583C94.068 155.221 136.665 159.517 136.665 159.517C139.063 131.605 168.595 99.2066 168.595 99.2066C167.673 98.4412 166.797 97.5426 165.963 96.5293Z" fill="#FFB58E"/>
<path d="M37.2968 10.0652L142.033 150.451C142.033 150.451 99.4354 146.156 74.0741 160.516C74.0741 160.516 46.0234 129.34 23.6288 129.183C23.6288 129.183 20.0914 82.6132 5.36877 70.3758C5.36877 70.3758 34.8994 37.9772 37.2968 10.0652Z" fill="#15A0D1"/>
<path d="M23.6291 129.182L89.5011 80.038L5.36774 70.3754C20.0904 82.6127 23.6291 129.182 23.6291 129.182Z" fill="white"/>
<path d="M89.5006 80.0376L74.074 160.515C99.4366 146.155 142.033 150.451 142.033 150.451L89.5006 80.0376Z" fill="white"/>
<path d="M142.033 150.451L37.2972 10.0653C37.2972 10.0653 79.8945 14.36 105.256 -1.20497e-06C105.256 -1.20497e-06 133.307 31.176 155.701 31.3333C155.701 31.3333 159.239 77.9027 173.961 90.14C173.961 90.14 144.431 122.539 142.033 150.451Z" fill="#15A0D1"/>
<path d="M155.701 31.3339L89.501 80.0379L173.961 90.1405C159.24 77.9032 155.701 31.3339 155.701 31.3339Z" fill="white"/>
<path d="M89.5006 80.0376L105.255 0.000238739C79.894 14.3602 37.2966 10.0656 37.2966 10.0656L89.5006 80.0376Z" fill="white"/>
</svg>
