<svg width="105" height="123" viewBox="0 0 105 123" fill="none" xmlns="http://www.w3.org/2000/svg">
<path d="M0.0196379 1.11741C1.70497 8.35741 4.81297 14.8187 9.5343 20.5881C12.0556 23.6681 14.8916 26.4814 17.8356 29.1534C19.0103 30.2187 20.2156 31.2507 21.421 32.2814C21.469 32.3387 21.5156 32.3974 21.5623 32.4534C21.8183 32.7587 22.081 33.0574 22.3383 33.3614C21.7063 33.0107 21.0703 32.6654 20.437 32.3121C18.157 31.0387 15.8796 29.7614 13.601 28.4854C9.55964 26.2214 5.5343 23.8547 1.09964 22.4387C0.151638 22.1347 -0.229695 23.3934 0.452971 23.9227C5.22897 27.6214 10.1543 31.1227 15.2276 34.4014C17.6876 35.9894 20.173 37.5427 22.709 39.0067C24.057 39.7841 25.4156 40.5441 26.7823 41.2894C27.7116 41.7974 28.8383 42.5787 29.9396 42.6161C30.0983 42.8361 30.2876 43.0387 30.5236 43.2187C30.6476 43.3147 30.8076 43.3467 30.973 43.3547C31.1716 43.5827 31.3703 43.8121 31.5703 44.0387C31.685 44.1694 31.805 44.2974 31.9196 44.4294C31.2103 44.1214 30.5076 43.8201 29.8343 43.5121C26.865 42.1507 23.869 40.8441 20.8516 39.5921C14.5943 36.9974 8.23564 34.6547 1.7983 32.5467C0.782304 32.2134 0.335638 33.5934 1.09564 34.1587C7.84364 39.1707 15.0223 43.5907 22.5303 47.3707C26.0876 49.1614 29.7476 50.7534 33.4543 52.2094C36.113 53.2547 38.8063 54.2854 41.5636 55.0614C42.6183 56.1961 43.6623 57.3414 44.7276 58.4681C43.6916 58.0921 42.6583 57.7134 41.621 57.3427C37.941 56.0294 34.2503 54.7414 30.5516 53.4787C23.2516 50.9854 15.9183 48.5921 8.5503 46.3107C7.73697 46.0587 6.96497 47.2027 7.6623 47.7947C14.265 53.4014 22.021 57.3547 30.0703 60.4507C34.2036 62.0401 38.4023 63.4494 42.5996 64.8587C44.9743 65.6561 47.341 66.4894 49.7303 67.2414C51.297 67.7347 52.917 68.2547 54.5556 68.5881C55.5236 69.5587 56.4863 70.5347 57.4623 71.4974C54.9903 70.5414 52.361 69.8481 49.9423 69.0907C45.6876 67.7601 41.401 66.5307 37.0876 65.4081C28.4556 63.1614 19.7036 61.4001 10.889 60.0427C9.81964 59.8787 9.26764 61.0854 10.141 61.7601C18.0796 67.8961 27.573 71.2534 37.2263 73.6107C42.5516 74.9107 47.9383 75.9307 53.301 77.0627C57.797 78.0121 62.2183 79.2374 66.673 80.3321C68.6143 82.1454 70.577 83.9334 72.5503 85.7107C72.669 85.9921 72.7796 86.2761 72.9023 86.5561C72.9116 86.5774 72.9263 86.5854 72.9356 86.6041C71.1863 85.9907 69.4303 85.3961 67.6583 84.8521C62.5476 83.2867 57.3716 81.9374 52.1636 80.7334C41.521 78.2747 30.7503 76.4214 19.9863 74.5854C18.9943 74.4161 18.3743 75.6294 19.2676 76.2361C28.1836 82.2961 38.589 85.6494 49.0596 87.8587C54.829 89.0774 60.6556 89.9934 66.4663 90.9827C71.569 91.8507 76.6503 92.8627 81.7516 93.7414C83.9903 95.6227 86.2556 97.4721 88.5423 99.2947C88.577 99.5561 88.613 99.8161 88.6476 100.077C88.649 100.099 88.661 100.111 88.665 100.131C84.929 98.9081 81.1063 97.8747 77.341 96.8894C71.7263 95.4201 66.0703 94.1054 60.3823 92.9467C49.2223 90.6734 37.9263 88.9627 26.581 87.9507C25.5103 87.8547 25.273 89.3187 26.0463 89.8401C35.4743 96.1921 47.389 97.4481 58.3583 99.0827C69.7396 100.779 81.1863 102.064 92.637 103.219C92.849 103.271 93.0596 103.331 93.2716 103.383C93.461 103.428 93.6196 103.401 93.757 103.347C94.7916 104.132 95.817 104.931 96.8623 105.703C98.0343 106.568 99.237 107.391 100.424 108.235C97.477 107.531 94.501 106.941 91.5436 106.395C85.8383 105.339 80.0863 104.531 74.317 103.924C62.6023 102.691 50.8503 102.245 39.0903 101.723C38.305 101.688 37.713 102.833 38.381 103.377C44.9463 108.724 53.365 110.121 61.5823 110.692C71.9223 111.409 82.3103 111.659 92.6663 112.096C97.3783 112.295 102.12 112.607 106.846 112.635C108.17 113.511 109.484 114.404 110.826 115.252C110.894 115.296 110.965 115.337 111.034 115.381C110.292 115.36 109.549 115.343 108.808 115.319C106.064 115.228 103.318 115.147 100.572 115.087C94.765 114.96 88.953 114.943 83.145 114.96C71.6316 114.996 60.117 115.243 48.6156 115.781C47.565 115.831 47.2676 117.341 48.3396 117.656C71.4236 124.419 95.945 123.181 119.614 120.551C121.518 121.655 123.478 122.709 125.594 123.26C126.94 123.611 128.218 121.833 127.062 120.805C125.55 119.464 123.84 118.489 122.106 117.496C125.31 96.7161 121.64 74.6641 113.844 55.2801C113.305 53.9414 111.308 54.3761 111.621 55.8641C112.713 61.0534 112.672 66.3321 112.593 71.6081C112.516 76.7907 112.645 81.9414 113.194 87.0974C114.213 96.6761 116.322 106.057 118.55 115.412C117.253 114.644 115.96 113.873 114.677 113.081C114.498 112.969 114.324 112.851 114.145 112.74C113.741 107.767 112.861 102.811 111.98 97.9067C111.018 92.5521 109.861 87.2161 108.465 81.9587C105.666 71.4134 101.654 61.5921 96.229 52.1361C95.7303 51.2681 94.1876 51.5654 94.2503 52.6467C94.845 62.8814 96.1556 73.2627 98.3343 83.2814C99.4183 88.2667 100.768 93.2027 102.505 98.0014C103.692 101.28 105.066 104.793 106.813 107.976C105.33 106.98 103.849 105.984 102.384 104.963C102.097 104.763 101.818 104.552 101.533 104.351C100.844 94.5267 98.7476 84.6867 96.1143 75.2467C93.1743 64.7107 89.237 54.5001 84.4876 44.6507C84.097 43.8414 82.7716 44.2121 82.7956 45.0881C82.941 50.2521 83.7356 55.4707 84.517 60.5721C85.3183 65.8121 86.4463 71.0041 87.7183 76.1481C88.993 81.2961 90.4196 86.4081 92.0423 91.4574C92.8823 94.0734 93.7356 96.7414 94.6943 99.3641C92.961 98.0601 91.265 96.7067 89.561 95.3654C89.0916 86.8161 87.3836 78.2054 85.1383 70.0161C82.461 60.2481 78.7716 50.7667 74.2623 41.6987C73.8676 40.9081 72.4543 41.2267 72.5343 42.1441C73.3063 50.9587 74.6476 59.6987 76.3863 68.3721C77.257 72.7161 78.241 77.0374 79.3356 81.3294C79.945 83.7187 80.537 86.1521 81.2063 88.5574C80.497 87.9587 79.769 87.3801 79.065 86.7747C78.3836 86.1881 77.7183 85.5867 77.0423 84.9947C76.853 81.4014 76.4423 77.8121 76.0236 74.2467C75.4823 69.6494 74.8543 65.0587 74.0036 60.5081C72.289 51.3227 69.4996 42.6721 65.913 34.0681C65.913 34.0667 65.913 34.0654 65.913 34.0654C65.8823 33.9907 65.8516 33.9147 65.821 33.8401C65.3796 32.7881 63.9503 33.5787 64.0983 34.5414C64.8156 39.1721 65.0943 43.6347 65.117 48.3214C65.137 52.6401 65.3063 56.9401 65.849 61.2281C66.593 67.1161 67.9436 72.8921 69.8156 78.5041C68.0716 76.8961 66.3676 75.2454 64.6516 73.6081C64.7076 70.3667 64.3276 67.0281 64.0996 63.8667C63.793 59.6427 63.393 55.4254 62.821 51.2281C61.6596 42.6987 59.5596 34.4907 56.541 26.4334C56.0876 25.2254 54.2236 25.6481 54.5583 26.9547C56.4716 34.4361 55.237 41.8121 55.0756 49.4001C54.9423 55.6454 56.3236 61.5281 58.2103 67.3561C57.3276 66.4827 56.457 65.5974 55.5796 64.7187C55.5716 63.6761 55.477 62.6267 55.4063 61.6001C55.2836 59.7801 55.1423 57.9574 54.937 56.1454C54.5076 52.3507 53.8823 48.5694 53.149 44.8227C52.421 41.1121 51.5583 37.4267 50.5623 33.7774C49.5103 29.9241 48.0623 26.2241 46.901 22.4121C46.5996 21.4227 45.1503 21.5894 45.101 22.6334C44.745 30.0574 45.785 37.7414 47.021 45.0507C47.6396 48.7041 48.381 52.3401 49.229 55.9467C49.4556 56.9134 49.669 57.9254 49.893 58.9507C48.8583 57.8881 47.837 56.8134 46.809 55.7454C46.929 53.5494 46.8663 51.3214 46.805 49.1614C46.7103 45.8454 46.4956 42.5387 46.0743 39.2481C45.229 32.6321 43.5356 26.1667 40.441 20.2334C39.9543 19.3001 38.609 19.7667 38.5503 20.7201C37.9143 31.2254 39.3503 41.9401 43.0316 51.8121C42.1596 50.8947 41.2983 49.9667 40.4303 49.0454C40.3996 46.4854 39.825 43.8387 39.401 41.3641C38.8716 38.2841 38.2596 35.2214 37.5476 32.1787C36.8356 29.1374 36.0436 26.1147 35.169 23.1161C34.269 20.0227 33.073 17.0081 32.205 13.9107C31.957 13.0214 30.6756 13.2041 30.6223 14.1054C30.4556 16.8801 30.8263 19.7907 31.1516 22.5494C31.493 25.4614 31.9943 28.3601 32.6023 31.2281C33.5863 35.8747 34.817 40.5321 36.5863 44.9561C35.9116 44.2294 35.2343 43.5027 34.557 42.7774C34.181 40.8094 33.7583 38.8481 33.373 36.8814C32.7343 33.6214 32.1023 30.3641 31.3023 27.1387C30.537 24.0561 29.633 21.0041 28.4356 18.0574C27.2356 15.1001 25.657 12.4601 23.9636 9.76942C23.501 9.03475 22.0943 9.22142 22.1783 10.2294C22.6716 16.0948 23.7796 21.9361 25.1996 27.6427C25.809 30.0894 26.4983 32.5161 27.237 34.9267C26.653 34.2974 26.0636 33.6734 25.4796 33.0427C25.0236 32.5481 24.577 32.0454 24.125 31.5467C22.5676 28.6627 21.549 25.6561 20.2876 22.6321C19.005 19.5601 17.257 16.7121 15.2556 14.0574C11.3596 8.89074 6.42764 4.10274 1.30497 0.153409C0.668971 -0.337258 -0.136362 0.448075 0.0196379 1.11741Z" fill="#56A262"/>
</svg>
