<svg width="123" height="114" viewBox="0 0 123 114" fill="none" xmlns="http://www.w3.org/2000/svg">
<path d="M57.6699 0.0227621C50.0926 1.88276 43.3486 5.22543 37.3539 10.2521C34.1526 12.9374 31.2339 15.9481 28.4672 19.0721C27.3632 20.3188 26.2952 21.5961 25.2285 22.8748C25.1699 22.9241 25.1085 22.9748 25.0499 23.0254C24.7339 23.2974 24.4232 23.5774 24.1059 23.8508C24.4659 23.1828 24.8206 22.5108 25.1846 21.8414C26.4926 19.4334 27.8045 17.0268 29.1165 14.6188C31.4405 10.3494 33.8752 6.09476 35.3059 1.42276C35.6112 0.424089 34.2859 0.0387625 33.7406 0.762763C29.9179 5.82143 26.3032 11.0348 22.9272 16.4014C21.2899 19.0014 19.6912 21.6308 18.1872 24.3108C17.3872 25.7348 16.6072 27.1708 15.8419 28.6134C15.3205 29.5961 14.5139 30.7881 14.4885 31.9454C14.2605 32.1134 14.0499 32.3148 13.8632 32.5641C13.7646 32.6961 13.7312 32.8641 13.7259 33.0374C13.4886 33.2494 13.2512 33.4614 13.0152 33.6734C12.8792 33.7961 12.7459 33.9228 12.6099 34.0454C12.9246 33.2974 13.2312 32.5561 13.5472 31.8454C14.9379 28.7108 16.2725 25.5508 17.5485 22.3681C20.1939 15.7681 22.5739 9.06543 24.7059 2.28276C25.0419 1.2121 23.5872 0.760092 23.0045 1.56543C17.8285 8.70943 13.2779 16.3001 9.40588 24.2268C7.56988 27.9828 5.94589 31.8454 4.46322 35.7534C3.39922 38.5561 2.35255 41.3961 1.57121 44.3001C0.393881 45.4214 -0.795448 46.5321 -1.96345 47.6628C-1.58211 46.5721 -1.19812 45.4814 -0.823449 44.3894C0.509885 40.5094 1.81522 36.6201 3.09522 32.7228C5.62055 25.0294 8.04055 17.3028 10.3432 9.5401C10.5979 8.6841 9.38721 7.88809 8.77521 8.62809C2.97255 15.6268 -1.07945 23.8174 -4.22878 32.3041C-5.84478 36.6628 -7.27145 41.0868 -8.69812 45.5094C-9.50612 48.0121 -10.3501 50.5068 -11.1101 53.0241C-11.6074 54.6734 -12.1341 56.3814 -12.4634 58.1054C-13.4701 59.1334 -14.4821 60.1561 -15.4808 61.1921C-14.5074 58.5854 -13.8141 55.8174 -13.0488 53.2694C-11.7048 48.7881 -10.4688 44.2734 -9.34345 39.7308C-7.09278 30.6441 -5.35412 21.4348 -4.04078 12.1668C-3.88078 11.0428 -5.15412 10.4788 -5.85145 11.4028C-12.1928 19.8121 -15.5968 29.8174 -17.9501 39.9788C-19.2488 45.5854 -20.2528 51.2508 -21.3741 56.8934C-22.3128 61.6254 -23.5448 66.2801 -24.6381 70.9708C-26.5168 73.0294 -28.3688 75.1121 -30.2101 77.2054C-30.5035 77.3334 -30.8008 77.4534 -31.0928 77.5854C-31.1141 77.5961 -31.1221 77.6108 -31.1421 77.6214C-30.5208 75.7774 -29.9181 73.9268 -29.3701 72.0601C-27.7914 66.6761 -26.4394 61.2268 -25.2408 55.7468C-22.7928 44.5454 -20.9821 33.2174 -19.1888 21.8974C-19.0235 20.8534 -20.3061 20.2174 -20.9315 21.1628C-27.1795 30.5974 -30.5701 41.5601 -32.7581 52.5774C-33.9648 58.6481 -34.8541 64.7748 -35.8181 70.8868C-36.6661 76.2521 -37.6648 81.5988 -38.5234 86.9628C-40.4701 89.3361 -42.3821 91.7374 -44.2661 94.1601C-44.5408 94.2001 -44.8128 94.2401 -45.0875 94.2801C-45.1088 94.2828 -45.1221 94.2948 -45.1421 94.3001C-43.9061 90.3628 -42.8701 86.3374 -41.8821 82.3734C-40.4101 76.4614 -39.1008 70.5094 -37.9568 64.5254C-35.7101 52.7841 -34.0554 40.9068 -33.1354 28.9868C-33.0474 27.8614 -34.5875 27.6294 -35.1248 28.4481C-41.6741 38.4241 -42.8435 50.9441 -44.4208 62.4774C-46.0595 74.4441 -47.2648 86.4748 -48.3341 98.5068C-48.3861 98.7294 -48.4475 98.9508 -48.4981 99.1748C-48.5448 99.3748 -48.5141 99.5401 -48.4541 99.6841C-49.2661 100.78 -50.0914 101.865 -50.8888 102.973C-51.7821 104.213 -52.6314 105.485 -53.5008 106.743C-52.7994 103.641 -52.2181 100.509 -51.6808 97.3988C-50.6448 91.3974 -49.8688 85.3494 -49.3035 79.2868C-48.1555 66.9774 -47.8355 54.6361 -47.4328 42.2868C-47.4061 41.4614 -48.6168 40.8561 -49.1795 41.5641C-54.7075 48.5214 -56.0688 57.3734 -56.5661 66.0054C-57.1901 76.8681 -57.3208 87.7734 -57.6514 98.6481C-57.8021 103.596 -58.0688 108.576 -58.0394 113.537C-58.9421 114.939 -59.8635 116.328 -60.7368 117.747C-60.7821 117.82 -60.8248 117.895 -60.8701 117.968C-60.8581 117.188 -60.8488 116.408 -60.8315 115.631C-60.7715 112.748 -60.7195 109.865 -60.6915 106.983C-60.6301 100.887 -60.6848 94.7868 -60.7768 88.6908C-60.9581 76.6081 -61.3608 64.5254 -62.0701 52.4601C-62.1341 51.3588 -63.7248 51.0654 -64.0408 52.1934C-70.8501 76.5068 -69.2448 102.228 -66.1874 127.037C-67.3234 129.051 -68.4061 131.12 -68.9568 133.347C-69.3088 134.765 -67.4261 136.084 -66.3635 134.857C-64.9728 133.255 -63.9728 131.447 -62.9501 129.615C-41.1021 132.719 -18.0008 128.591 2.24588 120.165C3.64455 119.583 3.16322 117.493 1.60455 117.84C-3.82745 119.051 -9.37011 119.073 -14.9088 119.057C-20.3474 119.04 -25.7515 119.241 -31.1568 119.881C-41.1981 121.071 -51.0168 123.401 -60.8075 125.856C-60.0195 124.485 -59.2248 123.119 -58.4101 121.763C-58.2954 121.573 -58.1728 121.388 -58.0581 121.199C-52.8448 120.713 -47.6541 119.728 -42.5168 118.741C-36.9088 117.665 -31.3235 116.384 -25.8221 114.853C-14.7901 111.784 -4.53145 107.451 5.32455 101.637C6.22855 101.104 5.89788 99.4894 4.76455 99.5681C-5.97012 100.32 -16.8501 101.825 -27.3381 104.237C-32.5568 105.437 -37.7195 106.915 -42.7355 108.799C-46.1608 110.085 -49.8328 111.571 -53.1514 113.444C-52.1234 111.876 -51.0968 110.308 -50.0421 108.757C-49.8368 108.455 -49.6181 108.16 -49.4114 107.857C-39.1088 107.012 -28.8075 104.688 -18.9328 101.807C-7.91145 98.5894 2.75655 94.3294 13.0339 89.2214C13.8792 88.8014 13.4739 87.4148 12.5539 87.4508C7.13655 87.6681 1.66855 88.5681 -3.67678 89.4508C-9.16478 90.3588 -14.6008 91.6054 -19.9835 93.0068C-25.3701 94.4081 -30.7195 95.9694 -35.9981 97.7348C-38.7328 98.6494 -41.5221 99.5788 -44.2634 100.619C-42.9154 98.7828 -41.5168 96.9854 -40.1301 95.1801C-31.1621 94.5801 -22.1475 92.6801 -13.5808 90.2214C-3.36078 87.2881 6.54455 83.2974 16.0045 78.4521C16.8312 78.0294 16.4779 76.5494 15.5152 76.6441C6.27388 77.5641 -2.88212 79.0814 -11.9648 81.0148C-16.5128 81.9828 -21.0354 83.0694 -25.5261 84.2721C-28.0261 84.9428 -30.5728 85.5934 -33.0901 86.3254C-32.4688 85.5734 -31.8714 84.8028 -31.2448 84.0561C-30.6381 83.3348 -30.0141 82.6281 -29.4021 81.9121C-25.6341 81.6681 -21.8701 81.1921 -18.1341 80.7068C-13.3155 80.0814 -8.50478 79.3654 -3.73945 78.4161C5.88055 76.5014 14.9246 73.4668 23.9099 69.5948L23.9125 69.5934C23.9912 69.5588 24.0699 69.5281 24.1486 69.4948C25.2472 69.0188 24.3979 67.5268 23.3899 67.6961C18.5392 68.5068 13.8592 68.8534 8.94055 68.9361C4.40722 69.0121 -0.10345 69.2441 -4.59812 69.8654C-10.7675 70.7201 -16.8128 72.2094 -22.6795 74.2454C-21.0141 72.3948 -19.3021 70.5854 -17.6061 68.7641C-14.2021 68.7828 -10.7048 68.3428 -7.38878 68.0628C-2.95945 67.6894 1.46189 67.2161 5.86055 66.5641C14.7979 65.2374 23.3859 62.9308 31.8059 59.6614C33.0685 59.1708 32.6019 57.2201 31.2339 57.5868C23.4059 59.6894 15.6485 58.4854 7.68188 58.4108C1.12455 58.3481 -5.03012 59.8721 -11.1248 61.9241C-10.2195 60.9881 -9.30078 60.0628 -8.39011 59.1308C-7.29545 59.1094 -6.19545 58.9974 -5.11812 58.9108C-3.21012 58.7588 -1.29811 58.5881 0.601885 58.3494C4.57789 57.8521 8.53922 57.1481 12.4619 56.3308C16.3486 55.5214 20.2059 54.5694 24.0219 53.4788C28.0539 52.3268 31.9192 50.7601 35.9059 49.4934C36.9392 49.1654 36.7472 47.6468 35.6512 47.6068C27.8539 47.3268 19.8019 48.5148 12.1472 49.9028C8.31922 50.5974 4.51388 51.4214 0.737882 52.3561C-0.274119 52.6068 -1.33412 52.8428 -2.40612 53.0908C-1.30345 51.9921 -0.188783 50.9068 0.919217 49.8148C3.22588 49.9134 5.56322 49.8201 7.82988 49.7281C11.3085 49.5868 14.7766 49.3188 18.2246 48.8361C25.1579 47.8668 31.9219 46.0081 38.1126 42.6854C39.0846 42.1641 38.5779 40.7574 37.5766 40.7094C26.5432 40.1708 15.3152 41.8121 4.99922 45.8001C5.95255 44.8734 6.91522 43.9588 7.87122 43.0361C10.5592 42.9708 13.3285 42.3348 15.9206 41.8588C19.1472 41.2654 22.3539 40.5841 25.5392 39.7988C28.7219 39.0134 31.8832 38.1441 35.0206 37.1894C38.2566 36.2054 41.4046 34.9134 44.6446 33.9641C45.5752 33.6908 45.3672 32.3494 44.4205 32.3041C41.5059 32.1641 38.4552 32.5894 35.5645 32.9654C32.5125 33.3614 29.4765 33.9214 26.4739 34.5961C21.6085 35.6881 16.7365 37.0374 12.1165 38.9508C12.8699 38.2321 13.6232 37.5121 14.3765 36.7921C16.4379 36.3734 18.4912 35.9041 20.5499 35.4761C23.9632 34.7654 27.3739 34.0614 30.7485 33.1814C33.9765 32.3401 37.1685 31.3521 40.2459 30.0588C43.3339 28.7614 46.0846 27.0721 48.8886 25.2614C49.6539 24.7668 49.4392 23.2921 48.3832 23.3934C42.2339 23.9841 36.1166 25.2201 30.1446 26.7828C27.5846 27.4521 25.0459 28.2068 22.5245 29.0121C23.1779 28.3908 23.8259 27.7641 24.4806 27.1441C24.9939 26.6588 25.5166 26.1841 26.0339 25.7028C29.0406 24.0334 32.1845 22.9268 35.3419 21.5641C38.5512 20.1801 41.5179 18.3094 44.2792 16.1748C49.6539 12.0214 54.6165 6.78543 58.6979 1.36009C59.2045 0.685427 58.3712 -0.149238 57.6699 0.0227621Z" fill="#56A262"/>
<path d="M74.3098 47.5318C73.0178 52.2091 72.7845 56.8851 73.6938 61.6651C74.1778 64.2171 74.9271 66.7158 75.7818 69.1665C76.1231 70.1451 76.4925 71.1118 76.8618 72.0785C76.8711 72.1265 76.8805 72.1745 76.8898 72.2211C76.9418 72.4758 76.9991 72.7305 77.0511 72.9838C76.7978 72.5865 76.5418 72.1905 76.2885 71.7891C75.3778 70.3478 74.4698 68.9051 73.5618 67.4625C71.9498 64.9038 70.3805 62.2905 68.2791 60.0958C67.8298 59.6265 67.2178 60.2291 67.4458 60.7451C69.0298 64.3558 70.7618 67.8998 72.6498 71.3625C73.5645 73.0411 74.5058 74.7078 75.5031 76.3371C76.0338 77.2038 76.5765 78.0625 77.1271 78.9171C77.5018 79.4985 77.9045 80.2971 78.5245 80.6625C78.5471 80.8385 78.5911 81.0131 78.6698 81.1905C78.7111 81.2838 78.7938 81.3531 78.8858 81.4091C78.9285 81.6011 78.9711 81.7945 79.0151 81.9878C79.0405 82.0985 79.0685 82.2091 79.0938 82.3198C78.7831 81.9225 78.4738 81.5305 78.1845 81.1438C76.9058 79.4371 75.5951 77.7531 74.2551 76.0945C71.4765 72.6545 68.5605 69.3278 65.5271 66.1105C65.0471 65.6025 64.3618 66.2545 64.6205 66.8158C66.9271 71.7945 69.6645 76.5691 72.7911 81.0785C74.2725 83.2145 75.8765 85.2691 77.5471 87.2611C78.7458 88.6891 79.9685 90.1198 81.3085 91.4251C81.5591 92.4051 81.8005 93.3878 82.0591 94.3651C81.5831 93.8278 81.1085 93.2878 80.6298 92.7518C78.9285 90.8505 77.2138 88.9611 75.4871 87.0825C72.0778 83.3758 68.6191 79.7171 65.1058 76.1091C64.7178 75.7118 63.9178 76.1265 64.1338 76.6838C66.1711 81.9585 69.3858 86.6451 73.0365 90.9305C74.9111 93.1318 76.8791 95.2491 78.8458 97.3665C79.9591 98.5651 81.0565 99.7811 82.1925 100.957C82.9365 101.729 83.7031 102.533 84.5391 103.234C84.7925 104.093 85.0391 104.953 85.2991 105.81C84.1791 104.49 82.8871 103.273 81.7365 102.085C79.7125 99.9945 77.6378 97.9518 75.5138 95.9625C71.2645 91.9811 66.7951 88.2411 62.1631 84.7145C61.6005 84.2865 60.9085 84.8065 61.1991 85.4651C63.8378 91.4611 68.2338 96.3465 73.0351 100.709C75.6831 103.117 78.4538 105.382 81.1765 107.704C83.4591 109.65 85.6125 111.732 87.8258 113.749C88.3725 115.394 88.9405 117.032 89.5178 118.666C89.4978 118.865 89.4738 119.064 89.4564 119.262C89.4551 119.277 89.4605 119.286 89.4605 119.3C88.6485 118.402 87.8271 117.513 86.9805 116.649C84.5378 114.157 81.9898 111.769 79.3791 109.454C74.0431 104.724 68.4445 100.301 62.8445 95.8918C62.3285 95.4851 61.5938 95.9865 61.9165 96.6145C65.1405 102.87 70.0618 108.038 75.3765 112.572C78.3045 115.07 81.3605 117.413 84.3845 119.793C87.0405 121.882 89.6391 124.048 92.2898 126.142C92.9871 127.92 93.7098 129.686 94.4525 131.445C94.3911 131.605 94.3298 131.766 94.2671 131.926C94.2631 131.94 94.2644 131.95 94.2618 131.962C92.5004 130.097 90.6298 128.312 88.7791 126.572C86.0165 123.978 83.1831 121.46 80.2831 119.021C74.5925 114.237 68.6485 109.732 62.4578 105.613C61.8738 105.224 61.2805 105.99 61.5605 106.529C64.9871 113.113 71.4271 117.55 77.2085 121.909C83.2071 126.432 89.3698 130.738 95.5764 134.973C95.6818 135.069 95.7831 135.169 95.8885 135.265C95.9831 135.35 96.0818 135.384 96.1778 135.396C96.5271 136.169 96.8658 136.946 97.2245 137.716C97.6271 138.577 98.0591 139.424 98.4778 140.278C97.0071 138.956 95.4831 137.689 93.9591 136.453C91.0165 134.068 87.9685 131.81 84.8498 129.662C78.5165 125.301 71.9165 121.381 65.3351 117.413C64.8951 117.148 64.1991 117.621 64.4125 118.141C66.5098 123.254 70.9018 126.681 75.4365 129.572C81.1418 133.209 87.0218 136.592 92.8245 140.073C95.4645 141.657 98.0858 143.314 100.787 144.805C101.274 145.72 101.748 146.641 102.254 147.546C102.279 147.593 102.307 147.64 102.332 147.686C101.912 147.442 101.492 147.201 101.075 146.956C99.5298 146.048 97.9805 145.145 96.4245 144.253C93.1338 142.369 89.8071 140.546 86.4698 138.745C79.8565 135.174 73.1765 131.725 66.4125 128.446C65.7951 128.146 65.1525 128.92 65.6698 129.434C76.7978 140.513 91.2458 147.452 105.64 153.326C106.388 154.554 107.183 155.77 108.224 156.745C108.887 157.366 110.175 156.745 109.832 155.796C109.384 154.554 108.707 153.462 108.023 152.352C116.342 141.436 121.115 127.644 122.69 114.096C122.799 113.16 121.518 112.786 121.234 113.737C120.242 117.054 118.571 120.069 116.88 123.07C115.219 126.017 113.687 129.012 112.394 132.14C109.99 137.95 108.274 143.988 106.634 150.048C106.128 149.204 105.627 148.357 105.139 147.504C105.071 147.384 105.008 147.261 104.94 147.141C106.26 144.164 107.3 141.048 108.326 137.96C109.444 134.589 110.444 131.168 111.284 127.717C112.968 120.797 113.731 113.913 113.57 106.798C113.554 106.146 112.576 105.834 112.275 106.474C109.424 112.529 106.938 118.892 105.062 125.316C104.128 128.513 103.363 131.765 102.863 135.058C102.52 137.309 102.212 139.753 102.222 142.122C101.682 141.089 101.143 140.056 100.622 139.013C100.519 138.809 100.426 138.601 100.324 138.396C102.994 132.548 104.86 126.252 106.295 120.016C107.895 113.057 108.822 105.973 109.171 98.8438C109.199 98.2571 108.323 98.0571 108.064 98.5665C106.536 101.573 105.364 104.814 104.222 107.984C103.047 111.238 102.074 114.568 101.199 117.914C100.324 121.264 99.5485 124.641 98.9031 128.042C98.5698 129.805 98.2258 131.601 97.9591 133.404C97.3711 132.116 96.8205 130.81 96.2618 129.509C98.6591 124.46 100.366 118.99 101.632 113.593C103.143 107.156 103.986 100.568 104.227 93.9611C104.248 93.3851 103.338 93.1265 103.098 93.6785C100.791 98.9731 98.8338 104.404 97.1258 109.921C96.2698 112.682 95.4871 115.468 94.7765 118.27C94.3805 119.83 93.9605 121.41 93.5938 123C93.3738 122.434 93.1365 121.876 92.9218 121.309C92.7138 120.761 92.5204 120.208 92.3178 119.658C93.3298 117.538 94.2138 115.352 95.0858 113.176C96.2084 110.37 97.2805 107.542 98.2125 104.668C100.095 98.8651 101.194 93.0345 101.82 86.9811C101.826 86.9278 101.832 86.8745 101.838 86.8211C101.914 86.0811 100.847 86.0891 100.631 86.6865C99.5991 89.5665 98.3658 92.2118 96.9178 94.9065C95.5818 97.3891 94.3378 99.9091 93.3111 102.537C91.9018 106.145 90.8738 109.878 90.1978 113.681C89.6991 112.214 89.2365 110.737 88.7631 109.262C89.8071 107.421 90.6298 105.389 91.4844 103.504C92.6271 100.986 93.7125 98.4425 94.6938 95.8585C96.6885 90.6038 98.0444 85.2425 98.8258 79.6798C98.9431 78.8451 97.7431 78.5065 97.5271 79.3598C96.2911 84.2465 93.2818 88.0918 90.8218 92.3931C88.7978 95.9331 87.7551 99.7371 87.0191 103.668C86.7858 102.892 86.5618 102.113 86.3338 101.336C86.6538 100.734 86.9271 100.104 87.2071 99.4931C87.7045 98.4105 88.1911 97.3211 88.6391 96.2185C89.5765 93.9078 90.3978 91.5451 91.1445 89.1678C91.8858 86.8118 92.5405 84.4305 93.1071 82.0265C93.7058 79.4891 94.0298 76.9145 94.5525 74.3665C94.6885 73.7051 93.8058 73.3491 93.4511 73.9318C90.9311 78.0785 89.1311 82.8105 87.5605 87.3865C86.7751 89.6745 86.0671 91.9905 85.4271 94.3238C85.2565 94.9491 85.0631 95.5958 84.8711 96.2531C84.6098 95.3211 84.3591 94.3865 84.1031 93.4531C84.8565 92.2318 85.5151 90.9345 86.1538 89.6771C87.1338 87.7465 88.0418 85.7825 88.8271 83.7638C90.4058 79.7065 91.4511 75.4705 91.5271 71.1025C91.5405 70.4158 90.6218 70.2638 90.2911 70.7918C86.6498 76.6185 84.1311 83.2105 83.1631 90.0198C82.9498 89.2225 82.7445 88.4211 82.5351 87.6225C83.3151 86.1438 83.8111 84.4465 84.3405 82.8958C84.9978 80.9638 85.6018 79.0171 86.1431 77.0505C86.6831 75.0838 87.1711 73.1038 87.6058 71.1118C88.0538 69.0558 88.3085 66.9545 88.7765 64.9078C88.9111 64.3198 88.1204 64.0251 87.8084 64.5251C86.8471 66.0651 86.1525 67.8491 85.4778 69.5331C84.7658 71.3091 84.1485 73.1278 83.6031 74.9625C82.7178 77.9345 81.9711 80.9891 81.6058 84.0771C81.4458 83.4505 81.2831 82.8225 81.1205 82.1958C81.5205 80.9491 81.8885 79.6931 82.2818 78.4451C82.9325 76.3758 83.5858 74.3118 84.1325 72.2118C84.6565 70.2051 85.0885 68.1731 85.3218 66.1105C85.5551 64.0398 85.4738 62.0331 85.3418 59.9611C85.3058 59.3958 84.4405 59.0651 84.1751 59.6691C82.6285 63.1865 81.4418 66.8811 80.4765 70.5971C80.0618 72.1905 79.7005 73.7971 79.3725 75.4105C79.2338 74.8665 79.0898 74.3251 78.9525 73.7811C78.8445 73.3558 78.7458 72.9278 78.6418 72.5011C78.6485 70.3611 79.0031 68.3185 79.2218 66.1918C79.4445 64.0305 79.3298 61.8518 79.0111 59.7051C78.3885 55.5265 77.0538 51.2425 75.3471 47.3798C75.1351 46.8998 74.4285 47.0998 74.3098 47.5318Z" fill="#477163"/>
</svg>
