<svg width="38" height="23" viewBox="0 0 38 23" fill="none" xmlns="http://www.w3.org/2000/svg">
<path d="M0.0031569 3.92322C0.0444901 4.84989 0.385823 5.69389 0.92449 6.36856C1.62849 7.25922 2.67782 7.85389 3.92316 7.84322C5.04982 7.85389 6.17649 7.83789 7.30316 7.81389C7.75516 7.80989 8.20716 7.80589 8.65916 7.80189C9.11382 7.79789 9.56716 7.76856 10.0192 7.74856C11.6138 7.74456 13.2085 7.73123 14.8018 7.73123C15.0152 7.73123 15.2272 7.70056 15.4378 7.66323C15.8298 7.67123 16.2218 7.68189 16.6205 7.68056C18.5858 7.69123 20.4672 5.94456 20.3765 3.92323C20.2858 1.87789 18.7272 0.179226 16.6205 0.167226C16.2232 0.164559 15.8325 0.172559 15.4405 0.181892C15.2325 0.145892 15.0218 0.116559 14.8018 0.116559C13.2085 0.116559 11.6138 0.101892 10.0192 0.0978917C9.56582 0.0778916 9.11382 0.0485583 8.65916 0.0445583C8.20582 0.0405582 7.75249 0.0365581 7.29916 0.0325581C6.17382 0.00989131 5.04849 -0.00744222 3.92316 0.00322435C2.73116 -0.00744242 1.58182 0.617891 0.83649 1.54722C0.297824 2.21122 -0.036843 3.03122 0.0031569 3.92322Z" fill="#FFB58E"/>
<path d="M17.0242 18.1803C17.0655 19.107 17.4068 19.951 17.9455 20.6256C18.6495 21.5163 19.6988 22.111 20.9442 22.1003C22.0708 22.111 23.1975 22.095 24.3242 22.071C24.7762 22.067 25.2282 22.063 25.6802 22.059C26.1348 22.055 26.5882 22.0256 27.0402 22.0056C28.6348 22.0003 30.2295 21.9883 31.8228 21.9883C32.0362 21.9883 32.2482 21.9576 32.4588 21.919C32.8508 21.9283 33.2428 21.939 33.6415 21.9363C35.6068 21.9483 37.4882 20.2016 37.3975 18.1803C37.3068 16.135 35.7482 14.4363 33.6415 14.4243C33.2442 14.4216 32.8535 14.4296 32.4615 14.4376C32.2535 14.403 32.0428 14.3736 31.8228 14.3736C30.2295 14.3736 28.6348 14.359 27.0402 14.355C26.5868 14.3336 26.1348 14.3056 25.6802 14.3016C25.2268 14.2976 24.7735 14.2936 24.3202 14.2896C23.1948 14.2656 22.0695 14.2496 20.9442 14.2603C19.7535 14.2496 18.6028 14.875 17.8575 15.8043C17.3188 16.4683 16.9842 17.2883 17.0242 18.1803Z" fill="#FFB58E"/>
</svg>
