<svg width="19" height="9" viewBox="0 0 19 9" fill="none" xmlns="http://www.w3.org/2000/svg">
<path d="M0.617535 4.07209C0.653535 5.03342 0.945535 5.91075 1.40687 6.60942C2.01087 7.53475 2.90954 8.15342 3.97754 8.14142C4.94154 8.15209 5.9082 8.13476 6.87354 8.11076C7.26154 8.10676 7.6482 8.10275 8.0362 8.09875C8.42554 8.09475 8.81354 8.06409 9.20154 8.04276C10.5682 8.03876 11.9349 8.02409 13.3002 8.02409C13.4842 8.02409 13.6655 7.99342 13.8455 7.95342C14.1815 7.96276 14.5175 7.97342 14.8589 7.97076C16.5442 7.98409 18.1562 6.16942 18.0789 4.07209C18.0002 1.94942 16.6642 0.185423 14.8589 0.172089C14.5189 0.170756 14.1829 0.178756 13.8482 0.188089C13.6695 0.150756 13.4895 0.120089 13.3002 0.120089C11.9349 0.120089 10.5682 0.105422 9.20154 0.101422C8.81354 0.0800888 8.42554 0.049422 8.0362 0.045422C7.6482 0.041422 7.25887 0.0374219 6.87087 0.0334218C5.90554 0.00942175 4.94154 -0.00791167 3.97754 0.00275491C2.9562 -0.00791184 1.97087 0.641421 1.33087 1.60542C0.869537 2.29475 0.582869 3.14542 0.617535 4.07209Z" fill="#FFB58E"/>
</svg>
