<svg width="175" height="187" viewBox="0 0 175 187" fill="none" xmlns="http://www.w3.org/2000/svg">
<path d="M166.757 119.316C152.192 100.881 159.304 57.4636 159.304 57.4636C133.569 47.1889 111.088 15.2742 107.1 9.38091C106.687 8.77158 106.472 8.44091 106.472 8.44091C82.052 24.7929 36.156 21.8796 36.1547 21.8796C35.8 41.9609 0 75.4142 0 75.4142C14.5653 93.8489 7.45467 137.268 7.45467 137.268C26.976 145.061 44.6267 165.309 53.752 177.204C54.1667 177.745 54.564 178.268 54.9427 178.772C57.216 181.797 58.8333 184.13 59.6587 185.349C60.072 185.96 60.2853 186.29 60.2853 186.29C84.7067 169.937 130.604 172.85 130.604 172.85C130.615 172.224 130.661 171.582 130.739 170.93C131.208 167.017 132.845 162.685 135.18 158.242C135.959 156.762 136.813 155.269 137.729 153.776C148.264 136.598 166.757 119.316 166.757 119.316Z" fill="#FFB58E"/>
<path d="M114.379 0.000509055L68.1919 177.851C68.1919 177.851 43.7573 140.165 15.3599 128.827C15.3599 128.827 22.4719 85.4098 7.90662 66.9752C7.90662 66.9752 43.7053 33.5205 44.0599 13.4405C44.0599 13.4405 89.9586 16.3538 114.379 0.000509055Z" fill="#FF5160"/>
<path d="M7.90723 66.9749L91.3579 88.6469L44.0606 13.4402C43.7046 33.5202 7.90723 66.9749 7.90723 66.9749Z" fill="white"/>
<path d="M91.358 88.6464L15.3607 128.828C43.7567 140.164 68.1927 177.85 68.1927 177.85L91.358 88.6464Z" fill="white"/>
<path d="M68.1925 177.851L114.379 -9.74433e-06C114.379 -9.74433e-06 138.814 37.6867 167.211 49.024C167.211 49.024 160.099 92.4413 174.664 110.876C174.664 110.876 138.866 144.329 138.51 164.411C138.51 164.411 92.6125 161.497 68.1925 177.851Z" fill="#FF5160"/>
<path d="M174.664 110.876L91.3584 88.6467L138.51 164.411C138.866 144.331 174.664 110.876 174.664 110.876Z" fill="white"/>
<path d="M91.358 88.6463L167.21 49.0237C138.814 37.6863 114.378 0.00100219 114.378 0.00100219L91.358 88.6463Z" fill="white"/>
</svg>
