<svg width="77" height="80" viewBox="0 0 77 80" fill="none" xmlns="http://www.w3.org/2000/svg">
<path d="M46.223 77.777C47.3393 78.7788 48.7405 80.256 50.3956 79.9621C52.3769 79.6094 52.7188 77.5035 53.1099 75.8985C53.8274 72.9391 54.335 69.9515 54.3557 66.9179C56.3371 67.6105 58.3729 68.1626 60.3672 68.6354C62.0999 69.0443 64.5579 69.9975 66.3139 69.218C68.7408 68.137 67.6141 65.589 66.8008 63.8512C65.1069 60.2272 63.1696 56.6672 60.6935 53.5007C60.6055 53.3883 60.5096 53.2809 60.419 53.171C61.6855 53.0024 62.9495 52.8107 64.203 52.5704C65.6923 52.2842 67.2334 51.975 68.5491 51.1955C69.8053 50.4518 71.2816 49.0615 71.007 47.4591C70.7429 45.9078 68.7278 44.8063 67.5675 43.9349C65.827 42.6289 63.9777 41.4329 62.0144 40.4668C63.5711 39.3321 65.1044 37.9444 66.0575 36.2653C67.0754 34.4712 68.0052 31.4504 65.8244 30.0883C64.822 29.4621 63.6177 29.6589 62.5117 29.8097C61.297 29.9758 60.0823 30.1624 58.8753 30.3694C57.8704 30.5432 56.8732 30.7425 55.8787 30.9674C57.4301 28.1587 58.4946 25.138 58.953 21.9613C59.181 20.3793 59.225 18.7897 59.1369 17.1924C59.0903 16.349 58.9867 15.5031 58.4143 14.8284C57.6943 13.9774 56.4951 13.7882 55.4668 14.0924C54.6354 14.3403 53.9465 14.8693 53.2291 15.337C52.408 15.8711 51.5896 16.4104 50.7815 16.9649C49.2663 18.0077 47.8003 19.1321 46.4432 20.3716C46.065 20.7141 45.6998 21.0693 45.3424 21.4322C45.3139 21.0617 45.301 20.6911 45.2647 20.3231C44.884 16.4001 44.0189 12.5666 42.786 8.82004C42.4079 7.66999 40.7943 7.5601 39.9707 8.20157C36.5078 10.8952 33.9799 14.601 32.4777 18.6772C32.1591 19.5462 31.8924 20.433 31.6644 21.33C31.0247 20.4918 30.385 19.6561 29.7556 18.8127C29.3231 18.2325 28.8931 17.6499 28.4606 17.0697C28.0177 16.4743 27.5903 15.7408 26.8548 15.4597C25.1143 14.7901 24.0653 16.395 23.8969 17.8671C23.726 19.3749 23.6664 20.9007 23.6794 22.4162C23.6871 23.073 23.7234 23.7272 23.7623 24.3815C21.7446 22.7177 19.4783 21.192 17.0049 20.6042C16.1735 20.4074 15.0882 20.7729 15.0572 21.79C14.9484 25.3347 15.4871 28.7619 16.6915 32.097C14.9613 31.3099 13.1923 30.5739 11.4208 29.8992C9.26066 29.0762 7.0695 28.5779 4.74624 28.836C3.65065 28.9561 3.13783 30.1956 3.5341 31.1131C4.81876 34.093 6.8079 36.7483 9.26325 38.8925C9.97551 39.5161 10.7396 40.0656 11.5321 40.5793C10.7422 40.7786 9.95997 41.0112 9.19332 41.2514C6.04125 42.2481 2.87624 43.8914 0.527076 46.2171C-0.0505017 46.7895 -0.211084 47.6329 0.338003 48.2999C1.19789 49.3452 2.45406 49.7234 3.76979 49.8384C5.25647 49.9688 6.76646 49.9637 8.25573 49.9432C9.43679 49.9279 10.6178 49.8793 11.7963 49.8001C11.0711 50.3572 10.3588 50.9348 9.69838 51.5533C7.50462 53.6132 5.70455 56.0334 5.28755 59.0644C5.18654 59.8081 5.82887 60.6361 6.60847 60.6642C9.61291 60.7741 12.6614 60.5799 15.5726 59.7851C15.6296 59.7698 15.6891 59.7493 15.7461 59.734C15.3447 60.3806 14.9561 61.0374 14.5935 61.6993C12.8427 64.8811 11.6875 68.2546 10.9235 71.7916C10.6955 72.8496 11.8714 73.7007 12.8271 73.5499C17.5617 72.8062 22.0813 71.007 25.9949 68.3261C25.9949 68.4692 25.9845 68.6072 25.9871 68.7504C26.0026 70.1355 26.0674 71.5207 26.1943 72.9008C26.3083 74.1224 26.2487 75.8883 27.0697 76.8876C28.0798 78.1194 29.9032 77.7591 31.1335 77.0946C32.3612 76.4301 33.2884 75.4079 34.2208 74.3984C35.9276 72.5532 37.435 70.4984 38.8129 68.4053C38.8932 68.2801 38.9657 68.1523 39.046 68.0271C39.3827 68.7861 39.7531 69.5298 40.1598 70.248C41.7578 73.0745 43.8013 75.597 46.223 77.777Z" fill="#FFB58E"/>
<path d="M73.5272 36.124C71.7867 34.818 69.9374 33.622 67.9742 32.6559C69.5308 31.5212 71.0641 30.1335 72.0172 28.4544C73.0351 26.6603 73.9649 23.6396 71.7841 22.2774C70.7818 21.6512 69.5774 21.848 68.4715 21.9988C67.2567 22.1649 66.042 22.3515 64.835 22.5585C63.8301 22.7323 62.833 22.9316 61.8384 23.1565C63.3898 20.3453 64.4543 17.3271 64.9128 14.1504C65.1407 12.5684 65.1847 10.9788 65.0966 9.38151C65.05 8.53814 64.9464 7.69221 64.374 7.01496C63.6514 6.16392 62.4548 5.97736 61.4266 6.28148C60.5952 6.52938 59.9062 7.05841 59.1888 7.5261C58.3677 8.06023 57.5493 8.59947 56.7412 9.15405C55.226 10.1942 53.7601 11.3213 52.4029 12.5582C52.0247 12.9032 51.6596 13.2584 51.3021 13.6213C51.2736 13.2508 51.2581 12.8802 51.2244 12.5122C50.8437 8.58925 49.9786 4.75575 48.7458 1.00915C48.3676 -0.140898 46.754 -0.250793 45.9304 0.390678C42.4675 3.08435 39.9397 6.79006 38.4374 10.8663C38.1163 11.7353 37.8521 12.6221 37.6242 13.5191C36.9844 12.6809 36.3447 11.8452 35.7153 11.0018C35.2828 10.4191 34.8502 9.83897 34.4203 9.25883C33.9774 8.66336 33.55 7.92989 32.8145 7.64621C31.074 6.97918 30.025 8.58414 29.8567 10.0562C29.6857 11.564 29.6261 13.0872 29.6391 14.6027C29.6469 15.2621 29.6831 15.9163 29.722 16.5706C27.7043 14.9069 25.4381 13.3811 22.9646 12.7933C22.1332 12.5965 21.048 12.962 21.0169 13.9791C20.9081 17.5239 21.4468 20.951 22.6512 24.2861C20.921 23.499 19.1521 22.7604 17.3805 22.0857C15.2204 21.2628 13.0292 20.767 10.706 21.0251C9.61038 21.1452 9.09755 22.3847 9.49382 23.3022C10.7785 26.2821 12.7676 28.9374 15.2204 31.0816C15.9352 31.7052 16.6993 32.2547 17.4918 32.7684C16.7019 32.9677 15.9197 33.1977 15.153 33.4405C12.001 34.4372 8.83595 36.0805 6.48679 38.4062C5.90922 38.9786 5.74863 39.822 6.29772 40.489C7.15761 41.5343 8.41378 41.9125 9.72952 42.0276C11.2136 42.1579 12.7262 42.1528 14.2155 42.1323C15.3939 42.1144 16.5776 42.0684 17.756 41.9892C17.0308 42.5464 16.3186 43.1239 15.6581 43.7424C13.4643 45.8023 11.6643 48.2199 11.2473 51.2509C11.1463 51.9972 11.7886 52.8252 12.5682 52.8533C15.5726 52.9632 18.6211 52.769 21.5297 51.9742C21.5893 51.9589 21.6488 51.9384 21.7058 51.9205C21.3044 52.5697 20.9159 53.2239 20.5533 53.8884C18.8024 57.0702 17.6472 60.4437 16.8832 63.9807C16.6553 65.0362 17.8311 65.8898 18.7869 65.739C23.5214 64.9953 28.041 63.1961 31.9546 60.5152C31.9546 60.6583 31.9442 60.7963 31.9468 60.9395C31.9624 62.3246 32.0271 63.7098 32.154 65.0899C32.2654 66.3115 32.2084 68.0774 33.0294 69.0741C34.0396 70.3085 35.8629 69.9482 37.0932 69.2837C38.3209 68.6167 39.2481 67.5944 40.1805 66.5875C41.8874 64.7423 43.3948 62.685 44.7727 60.5919C44.8529 60.4692 44.9255 60.3414 45.0058 60.2162C45.3425 60.9727 45.7128 61.7164 46.1195 62.4371C47.7175 65.2636 49.7611 67.7861 52.1827 69.9661C53.2965 70.9679 54.7003 72.4451 56.3553 72.1486C58.3367 71.7985 58.6785 69.6926 59.0696 68.0877C59.7871 65.1282 60.2947 62.1406 60.3154 59.1071C62.2968 59.7996 64.3326 60.3517 66.3269 60.8245C68.0596 61.2334 70.5176 62.1866 72.2736 61.4046C74.7005 60.3261 73.5738 57.7781 72.7605 56.0403C71.0667 52.4163 69.1293 48.8563 66.6533 45.6898C66.5652 45.5774 66.4694 45.47 66.3787 45.3601C67.6452 45.1915 68.9092 44.9998 70.1627 44.7596C71.652 44.4733 73.1905 44.1641 74.5088 43.3846C75.765 42.6409 77.2413 41.2506 76.9668 39.6482C76.7026 38.0969 74.6875 36.9954 73.5272 36.124Z" fill="#56A262"/>
<path d="M55.4389 37.0741C54.6697 36.4965 53.8538 35.9701 52.9887 35.5433C53.6751 35.0424 54.3511 34.429 54.7733 33.6904C55.2213 32.8982 55.6306 31.5641 54.6697 30.9635C54.2268 30.6875 53.6958 30.7744 53.2063 30.8408C52.6702 30.9124 52.1366 30.9942 51.6031 31.0862C51.1602 31.1629 50.7173 31.2523 50.2796 31.352C50.9659 30.1099 51.4347 28.7784 51.6367 27.3754C51.7377 26.6777 51.7585 25.9749 51.717 25.2721C51.6963 24.8989 51.6523 24.5258 51.3984 24.2268C51.0799 23.8511 50.5515 23.7668 50.0982 23.9022C49.7305 24.0121 49.4274 24.2447 49.1114 24.4517C48.7488 24.6868 48.3862 24.9245 48.0314 25.1698C47.3606 25.6299 46.7157 26.1256 46.1148 26.6726C45.949 26.8259 45.7858 26.9818 45.6279 27.1402C45.6175 26.9792 45.6097 26.8157 45.5942 26.6521C45.4258 24.9219 45.0451 23.2275 44.5012 21.5766C44.3354 21.068 43.6206 21.0194 43.258 21.3031C41.7299 22.4915 40.6136 24.1271 39.9505 25.9263C39.8106 26.3097 39.6941 26.7007 39.5931 27.0968C39.3108 26.7262 39.0259 26.3582 38.7487 25.9851C38.5597 25.7295 38.368 25.474 38.1789 25.2158C37.9821 24.9526 37.793 24.6306 37.4693 24.5054C36.7026 24.2089 36.239 24.9194 36.1639 25.5685C36.0888 26.233 36.0629 26.9077 36.068 27.5747C36.0706 27.8661 36.0862 28.1548 36.1043 28.4436C35.2133 27.7102 34.2136 27.0355 33.1206 26.7773C32.7554 26.6905 32.2762 26.8515 32.2607 27.3013C32.2141 28.8653 32.4524 30.3783 32.9833 31.8478C32.2193 31.5028 31.4397 31.1756 30.6575 30.8792C29.7043 30.5163 28.7357 30.2965 27.7126 30.4089C27.2283 30.4626 27.0003 31.0095 27.1765 31.4159C27.7437 32.7295 28.6217 33.9025 29.7043 34.8481C30.0177 35.1241 30.357 35.3669 30.7067 35.5918C30.357 35.6813 30.0125 35.7835 29.6733 35.8908C28.2824 36.3304 26.8864 37.0537 25.8478 38.081C25.594 38.3341 25.524 38.7072 25.7649 39.0011C26.1456 39.4637 26.6999 39.6298 27.2801 39.6809C27.9353 39.7371 28.6036 39.7346 29.2614 39.7269C29.782 39.7192 30.3026 39.6962 30.8232 39.663C30.5021 39.9083 30.1887 40.1639 29.8986 40.4374C28.9273 41.3446 28.1348 42.4129 27.9509 43.7521C27.9043 44.0792 28.1892 44.4446 28.5336 44.4574C29.8597 44.506 31.204 44.4216 32.4886 44.0715C32.5145 44.0639 32.5404 44.0536 32.5663 44.046C32.3902 44.3322 32.2167 44.6235 32.0561 44.9149C31.2843 46.3205 30.774 47.8079 30.4373 49.3694C30.3363 49.8345 30.8569 50.2128 31.2791 50.1463C33.3666 49.8167 35.3636 49.0218 37.0911 47.8411C37.0911 47.9025 37.0859 47.9638 37.0859 48.0277C37.0937 48.6385 37.1222 49.2493 37.1792 49.8601C37.2284 50.3968 37.2025 51.1763 37.5651 51.6184C38.0106 52.1628 38.8161 52.0043 39.3574 51.7104C39.9013 51.4165 40.3079 50.9641 40.7197 50.5195C41.4734 49.7068 42.1391 48.7969 42.7477 47.8743C42.784 47.8207 42.8151 47.7619 42.8487 47.7082C42.999 48.043 43.1621 48.3701 43.3409 48.687C44.0479 49.9342 44.9493 51.0485 46.0189 52.012C46.5111 52.4541 47.1301 53.1058 47.8605 52.9755C48.7333 52.8196 48.8861 51.8919 49.0571 51.1814C49.3756 49.8754 49.5984 48.5567 49.6061 47.2175C50.4816 47.5242 51.3803 47.767 52.2609 47.9766C53.025 48.158 54.1102 48.5772 54.8846 48.2321C55.9569 47.7568 55.4596 46.6323 55.0996 45.8656C54.3537 44.2658 53.499 42.694 52.406 41.2961C52.3671 41.2475 52.3231 41.199 52.2842 41.1504C52.8437 41.0763 53.4005 40.9919 53.9548 40.8846C54.6127 40.7594 55.2913 40.6239 55.8714 40.2789C56.4257 39.9518 57.0784 39.3384 56.9567 38.6305C56.8401 37.9456 55.9517 37.4575 55.4389 37.0741Z" fill="#477163"/>
</svg>
