<svg width="87" height="97" viewBox="0 0 87 97" fill="none" xmlns="http://www.w3.org/2000/svg">
<path d="M0.819118 90.0288C7.57378 90.1022 13.9471 88.7542 20.0565 85.8315C23.3191 84.2702 26.4151 82.3742 29.4085 80.3515C30.6031 79.5448 31.7738 78.7048 32.9431 77.8622C33.0031 77.8328 33.0645 77.8048 33.1245 77.7742C33.4498 77.6142 33.7698 77.4475 34.0938 77.2862C33.6485 77.7675 33.2058 78.2542 32.7578 78.7382C31.1418 80.4755 29.5218 82.2102 27.9045 83.9462C25.0351 87.0235 22.0778 90.0675 19.8711 93.6755C19.3991 94.4475 20.4271 95.0555 21.0418 94.5662C25.3365 91.1488 29.4898 87.5568 33.4778 83.7862C35.4098 81.9582 37.3178 80.0982 39.1565 78.1768C40.1338 77.1542 41.0965 76.1182 42.0498 75.0742C42.6991 74.3622 43.6311 73.5368 43.9018 72.5728C44.1298 72.4808 44.3498 72.3568 44.5605 72.1888C44.6711 72.0995 44.7351 71.9648 44.7778 71.8208C45.0218 71.6942 45.2658 71.5675 45.5098 71.4408C45.6498 71.3675 45.7885 71.2902 45.9298 71.2168C45.5058 71.7768 45.0885 72.3315 44.6698 72.8595C42.8285 75.1875 41.0285 77.5488 39.2725 79.9422C35.6325 84.9048 32.1925 90.0115 28.9431 95.2395C28.4298 96.0648 29.5525 96.7555 30.2151 96.2062C36.0938 91.3328 41.5445 85.9502 46.5005 80.1395C48.8485 77.3862 51.0431 74.4982 53.1285 71.5408C54.6245 69.4195 56.1138 67.2648 57.3938 64.9982C58.6231 64.3115 59.8605 63.6368 61.0831 62.9408C60.5285 63.7728 59.9711 64.6035 59.4218 65.4395C57.4671 68.4048 55.5338 71.3848 53.6218 74.3755C49.8471 80.2822 46.1525 86.2382 42.5485 92.2488C42.1498 92.9128 42.9938 93.8408 43.6671 93.3528C50.0405 88.7355 55.2031 82.7408 59.6711 76.3048C61.9671 72.9995 64.1165 69.5982 66.2658 66.1982C67.4818 64.2742 68.7271 62.3648 69.9071 60.4182C70.6805 59.1422 71.4885 57.8235 72.1365 56.4488C73.2018 55.8035 74.2711 55.1648 75.3311 54.5115C73.9538 56.4875 72.7751 58.6582 71.5858 60.6302C69.4925 64.0968 67.4831 67.6155 65.5605 71.1808C61.7151 78.3155 58.2725 85.6608 55.1738 93.1475C54.7978 94.0568 55.7444 94.8035 56.5271 94.1782C63.6565 88.4955 68.6671 80.8395 72.8311 72.8288C75.1271 68.4088 77.1898 63.8742 79.3458 59.3848C81.1538 55.6208 83.1885 51.9835 85.1165 48.2875C87.1351 46.9662 89.1365 45.6182 91.1311 44.2608C91.4058 44.2168 91.6805 44.1795 91.9538 44.1315C91.9738 44.1288 91.9845 44.1168 92.0031 44.1128C91.0845 45.5248 90.1805 46.9462 89.3191 48.3928C86.8338 52.5675 84.5271 56.8435 82.3405 61.1808C77.8738 70.0435 73.9151 79.1502 69.9711 88.2555C69.6085 89.0942 70.5458 89.9035 71.2738 89.2462C78.5458 82.6835 83.7511 74.2222 87.9605 65.4582C90.2791 60.6288 92.3458 55.6835 94.4725 50.7675C96.3391 46.4515 98.3285 42.1835 100.204 37.8728C102.348 36.3022 104.47 34.7008 106.571 33.0755C106.81 33.1008 107.047 33.1262 107.284 33.1528C107.304 33.1542 107.318 33.1475 107.335 33.1475C105.451 36.1822 103.714 39.3328 102.032 42.4435C99.5231 47.0822 97.1431 51.7915 94.8938 56.5608C90.4805 65.9208 86.5325 75.5222 83.1911 85.3168C82.8765 86.2422 84.1178 86.7675 84.7431 86.1982C92.3845 79.2462 96.0631 69.0008 99.8725 59.6715C103.824 49.9915 107.428 40.1662 110.918 30.3088C111.01 30.1328 111.108 29.9595 111.2 29.7835C111.282 29.6262 111.291 29.4808 111.272 29.3475C112.19 28.6035 113.115 27.8715 114.023 27.1142C115.039 26.2662 116.024 25.3835 117.026 24.5168C115.768 26.9662 114.606 29.4662 113.486 31.9582C111.323 36.7662 109.368 41.6702 107.588 46.6315C103.972 56.7035 101.044 66.9808 98.0458 77.2475C97.8458 77.9342 98.7298 78.7022 99.3538 78.2302C105.488 73.5888 108.538 66.4608 110.814 59.3315C113.679 50.3582 116.139 41.2435 118.76 32.1982C119.952 28.0808 121.25 23.9648 122.295 19.7982C123.354 18.8182 124.424 17.8515 125.463 16.8502C125.516 16.7982 125.57 16.7462 125.623 16.6942C125.444 17.3448 125.268 17.9968 125.087 18.6462C124.415 21.0488 123.751 23.4542 123.104 25.8648C121.74 30.9635 120.471 36.0888 119.234 41.2195C116.782 51.3888 114.515 61.6062 112.51 71.8728C112.326 72.8115 113.596 73.3995 114.104 72.5222C125.054 53.6062 129.251 31.6955 132.035 10.2368C133.422 8.79418 134.775 7.29152 135.718 5.54352C136.318 4.43018 135.024 2.91951 133.868 3.71818C132.358 4.76218 131.128 6.06218 129.878 7.37818C112.228 0.0661809 91.9711 -1.45115 73.1805 1.24885C71.8831 1.43551 71.8351 3.29152 73.2165 3.33552C78.0325 3.49152 82.6831 4.66751 87.3231 5.87417C91.8805 7.06084 96.4538 8.05817 101.124 8.68617C109.798 9.85284 118.534 10.0155 127.271 10.0675C126.314 11.0462 125.354 12.0222 124.378 12.9822C124.242 13.1168 124.099 13.2448 123.962 13.3795C119.486 12.6622 114.922 12.3702 110.402 12.0902C105.468 11.7835 100.51 11.6542 95.5685 11.7515C85.6565 11.9475 76.1218 13.3688 66.6058 16.1182C65.7325 16.3702 65.6618 17.7955 66.6298 17.9742C75.7911 19.6568 85.2378 20.7395 94.5498 20.9782C99.1845 21.0968 103.831 20.9702 108.443 20.4728C111.592 20.1328 114.99 19.6782 118.176 18.8222C116.976 19.9155 115.778 21.0088 114.56 22.0822C114.322 22.2915 114.075 22.4928 113.836 22.7008C105.016 21.1888 95.8791 20.9168 86.9791 21.2048C77.0458 21.5262 67.1845 22.7995 57.4671 24.8662C56.6671 25.0355 56.7085 26.2862 57.4871 26.4542C62.0765 27.4395 66.8538 27.8635 71.5258 28.2755C76.3231 28.6982 81.1485 28.8235 85.9631 28.8088C90.7818 28.7955 95.6031 28.6382 100.41 28.2968C102.9 28.1195 105.438 27.9422 107.959 27.6608C106.435 28.9088 104.875 30.1142 103.323 31.3302C95.6751 29.8982 87.7071 29.5488 79.9951 29.7635C70.7951 30.0208 61.6298 31.2315 52.6551 33.2555C51.8711 33.4315 51.8484 34.7488 52.6751 34.8755C60.6218 36.0968 68.6245 36.7982 76.6565 37.1342C80.6778 37.3035 84.7031 37.3675 88.7285 37.3262C90.9685 37.3035 93.2431 37.3062 95.5125 37.2355C94.8298 37.7315 94.1631 38.2488 93.4765 38.7395C92.8125 39.2142 92.1365 39.6728 91.4698 40.1408C88.2565 39.5328 84.9991 39.1208 81.7618 38.7222C77.5885 38.2075 73.4005 37.7715 69.2005 37.5395C60.7231 37.0728 52.4858 37.6675 44.1178 38.9768H44.1151V38.9782C44.0418 38.9888 43.9698 38.9982 43.8965 39.0102C42.8725 39.1715 43.2631 40.6048 44.1445 40.6808C48.3871 41.0475 52.3845 41.7648 56.5258 42.7555C60.3431 43.6688 64.1751 44.4475 68.0765 44.8942C73.4338 45.5075 78.8231 45.5622 84.1805 45.1195C82.3845 46.3115 80.5605 47.4595 78.7445 48.6208C75.8965 47.8728 72.8685 47.4875 70.0285 47.0075C66.2338 46.3662 62.4245 45.8088 58.5978 45.4088C50.8178 44.5928 43.1218 44.6768 35.3578 45.6035C34.1938 45.7422 34.1645 47.4782 35.3898 47.4648C42.4058 47.3902 48.6498 50.0715 55.3125 51.8515C60.7965 53.3168 66.2858 53.3662 71.8378 52.9582C70.8765 53.5488 69.9071 54.1262 68.9431 54.7115C68.0205 54.4928 67.0738 54.3502 66.1525 54.1902C64.5191 53.9075 62.8805 53.6382 61.2365 53.4275C57.7938 52.9888 54.3231 52.7248 50.8578 52.5648C47.4245 52.4062 43.9858 52.3728 40.5498 52.4648C36.9218 52.5622 33.3431 53.0408 29.7285 53.2435C28.7911 53.2968 28.6245 54.6115 29.5351 54.8808C36.0125 56.7968 43.0191 57.5355 49.7365 58.0208C53.0938 58.2635 56.4631 58.3942 59.8298 58.4248C60.7325 58.4328 61.6711 58.4622 62.6245 58.4848C61.4631 59.1688 60.2938 59.8382 59.1298 60.5155C57.2178 59.9355 55.2378 59.5102 53.3178 59.0982C50.3711 58.4675 47.4058 57.9448 44.4111 57.6048C38.3885 56.9248 32.3165 57.0248 26.4111 58.4755C25.4831 58.7035 25.6058 59.9928 26.4338 60.2488C35.5685 63.0782 45.3351 64.1222 54.8445 63.0008C53.8458 63.5728 52.8418 64.1328 51.8405 64.7008C49.5738 64.1755 47.1138 64.1115 44.8378 63.9528C42.0058 63.7542 39.1698 63.6342 36.3311 63.6062C33.4925 63.5782 30.6538 63.6262 27.8191 63.7502C24.8938 63.8782 21.9751 64.2835 19.0538 64.3808C18.2165 64.4088 18.1005 65.5782 18.8845 65.8208C21.2978 66.5648 23.9471 66.8662 26.4525 67.1742C29.0965 67.5008 31.7631 67.6848 34.4258 67.7662C38.7391 67.8995 43.1151 67.8182 47.4018 67.2115C46.6138 67.6502 45.8271 68.0915 45.0405 68.5328C43.2218 68.4395 41.4005 68.3902 39.5818 68.3062C36.5658 68.1662 33.5551 68.0208 30.5365 68.0315C27.6485 68.0408 24.7605 68.1822 21.9018 68.6022C19.0325 69.0235 16.3618 69.8475 13.6205 70.7622C12.8725 71.0115 12.7351 72.2942 13.6418 72.4368C18.9245 73.2675 24.3205 73.5488 29.6631 73.5262C31.9551 73.5168 34.2445 73.4315 36.5325 73.2995C35.8511 73.6795 35.1725 74.0648 34.4898 74.4435C33.9551 74.7408 33.4151 75.0262 32.8778 75.3168C29.9965 76.0688 27.1218 76.3195 24.1818 76.7808C21.1925 77.2502 18.3031 78.1795 15.5271 79.3728C10.1258 81.6968 4.83645 85.0168 0.245784 88.6862C-0.324882 89.1422 0.195118 90.0222 0.819118 90.0288Z" fill="#477163"/>
</svg>
