<svg width="66" height="80" viewBox="0 0 66 80" fill="none" xmlns="http://www.w3.org/2000/svg">
<path d="M65.0787 78.576C62.3062 73.436 58.6164 69.1785 53.8468 65.7797C51.2994 63.9658 48.5696 62.4182 45.786 61.0001C44.6757 60.4349 43.5485 59.9012 42.4221 59.3687C42.3742 59.3356 42.3266 59.3007 42.2787 59.2676C42.0222 59.0897 41.761 58.9168 41.5034 58.7397C42.0551 58.8753 42.6088 59.0046 43.162 59.1425C45.153 59.6366 47.1431 60.1364 49.1338 60.6324C52.6646 61.5137 56.205 62.478 59.8589 62.6353C60.6411 62.6698 60.6698 61.6369 60.0419 61.3772C55.6595 59.5599 51.2025 57.921 46.6793 56.4842C44.4877 55.7873 42.281 55.1223 40.057 54.5366C38.8753 54.226 37.6881 53.9308 36.499 53.6467C35.6883 53.4543 34.6739 53.094 33.8296 53.2927C33.665 53.1593 33.4798 53.0453 33.2646 52.9558C33.1502 52.9094 33.0224 52.9182 32.8952 52.9461C32.6969 52.8136 32.4994 52.6822 32.3008 52.5516C32.1866 52.4756 32.0699 52.403 31.9557 52.327C32.5567 52.4146 33.1509 52.4973 33.7259 52.592C36.2579 53.0105 38.7986 53.3836 41.3447 53.7088C46.6229 54.3845 51.9278 54.8485 57.2421 55.1181C58.0815 55.1596 58.1351 54.0209 57.442 53.7501C51.2924 51.3439 44.9378 49.4747 38.4666 48.1585C35.3995 47.5354 32.2961 47.0851 29.1862 46.7455C26.955 46.5029 24.6999 46.2773 22.4505 46.2582C21.4157 45.6151 20.3873 44.9626 19.349 44.3284C20.2111 44.3996 21.0737 44.4737 21.9356 44.5401C24.9964 44.7756 28.0596 44.9914 31.1247 45.1846C37.1724 45.5674 43.2256 45.8679 49.2829 46.0773C49.9513 46.1009 50.3006 45.0732 49.6495 44.7694C43.4876 41.8819 36.791 40.485 30.0498 39.8007C26.5892 39.4479 23.1151 39.2468 19.642 39.0449C17.6778 38.9303 15.7117 38.7877 13.7448 38.7109C12.4563 38.6604 11.1199 38.5998 9.80823 38.685C8.87446 38.15 7.94382 37.608 7.00506 37.0798C9.07642 37.2951 11.2127 37.2765 13.2028 37.3516C16.7013 37.4832 20.2049 37.5296 23.7068 37.4905C30.7154 37.4124 37.7138 36.9412 44.6753 36.15C45.5202 36.0537 45.6888 35.0247 44.8883 34.6943C37.6039 31.6815 29.7142 31.096 21.9089 31.3017C17.6033 31.4144 13.3096 31.754 9.01141 32.0019C5.40582 32.2106 1.80141 32.1948 -1.80194 32.2843C-3.64682 31.3111 -5.50404 30.3597 -7.36613 29.4199C-7.51562 29.2316 -7.6575 29.038 -7.80917 28.8513C-7.82027 28.838 -7.83219 28.835 -7.84361 28.8234C-6.39097 28.926 -4.93686 29.0144 -3.48132 29.061C0.716366 29.1928 4.91874 29.1466 9.11528 28.9836C17.691 28.6526 26.2384 27.8337 34.7762 27.0035C35.565 26.9273 35.7838 25.8791 34.9815 25.6039C26.9707 22.8502 18.3911 22.4555 9.99729 22.942C5.37341 23.2097 0.765794 23.7174 -3.84342 24.1674C-7.89035 24.5626 -11.9515 24.8454 -15.9987 25.231C-18.0853 24.2671 -20.1847 23.3335 -22.2949 22.4239C-22.375 22.2322 -22.4553 22.0425 -22.5346 21.8519C-22.5406 21.8365 -22.5526 21.8287 -22.56 21.816C-19.4748 21.9705 -16.3641 21.9649 -13.3067 21.9349C-8.74579 21.8898 -4.18728 21.7191 0.364039 21.4227C9.29241 20.8422 18.2097 19.8073 27.0184 18.2335C27.8503 18.0843 27.7275 16.925 27.0351 16.6896C18.5753 13.8208 9.28528 15.3284 0.631884 16.353C-8.34595 17.4176 -17.2893 18.8058 -26.2077 20.2938C-26.3796 20.2979 -26.5513 20.2952 -26.7224 20.3003C-26.8762 20.3046 -26.9905 20.3577 -27.0829 20.428C-28.0306 20.0466 -28.9723 19.6528 -29.9248 19.283C-30.9921 18.8687 -32.0727 18.4932 -33.1472 18.0986C-30.768 18.0242 -28.3891 17.8568 -26.035 17.6613C-21.4926 17.2831 -16.9642 16.7073 -12.4649 15.9773C-3.3303 14.4947 5.67093 12.4058 14.6937 10.3751C15.2959 10.2382 15.5067 9.24789 14.8879 8.97353C8.80825 6.27617 2.13854 6.95572 -4.20832 8.21859C-12.1961 9.80775 -20.1215 11.7644 -28.0622 13.5701C-31.6763 14.3925 -35.334 15.1346 -38.9238 16.0884C-40.1091 15.6987 -41.2879 15.2931 -42.4801 14.9262C-42.542 14.9079 -42.6039 14.8897 -42.6658 14.8714C-42.098 14.7343 -41.5307 14.5943 -40.9652 14.4588C-38.8655 13.9614 -36.7674 13.4571 -34.674 12.9348C-30.2449 11.8331 -25.8355 10.6458 -21.4362 9.43283C-12.7159 7.02984 -4.03789 4.46561 4.56937 1.6836C5.35621 1.42909 5.27022 0.222494 4.39224 0.205035C-14.5026 -0.1567 -32.8355 5.84417 -50.2363 12.7241C-51.9078 12.2799 -53.6116 11.8847 -55.3291 11.9042C-56.4216 11.916 -57.0239 13.5278 -55.935 14.0674C-54.513 14.773 -53.014 15.158 -51.4948 15.5531C-49.635 31.9666 -42.3001 47.9282 -32.3887 61.012C-31.7048 61.9164 -30.2796 61.1744 -30.8244 60.1111C-32.724 56.4033 -33.7816 52.3921 -34.8115 48.3761C-35.8231 44.4321 -36.9839 40.5543 -38.4638 36.7587C-41.2138 29.7065 -44.7487 23.0316 -48.3694 16.3995C-47.2275 16.7137 -46.0882 17.0313 -44.952 17.3675C-44.7935 17.4138 -44.6374 17.4683 -44.4781 17.5157C-43.1458 21.2019 -41.4552 24.7782 -39.7749 28.3145C-37.9406 32.1747 -35.962 35.9802 -33.8178 39.6782C-29.5202 47.094 -24.4517 53.7112 -18.3856 59.7599C-17.8301 60.3142 -16.7213 59.7715 -16.9923 58.9636C-19.5553 51.3284 -22.6927 43.7288 -26.4111 36.5843C-28.2621 33.0283 -30.3041 29.565 -32.6128 26.2854C-34.188 24.0451 -35.9554 21.6647 -37.9359 19.6131C-36.6069 20.0628 -35.2785 20.5113 -33.9562 20.9837C-33.6984 21.0757 -33.4433 21.1777 -33.1858 21.2716C-30.6352 28.5775 -27.0151 35.6037 -23.0698 42.2169C-18.6666 49.5972 -13.5736 56.5238 -7.94117 63.0099C-7.47688 63.5438 -6.54856 62.9883 -6.74847 62.3294C-7.92422 58.4444 -9.60382 54.6528 -11.2493 50.9464C-12.9389 47.1407 -14.865 43.437 -16.8917 39.8012C-18.9205 36.1602 -21.057 32.5792 -23.3291 29.086C-24.5065 27.2763 -25.7034 25.4298 -26.9724 23.6408C-25.3893 24.2717 -23.8235 24.9474 -22.2546 25.6113C-20.1346 31.9969 -17.062 38.1707 -13.6701 43.9162C-9.62313 50.7678 -4.86912 57.1943 0.420111 63.1377C0.883225 63.6561 1.8891 63.1225 1.63829 62.4424C-0.766281 55.9201 -3.58812 49.572 -6.6956 43.3559C-8.25319 40.2423 -9.88955 37.1698 -11.6072 34.1418C-12.5621 32.4573 -13.5125 30.7353 -14.5167 29.048C-13.8541 29.3567 -13.1839 29.6437 -12.5252 29.9584C-11.8875 30.2618 -11.2583 30.581 -10.6253 30.8894C-9.73951 33.575 -8.68645 36.2109 -7.63284 38.8268C-6.27373 42.1999 -4.84974 45.5517 -3.26699 48.8255C-0.0701588 55.4357 3.83027 61.4176 8.3237 67.1987C8.32447 67.1998 8.32524 67.2009 8.32524 67.2009C8.36438 67.2516 8.40352 67.3023 8.44189 67.352C8.99311 68.0595 9.91461 67.1643 9.60297 66.4652C8.10246 63.1022 6.97037 59.7775 5.98746 56.2296C5.07924 52.9605 4.06311 49.735 2.76711 46.5965C0.988021 42.2857 -1.22803 38.186 -3.80536 34.3191C-2.15231 35.1781 -0.519602 36.0777 1.11906 36.9648C1.74648 39.4331 2.72303 41.8846 3.54953 44.2349C4.6524 47.3729 5.82606 50.4885 7.12626 53.5522C9.76715 59.7784 13.0533 65.566 17.0062 71.0518C17.5979 71.8744 18.925 71.1691 18.4018 70.2473C15.4059 64.9714 14.8198 59.1241 13.3757 53.3383C12.1875 48.5767 9.92681 44.4025 7.29395 40.3739C8.14148 40.8539 8.98524 41.3447 9.83181 41.8303C10.0535 42.6192 10.3406 43.3944 10.6067 44.1583C11.0748 45.5127 11.5585 46.8658 12.0889 48.1973C13.1972 50.9852 14.451 53.7224 15.7811 56.4105C17.0991 59.0745 18.5134 61.69 20.0224 64.25C21.6148 66.9534 23.4763 69.4599 25.1439 72.1102C25.5762 72.7974 26.6398 72.3732 26.4626 71.5709C25.2002 65.8688 22.825 60.2583 20.3785 54.9742C19.1555 52.3312 17.8433 49.7284 16.4568 47.1684C16.0845 46.4828 15.7148 45.7595 15.3339 45.0294C16.3373 45.6213 17.3329 46.2252 18.3324 46.823C18.6944 48.5121 19.2015 50.1868 19.6938 51.8131C20.4499 54.3063 21.2973 56.7692 22.2948 59.1765C24.3017 64.017 26.9195 68.5691 30.491 72.4285C31.0509 73.0352 31.976 72.4036 31.8225 71.6694C30.1371 63.5733 26.8366 55.7477 22.0074 49.0233C22.8582 49.5402 23.7029 50.0646 24.5504 50.5838C25.1027 52.5188 26.0851 54.4061 26.9178 56.1949C27.954 58.4214 29.05 60.6169 30.2182 62.7761C31.3856 64.9341 32.6099 67.0618 33.8918 69.1552C35.2131 71.3138 36.7416 73.352 38.0381 75.5217C38.4116 76.1443 39.3435 75.7415 39.1984 75.047C38.7518 72.9082 37.87 70.78 37.0548 68.7549C36.1935 66.6187 35.2161 64.5238 34.1638 62.4754C32.4577 59.1566 30.5637 55.8793 28.3093 52.8913C28.9715 53.3031 29.6339 53.7132 30.2983 54.1235C30.9886 55.5379 31.714 56.9372 32.4124 58.3492C33.5689 60.6881 34.7207 63.0271 35.9925 65.3073C37.209 67.4862 38.5243 69.6132 40.0406 71.5995C41.5613 73.5942 43.3021 75.2699 45.1417 76.9606C45.6443 77.4217 46.6722 76.9884 46.3992 76.2424C44.8153 71.8981 42.7703 67.6986 40.515 63.6659C39.5478 61.9362 38.5241 60.2399 37.4673 58.5638C38.0395 58.9201 38.6153 59.2722 39.1871 59.6304C39.6366 59.9102 40.0778 60.1991 40.5234 60.4849C42.2998 62.3493 43.6919 64.4187 45.2724 66.4495C46.8797 68.5136 48.7926 70.3125 50.8575 71.9107C54.8782 75.0244 59.6048 77.6353 64.3035 79.5719C64.8869 79.8125 65.3349 79.0513 65.0787 78.576Z" fill="#56A262"/>
</svg>
